0
SECTION
2
HEADER
9
$ACADVER
1
AC1009
9
$DWGCODEPAGE
3
ANSI_1252
9
$INSBASE
10
0.0
20
0.0
30
0.0
9
$EXTMIN
10
0.000000
20
0.000000
30
0.0
9
$EXTMAX
10
841.000000
20
594.000000
30
0.0
9
$LIMMIN
10
0.000000
20
0.000000
9
$LIMMAX
10
841.000000
20
594.000000
9
$LTSCALE
40
1.0
9
$TEXTSTYLE
7
STANDARD
9
$CLAYER
8
0
9
$LUNITS
70
2
9
$LUPREC
70
3
0
ENDSEC
0
SECTION
2
TABLES
0
TABLE
2
VPORT
70
1
0
VPORT
2
*ACTIVE
70
0
10
0.0
20
0.0
11
1.0
21
1.0
12
420.500000
22
297.000000
13
0.0
23
0.0
14
0.5
24
0.5
15
0.0
25
0.0
16
0.0
26
0.0
36
1.0
17
0.0
27
0.0
37
0.0
40
653.400000
41
1.5
42
50.0
43
0.0
44
0.0
50
0.0
51
0.0
71
0
72
1000
73
1
74
3
75
0
76
1
77
0
78
0
0
ENDTAB
0
TABLE
2
LTYPE
70
4
0
LTYPE
2
CONTINUOUS
70
0
3
Trait continu
72
65
73
0
40
0.000000
0
LTYPE
2
AXE
70
0
3
Axe ____ _ ____ _ ____
72
65
73
4
40
0.960000
49
0.600000
49
-0.120000
49
0.120000
49
-0.120000
0
LTYPE
2
TIRETS
70
0
3
Tirets __ __ __ __ __
72
65
73
2
40
0.370000
49
0.250000
49
-0.120000
0
LTYPE
2
POINTILLE
70
0
3
Pointille . . . . . .
72
65
73
2
40
0.150000
49
0.000000
49
-0.150000
0
ENDTAB
0
TABLE
2
LAYER
70
18
0
LAYER
2
0
70
0
62
7
6
CONTINUOUS
0
LAYER
2
00_CARTOUCHE
70
0
62
7
6
CONTINUOUS
0
LAYER
2
01_AXES
70
0
62
1
6
AXE
0
LAYER
2
02_BETON
70
0
62
7
6
CONTINUOUS
0
LAYER
2
03_BETON_CACHE
70
0
62
8
6
TIRETS
0
LAYER
2
04_HACHURES
70
0
62
9
6
CONTINUOUS
0
LAYER
2
05_TERRAIN
70
0
62
3
6
CONTINUOUS
0
LAYER
2
06_REMBLAI
70
0
62
42
6
CONTINUOUS
0
LAYER
2
07_CHAUSSEE
70
0
62
8
6
CONTINUOUS
0
LAYER
2
08_ACIER_LONG
70
0
62
1
6
CONTINUOUS
0
LAYER
2
09_ACIER_COUPE
70
0
62
2
6
CONTINUOUS
0
LAYER
2
10_COTATION
70
0
62
4
6
CONTINUOUS
0
LAYER
2
11_TEXTE
70
0
62
7
6
CONTINUOUS
0
LAYER
2
12_TABLEAU
70
0
62
7
6
CONTINUOUS
0
LAYER
2
13_EAU
70
0
62
5
6
CONTINUOUS
0
LAYER
2
14_ENROCHEMENT
70
0
62
8
6
CONTINUOUS
0
LAYER
2
15_VU_ARRIERE
70
0
62
8
6
CONTINUOUS
0
LAYER
2
16_BETON_FIN
70
0
62
8
6
CONTINUOUS
0
ENDTAB
0
TABLE
2
STYLE
70
1
0
STYLE
2
STANDARD
70
0
40
0.0
41
0.85
50
0.0
71
0
42
2.5
3
txt
4

0
ENDTAB
0
ENDSEC
0
SECTION
2
BLOCKS
0
ENDSEC
0
SECTION
2
ENTITIES
0
POLYLINE
8
00_CARTOUCHE
66
1
10
0.0
20
0.0
30
0.0
70
1
0
VERTEX
8
00_CARTOUCHE
10
0.000000
20
0.000000
30
0.0
0
VERTEX
8
00_CARTOUCHE
10
841.000000
20
0.000000
30
0.0
0
VERTEX
8
00_CARTOUCHE
10
841.000000
20
594.000000
30
0.0
0
VERTEX
8
00_CARTOUCHE
10
0.000000
20
594.000000
30
0.0
0
SEQEND
8
00_CARTOUCHE
0
POLYLINE
8
00_CARTOUCHE
66
1
10
0.0
20
0.0
30
0.0
70
1
0
VERTEX
8
00_CARTOUCHE
10
20.000000
20
10.000000
30
0.0
0
VERTEX
8
00_CARTOUCHE
10
831.000000
20
10.000000
30
0.0
0
VERTEX
8
00_CARTOUCHE
10
831.000000
20
584.000000
30
0.0
0
VERTEX
8
00_CARTOUCHE
10
20.000000
20
584.000000
30
0.0
0
SEQEND
8
00_CARTOUCHE
0
POLYLINE
8
00_CARTOUCHE
66
1
10
0.0
20
0.0
30
0.0
70
1
0
VERTEX
8
00_CARTOUCHE
10
21.500000
20
11.500000
30
0.0
0
VERTEX
8
00_CARTOUCHE
10
829.500000
20
11.500000
30
0.0
0
VERTEX
8
00_CARTOUCHE
10
829.500000
20
582.500000
30
0.0
0
VERTEX
8
00_CARTOUCHE
10
21.500000
20
582.500000
30
0.0
0
SEQEND
8
00_CARTOUCHE
0
LINE
8
00_CARTOUCHE
10
420.500000
20
0.000000
30
0.0
11
420.500000
21
5.000000
31
0.0
0
LINE
8
00_CARTOUCHE
10
420.500000
20
594.000000
30
0.0
11
420.500000
21
589.000000
31
0.0
0
LINE
8
00_CARTOUCHE
10
0.000000
20
297.000000
30
0.0
11
5.000000
21
297.000000
31
0.0
0
LINE
8
00_CARTOUCHE
10
841.000000
20
297.000000
30
0.0
11
836.000000
21
297.000000
31
0.0
0
TEXT
8
11_TEXTE
10
26.000000
20
352.000000
30
0.0
40
5.000000
1
COUPE C-C - FERRAILLAGE DU CADRE
41
0.850000
7
STANDARD
72
0
11
26.000000
21
352.000000
31
0.0
73
1
0
LINE
8
11_TEXTE
10
26.000000
20
350.000000
30
0.0
11
131.200000
21
350.000000
31
0.0
0
TEXT
8
11_TEXTE
10
26.000000
20
345.800000
30
0.0
40
2.600000
1
Ech. 1:20 - aciers HA FeE500 (HA)
41
0.850000
7
STANDARD
72
0
11
26.000000
21
345.800000
31
0.0
73
1
0
TEXT
8
11_TEXTE
10
352.000000
20
322.000000
30
0.0
40
5.000000
1
PLAN DE FERRAILLAGE - TRAVERSE SUPERIEURE
41
0.850000
7
STANDARD
72
0
11
352.000000
21
322.000000
31
0.0
73
1
0
LINE
8
11_TEXTE
10
352.000000
20
320.000000
30
0.0
11
485.100000
21
320.000000
31
0.0
0
TEXT
8
11_TEXTE
10
352.000000
20
315.800000
30
0.0
40
2.600000
1
Lit superieur - Ech. 1:50
41
0.850000
7
STANDARD
72
0
11
352.000000
21
315.800000
31
0.0
73
1
0
TEXT
8
11_TEXTE
10
26.000000
20
87.000000
30
0.0
40
5.000000
1
MUR EN AILE - COUPE TYPE ET ELEVATION
41
0.850000
7
STANDARD
72
0
11
26.000000
21
87.000000
31
0.0
73
1
0
LINE
8
11_TEXTE
10
26.000000
20
85.000000
30
0.0
11
146.700000
21
85.000000
31
0.0
0
TEXT
8
11_TEXTE
10
26.000000
20
80.800000
30
0.0
40
2.600000
1
Ech. 1:25 - 4 murs identiques
41
0.850000
7
STANDARD
72
0
11
26.000000
21
80.800000
31
0.0
73
1
0
TEXT
8
11_TEXTE
10
500.000000
20
172.000000
30
0.0
40
5.000000
1
DETAIL 1 - GOUSSET ET ENROBAGE
41
0.850000
7
STANDARD
72
0
11
500.000000
21
172.000000
31
0.0
73
1
0
LINE
8
11_TEXTE
10
500.000000
20
170.000000
30
0.0
11
599.000000
21
170.000000
31
0.0
0
TEXT
8
11_TEXTE
10
500.000000
20
165.800000
30
0.0
40
2.600000
1
Angle inferieur gauche - Ech. 1:10
41
0.850000
7
STANDARD
72
0
11
500.000000
21
165.800000
31
0.0
73
1
0
POLYLINE
8
12_TABLEAU
66
1
10
0.0
20
0.0
30
0.0
70
1
0
VERTEX
8
12_TABLEAU
10
550.000000
20
522.000000
30
0.0
0
VERTEX
8
12_TABLEAU
10
790.000000
20
522.000000
30
0.0
0
VERTEX
8
12_TABLEAU
10
790.000000
20
530.000000
30
0.0
0
VERTEX
8
12_TABLEAU
10
550.000000
20
530.000000
30
0.0
0
SEQEND
8
12_TABLEAU
0
TEXT
8
12_TABLEAU
10
552.000000
20
526.000000
30
0.0
40
3.200000
1
NOMENCLATURE DES ACIERS
41
0.850000
7
STANDARD
72
0
11
552.000000
21
526.000000
31
0.0
73
2
0
POLYLINE
8
12_TABLEAU
66
1
10
0.0
20
0.0
30
0.0
70
1
0
VERTEX
8
12_TABLEAU
10
550.000000
20
515.800000
30
0.0
0
VERTEX
8
12_TABLEAU
10
790.000000
20
515.800000
30
0.0
0
VERTEX
8
12_TABLEAU
10
790.000000
20
522.000000
30
0.0
0
VERTEX
8
12_TABLEAU
10
550.000000
20
522.000000
30
0.0
0
SEQEND
8
12_TABLEAU
0
TEXT
8
12_TABLEAU
10
556.000000
20
518.900000
30
0.0
40
2.200000
1
REP
41
0.850000
7
STANDARD
72
1
11
556.000000
21
518.900000
31
0.0
73
2
0
LINE
8
12_TABLEAU
10
562.000000
20
515.800000
30
0.0
11
562.000000
21
522.000000
31
0.0
0
TEXT
8
12_TABLEAU
10
621.000000
20
518.900000
30
0.0
40
2.200000
1
DESIGNATION
41
0.850000
7
STANDARD
72
1
11
621.000000
21
518.900000
31
0.0
73
2
0
LINE
8
12_TABLEAU
10
680.000000
20
515.800000
30
0.0
11
680.000000
21
522.000000
31
0.0
0
TEXT
8
12_TABLEAU
10
687.000000
20
518.900000
30
0.0
40
2.200000
1
%%c
41
0.850000
7
STANDARD
72
1
11
687.000000
21
518.900000
31
0.0
73
2
0
LINE
8
12_TABLEAU
10
694.000000
20
515.800000
30
0.0
11
694.000000
21
522.000000
31
0.0
0
TEXT
8
12_TABLEAU
10
702.000000
20
518.900000
30
0.0
40
2.200000
1
ESP.
41
0.850000
7
STANDARD
72
1
11
702.000000
21
518.900000
31
0.0
73
2
0
LINE
8
12_TABLEAU
10
710.000000
20
515.800000
30
0.0
11
710.000000
21
522.000000
31
0.0
0
TEXT
8
12_TABLEAU
10
718.000000
20
518.900000
30
0.0
40
2.200000
1
NB
41
0.850000
7
STANDARD
72
1
11
718.000000
21
518.900000
31
0.0
73
2
0
LINE
8
12_TABLEAU
10
726.000000
20
515.800000
30
0.0
11
726.000000
21
522.000000
31
0.0
0
TEXT
8
12_TABLEAU
10
736.000000
20
518.900000
30
0.0
40
2.200000
1
LONG. (m)
41
0.850000
7
STANDARD
72
1
11
736.000000
21
518.900000
31
0.0
73
2
0
LINE
8
12_TABLEAU
10
746.000000
20
515.800000
30
0.0
11
746.000000
21
522.000000
31
0.0
0
TEXT
8
12_TABLEAU
10
757.000000
20
518.900000
30
0.0
40
2.200000
1
TOTAL (m)
41
0.850000
7
STANDARD
72
1
11
757.000000
21
518.900000
31
0.0
73
2
0
LINE
8
12_TABLEAU
10
768.000000
20
515.800000
30
0.0
11
768.000000
21
522.000000
31
0.0
0
TEXT
8
12_TABLEAU
10
779.000000
20
518.900000
30
0.0
40
2.200000
1
POIDS (kg)
41
0.850000
7
STANDARD
72
1
11
779.000000
21
518.900000
31
0.0
73
2
0
POLYLINE
8
12_TABLEAU
66
1
10
0.0
20
0.0
30
0.0
70
1
0
VERTEX
8
12_TABLEAU
10
550.000000
20
509.600000
30
0.0
0
VERTEX
8
12_TABLEAU
10
790.000000
20
509.600000
30
0.0
0
VERTEX
8
12_TABLEAU
10
790.000000
20
515.800000
30
0.0
0
VERTEX
8
12_TABLEAU
10
550.000000
20
515.800000
30
0.0
0
SEQEND
8
12_TABLEAU
0
TEXT
8
12_TABLEAU
10
556.000000
20
512.700000
30
0.0
40
2.200000
1
1
41
0.850000
7
STANDARD
72
1
11
556.000000
21
512.700000
31
0.0
73
2
0
LINE
8
12_TABLEAU
10
562.000000
20
509.600000
30
0.0
11
562.000000
21
515.800000
31
0.0
0
TEXT
8
12_TABLEAU
10
563.800000
20
512.700000
30
0.0
40
2.200000
1
Cadre - lit ext. - U inferieur (radier + piedroits)
41
0.850000
7
STANDARD
72
0
11
563.800000
21
512.700000
31
0.0
73
2
0
LINE
8
12_TABLEAU
10
680.000000
20
509.600000
30
0.0
11
680.000000
21
515.800000
31
0.0
0
TEXT
8
12_TABLEAU
10
687.000000
20
512.700000
30
0.0
40
2.200000
1
HA12
41
0.850000
7
STANDARD
72
1
11
687.000000
21
512.700000
31
0.0
73
2
0
LINE
8
12_TABLEAU
10
694.000000
20
509.600000
30
0.0
11
694.000000
21
515.800000
31
0.0
0
TEXT
8
12_TABLEAU
10
702.000000
20
512.700000
30
0.0
40
2.200000
1
e=15
41
0.850000
7
STANDARD
72
1
11
702.000000
21
512.700000
31
0.0
73
2
0
LINE
8
12_TABLEAU
10
710.000000
20
509.600000
30
0.0
11
710.000000
21
515.800000
31
0.0
0
TEXT
8
12_TABLEAU
10
724.200000
20
512.700000
30
0.0
40
2.200000
1
61
41
0.850000
7
STANDARD
72
2
11
724.200000
21
512.700000
31
0.0
73
2
0
LINE
8
12_TABLEAU
10
726.000000
20
509.600000
30
0.0
11
726.000000
21
515.800000
31
0.0
0
TEXT
8
12_TABLEAU
10
744.200000
20
512.700000
30
0.0
40
2.200000
1
4.99
41
0.850000
7
STANDARD
72
2
11
744.200000
21
512.700000
31
0.0
73
2
0
LINE
8
12_TABLEAU
10
746.000000
20
509.600000
30
0.0
11
746.000000
21
515.800000
31
0.0
0
TEXT
8
12_TABLEAU
10
766.200000
20
512.700000
30
0.0
40
2.200000
1
304.4
41
0.850000
7
STANDARD
72
2
11
766.200000
21
512.700000
31
0.0
73
2
0
LINE
8
12_TABLEAU
10
768.000000
20
509.600000
30
0.0
11
768.000000
21
515.800000
31
0.0
0
TEXT
8
12_TABLEAU
10
788.200000
20
512.700000
30
0.0
40
2.200000
1
270.3
41
0.850000
7
STANDARD
72
2
11
788.200000
21
512.700000
31
0.0
73
2
0
POLYLINE
8
12_TABLEAU
66
1
10
0.0
20
0.0
30
0.0
70
1
0
VERTEX
8
12_TABLEAU
10
550.000000
20
503.400000
30
0.0
0
VERTEX
8
12_TABLEAU
10
790.000000
20
503.400000
30
0.0
0
VERTEX
8
12_TABLEAU
10
790.000000
20
509.600000
30
0.0
0
VERTEX
8
12_TABLEAU
10
550.000000
20
509.600000
30
0.0
0
SEQEND
8
12_TABLEAU
0
TEXT
8
12_TABLEAU
10
556.000000
20
506.500000
30
0.0
40
2.200000
1
2
41
0.850000
7
STANDARD
72
1
11
556.000000
21
506.500000
31
0.0
73
2
0
LINE
8
12_TABLEAU
10
562.000000
20
503.400000
30
0.0
11
562.000000
21
509.600000
31
0.0
0
TEXT
8
12_TABLEAU
10
563.800000
20
506.500000
30
0.0
40
2.200000
1
Cadre - lit ext. - U superieur (traverse + piedroits)
41
0.850000
7
STANDARD
72
0
11
563.800000
21
506.500000
31
0.0
73
2
0
LINE
8
12_TABLEAU
10
680.000000
20
503.400000
30
0.0
11
680.000000
21
509.600000
31
0.0
0
TEXT
8
12_TABLEAU
10
687.000000
20
506.500000
30
0.0
40
2.200000
1
HA12
41
0.850000
7
STANDARD
72
1
11
687.000000
21
506.500000
31
0.0
73
2
0
LINE
8
12_TABLEAU
10
694.000000
20
503.400000
30
0.0
11
694.000000
21
509.600000
31
0.0
0
TEXT
8
12_TABLEAU
10
702.000000
20
506.500000
30
0.0
40
2.200000
1
e=15
41
0.850000
7
STANDARD
72
1
11
702.000000
21
506.500000
31
0.0
73
2
0
LINE
8
12_TABLEAU
10
710.000000
20
503.400000
30
0.0
11
710.000000
21
509.600000
31
0.0
0
TEXT
8
12_TABLEAU
10
724.200000
20
506.500000
30
0.0
40
2.200000
1
61
41
0.850000
7
STANDARD
72
2
11
724.200000
21
506.500000
31
0.0
73
2
0
LINE
8
12_TABLEAU
10
726.000000
20
503.400000
30
0.0
11
726.000000
21
509.600000
31
0.0
0
TEXT
8
12_TABLEAU
10
744.200000
20
506.500000
30
0.0
40
2.200000
1
4.99
41
0.850000
7
STANDARD
72
2
11
744.200000
21
506.500000
31
0.0
73
2
0
LINE
8
12_TABLEAU
10
746.000000
20
503.400000
30
0.0
11
746.000000
21
509.600000
31
0.0
0
TEXT
8
12_TABLEAU
10
766.200000
20
506.500000
30
0.0
40
2.200000
1
304.4
41
0.850000
7
STANDARD
72
2
11
766.200000
21
506.500000
31
0.0
73
2
0
LINE
8
12_TABLEAU
10
768.000000
20
503.400000
30
0.0
11
768.000000
21
509.600000
31
0.0
0
TEXT
8
12_TABLEAU
10
788.200000
20
506.500000
30
0.0
40
2.200000
1
270.3
41
0.850000
7
STANDARD
72
2
11
788.200000
21
506.500000
31
0.0
73
2
0
POLYLINE
8
12_TABLEAU
66
1
10
0.0
20
0.0
30
0.0
70
1
0
VERTEX
8
12_TABLEAU
10
550.000000
20
497.200000
30
0.0
0
VERTEX
8
12_TABLEAU
10
790.000000
20
497.200000
30
0.0
0
VERTEX
8
12_TABLEAU
10
790.000000
20
503.400000
30
0.0
0
VERTEX
8
12_TABLEAU
10
550.000000
20
503.400000
30
0.0
0
SEQEND
8
12_TABLEAU
0
TEXT
8
12_TABLEAU
10
556.000000
20
500.300000
30
0.0
40
2.200000
1
3
41
0.850000
7
STANDARD
72
1
11
556.000000
21
500.300000
31
0.0
73
2
0
LINE
8
12_TABLEAU
10
562.000000
20
497.200000
30
0.0
11
562.000000
21
503.400000
31
0.0
0
TEXT
8
12_TABLEAU
10
563.800000
20
500.300000
30
0.0
40
2.200000
1
Cadre - lit int. - U inferieur (radier + piedroits)
41
0.850000
7
STANDARD
72
0
11
563.800000
21
500.300000
31
0.0
73
2
0
LINE
8
12_TABLEAU
10
680.000000
20
497.200000
30
0.0
11
680.000000
21
503.400000
31
0.0
0
TEXT
8
12_TABLEAU
10
687.000000
20
500.300000
30
0.0
40
2.200000
1
HA12
41
0.850000
7
STANDARD
72
1
11
687.000000
21
500.300000
31
0.0
73
2
0
LINE
8
12_TABLEAU
10
694.000000
20
497.200000
30
0.0
11
694.000000
21
503.400000
31
0.0
0
TEXT
8
12_TABLEAU
10
702.000000
20
500.300000
30
0.0
40
2.200000
1
e=15
41
0.850000
7
STANDARD
72
1
11
702.000000
21
500.300000
31
0.0
73
2
0
LINE
8
12_TABLEAU
10
710.000000
20
497.200000
30
0.0
11
710.000000
21
503.400000
31
0.0
0
TEXT
8
12_TABLEAU
10
724.200000
20
500.300000
30
0.0
40
2.200000
1
61
41
0.850000
7
STANDARD
72
2
11
724.200000
21
500.300000
31
0.0
73
2
0
LINE
8
12_TABLEAU
10
726.000000
20
497.200000
30
0.0
11
726.000000
21
503.400000
31
0.0
0
TEXT
8
12_TABLEAU
10
744.200000
20
500.300000
30
0.0
40
2.200000
1
4.65
41
0.850000
7
STANDARD
72
2
11
744.200000
21
500.300000
31
0.0
73
2
0
LINE
8
12_TABLEAU
10
746.000000
20
497.200000
30
0.0
11
746.000000
21
503.400000
31
0.0
0
TEXT
8
12_TABLEAU
10
766.200000
20
500.300000
30
0.0
40
2.200000
1
283.7
41
0.850000
7
STANDARD
72
2
11
766.200000
21
500.300000
31
0.0
73
2
0
LINE
8
12_TABLEAU
10
768.000000
20
497.200000
30
0.0
11
768.000000
21
503.400000
31
0.0
0
TEXT
8
12_TABLEAU
10
788.200000
20
500.300000
30
0.0
40
2.200000
1
251.9
41
0.850000
7
STANDARD
72
2
11
788.200000
21
500.300000
31
0.0
73
2
0
POLYLINE
8
12_TABLEAU
66
1
10
0.0
20
0.0
30
0.0
70
1
0
VERTEX
8
12_TABLEAU
10
550.000000
20
491.000000
30
0.0
0
VERTEX
8
12_TABLEAU
10
790.000000
20
491.000000
30
0.0
0
VERTEX
8
12_TABLEAU
10
790.000000
20
497.200000
30
0.0
0
VERTEX
8
12_TABLEAU
10
550.000000
20
497.200000
30
0.0
0
SEQEND
8
12_TABLEAU
0
TEXT
8
12_TABLEAU
10
556.000000
20
494.100000
30
0.0
40
2.200000
1
4
41
0.850000
7
STANDARD
72
1
11
556.000000
21
494.100000
31
0.0
73
2
0
LINE
8
12_TABLEAU
10
562.000000
20
491.000000
30
0.0
11
562.000000
21
497.200000
31
0.0
0
TEXT
8
12_TABLEAU
10
563.800000
20
494.100000
30
0.0
40
2.200000
1
Cadre - lit int. - U superieur (traverse + piedroits)
41
0.850000
7
STANDARD
72
0
11
563.800000
21
494.100000
31
0.0
73
2
0
LINE
8
12_TABLEAU
10
680.000000
20
491.000000
30
0.0
11
680.000000
21
497.200000
31
0.0
0
TEXT
8
12_TABLEAU
10
687.000000
20
494.100000
30
0.0
40
2.200000
1
HA12
41
0.850000
7
STANDARD
72
1
11
687.000000
21
494.100000
31
0.0
73
2
0
LINE
8
12_TABLEAU
10
694.000000
20
491.000000
30
0.0
11
694.000000
21
497.200000
31
0.0
0
TEXT
8
12_TABLEAU
10
702.000000
20
494.100000
30
0.0
40
2.200000
1
e=15
41
0.850000
7
STANDARD
72
1
11
702.000000
21
494.100000
31
0.0
73
2
0
LINE
8
12_TABLEAU
10
710.000000
20
491.000000
30
0.0
11
710.000000
21
497.200000
31
0.0
0
TEXT
8
12_TABLEAU
10
724.200000
20
494.100000
30
0.0
40
2.200000
1
61
41
0.850000
7
STANDARD
72
2
11
724.200000
21
494.100000
31
0.0
73
2
0
LINE
8
12_TABLEAU
10
726.000000
20
491.000000
30
0.0
11
726.000000
21
497.200000
31
0.0
0
TEXT
8
12_TABLEAU
10
744.200000
20
494.100000
30
0.0
40
2.200000
1
4.65
41
0.850000
7
STANDARD
72
2
11
744.200000
21
494.100000
31
0.0
73
2
0
LINE
8
12_TABLEAU
10
746.000000
20
491.000000
30
0.0
11
746.000000
21
497.200000
31
0.0
0
TEXT
8
12_TABLEAU
10
766.200000
20
494.100000
30
0.0
40
2.200000
1
283.7
41
0.850000
7
STANDARD
72
2
11
766.200000
21
494.100000
31
0.0
73
2
0
LINE
8
12_TABLEAU
10
768.000000
20
491.000000
30
0.0
11
768.000000
21
497.200000
31
0.0
0
TEXT
8
12_TABLEAU
10
788.200000
20
494.100000
30
0.0
40
2.200000
1
251.9
41
0.850000
7
STANDARD
72
2
11
788.200000
21
494.100000
31
0.0
73
2
0
POLYLINE
8
12_TABLEAU
66
1
10
0.0
20
0.0
30
0.0
70
1
0
VERTEX
8
12_TABLEAU
10
550.000000
20
484.800000
30
0.0
0
VERTEX
8
12_TABLEAU
10
790.000000
20
484.800000
30
0.0
0
VERTEX
8
12_TABLEAU
10
790.000000
20
491.000000
30
0.0
0
VERTEX
8
12_TABLEAU
10
550.000000
20
491.000000
30
0.0
0
SEQEND
8
12_TABLEAU
0
TEXT
8
12_TABLEAU
10
556.000000
20
487.900000
30
0.0
40
2.200000
1
5
41
0.850000
7
STANDARD
72
1
11
556.000000
21
487.900000
31
0.0
73
2
0
LINE
8
12_TABLEAU
10
562.000000
20
484.800000
30
0.0
11
562.000000
21
491.000000
31
0.0
0
TEXT
8
12_TABLEAU
10
563.800000
20
487.900000
30
0.0
40
2.200000
1
Filants d'angle - 2 HA par gousset
41
0.850000
7
STANDARD
72
0
11
563.800000
21
487.900000
31
0.0
73
2
0
LINE
8
12_TABLEAU
10
680.000000
20
484.800000
30
0.0
11
680.000000
21
491.000000
31
0.0
0
TEXT
8
12_TABLEAU
10
687.000000
20
487.900000
30
0.0
40
2.200000
1
HA12
41
0.850000
7
STANDARD
72
1
11
687.000000
21
487.900000
31
0.0
73
2
0
LINE
8
12_TABLEAU
10
694.000000
20
484.800000
30
0.0
11
694.000000
21
491.000000
31
0.0
0
TEXT
8
12_TABLEAU
10
702.000000
20
487.900000
30
0.0
40
2.200000
1
-
41
0.850000
7
STANDARD
72
1
11
702.000000
21
487.900000
31
0.0
73
2
0
LINE
8
12_TABLEAU
10
710.000000
20
484.800000
30
0.0
11
710.000000
21
491.000000
31
0.0
0
TEXT
8
12_TABLEAU
10
724.200000
20
487.900000
30
0.0
40
2.200000
1
8
41
0.850000
7
STANDARD
72
2
11
724.200000
21
487.900000
31
0.0
73
2
0
LINE
8
12_TABLEAU
10
726.000000
20
484.800000
30
0.0
11
726.000000
21
491.000000
31
0.0
0
TEXT
8
12_TABLEAU
10
744.200000
20
487.900000
30
0.0
40
2.200000
1
8.92
41
0.850000
7
STANDARD
72
2
11
744.200000
21
487.900000
31
0.0
73
2
0
LINE
8
12_TABLEAU
10
746.000000
20
484.800000
30
0.0
11
746.000000
21
491.000000
31
0.0
0
TEXT
8
12_TABLEAU
10
766.200000
20
487.900000
30
0.0
40
2.200000
1
71.4
41
0.850000
7
STANDARD
72
2
11
766.200000
21
487.900000
31
0.0
73
2
0
LINE
8
12_TABLEAU
10
768.000000
20
484.800000
30
0.0
11
768.000000
21
491.000000
31
0.0
0
TEXT
8
12_TABLEAU
10
788.200000
20
487.900000
30
0.0
40
2.200000
1
63.4
41
0.850000
7
STANDARD
72
2
11
788.200000
21
487.900000
31
0.0
73
2
0
POLYLINE
8
12_TABLEAU
66
1
10
0.0
20
0.0
30
0.0
70
1
0
VERTEX
8
12_TABLEAU
10
550.000000
20
478.600000
30
0.0
0
VERTEX
8
12_TABLEAU
10
790.000000
20
478.600000
30
0.0
0
VERTEX
8
12_TABLEAU
10
790.000000
20
484.800000
30
0.0
0
VERTEX
8
12_TABLEAU
10
550.000000
20
484.800000
30
0.0
0
SEQEND
8
12_TABLEAU
0
TEXT
8
12_TABLEAU
10
556.000000
20
481.700000
30
0.0
40
2.200000
1
6
41
0.850000
7
STANDARD
72
1
11
556.000000
21
481.700000
31
0.0
73
2
0
LINE
8
12_TABLEAU
10
562.000000
20
478.600000
30
0.0
11
562.000000
21
484.800000
31
0.0
0
TEXT
8
12_TABLEAU
10
563.800000
20
481.700000
30
0.0
40
2.200000
1
Repartition longitudinale - 2 nappes
41
0.850000
7
STANDARD
72
0
11
563.800000
21
481.700000
31
0.0
73
2
0
LINE
8
12_TABLEAU
10
680.000000
20
478.600000
30
0.0
11
680.000000
21
484.800000
31
0.0
0
TEXT
8
12_TABLEAU
10
687.000000
20
481.700000
30
0.0
40
2.200000
1
HA8
41
0.850000
7
STANDARD
72
1
11
687.000000
21
481.700000
31
0.0
73
2
0
LINE
8
12_TABLEAU
10
694.000000
20
478.600000
30
0.0
11
694.000000
21
484.800000
31
0.0
0
TEXT
8
12_TABLEAU
10
702.000000
20
481.700000
30
0.0
40
2.200000
1
e=20
41
0.850000
7
STANDARD
72
1
11
702.000000
21
481.700000
31
0.0
73
2
0
LINE
8
12_TABLEAU
10
710.000000
20
478.600000
30
0.0
11
710.000000
21
484.800000
31
0.0
0
TEXT
8
12_TABLEAU
10
724.200000
20
481.700000
30
0.0
40
2.200000
1
80
41
0.850000
7
STANDARD
72
2
11
724.200000
21
481.700000
31
0.0
73
2
0
LINE
8
12_TABLEAU
10
726.000000
20
478.600000
30
0.0
11
726.000000
21
484.800000
31
0.0
0
TEXT
8
12_TABLEAU
10
744.200000
20
481.700000
30
0.0
40
2.200000
1
8.92
41
0.850000
7
STANDARD
72
2
11
744.200000
21
481.700000
31
0.0
73
2
0
LINE
8
12_TABLEAU
10
746.000000
20
478.600000
30
0.0
11
746.000000
21
484.800000
31
0.0
0
TEXT
8
12_TABLEAU
10
766.200000
20
481.700000
30
0.0
40
2.200000
1
713.6
41
0.850000
7
STANDARD
72
2
11
766.200000
21
481.700000
31
0.0
73
2
0
LINE
8
12_TABLEAU
10
768.000000
20
478.600000
30
0.0
11
768.000000
21
484.800000
31
0.0
0
TEXT
8
12_TABLEAU
10
788.200000
20
481.700000
30
0.0
40
2.200000
1
281.9
41
0.850000
7
STANDARD
72
2
11
788.200000
21
481.700000
31
0.0
73
2
0
POLYLINE
8
12_TABLEAU
66
1
10
0.0
20
0.0
30
0.0
70
1
0
VERTEX
8
12_TABLEAU
10
550.000000
20
472.400000
30
0.0
0
VERTEX
8
12_TABLEAU
10
790.000000
20
472.400000
30
0.0
0
VERTEX
8
12_TABLEAU
10
790.000000
20
478.600000
30
0.0
0
VERTEX
8
12_TABLEAU
10
550.000000
20
478.600000
30
0.0
0
SEQEND
8
12_TABLEAU
0
TEXT
8
12_TABLEAU
10
556.000000
20
475.500000
30
0.0
40
2.200000
1
7
41
0.850000
7
STANDARD
72
1
11
556.000000
21
475.500000
31
0.0
73
2
0
LINE
8
12_TABLEAU
10
562.000000
20
472.400000
30
0.0
11
562.000000
21
478.600000
31
0.0
0
TEXT
8
12_TABLEAU
10
563.800000
20
475.500000
30
0.0
40
2.200000
1
Mur en aile - verticaux face terre (+ retour semelle)
41
0.850000
7
STANDARD
72
0
11
563.800000
21
475.500000
31
0.0
73
2
0
LINE
8
12_TABLEAU
10
680.000000
20
472.400000
30
0.0
11
680.000000
21
478.600000
31
0.0
0
TEXT
8
12_TABLEAU
10
687.000000
20
475.500000
30
0.0
40
2.200000
1
HA12
41
0.850000
7
STANDARD
72
1
11
687.000000
21
475.500000
31
0.0
73
2
0
LINE
8
12_TABLEAU
10
694.000000
20
472.400000
30
0.0
11
694.000000
21
478.600000
31
0.0
0
TEXT
8
12_TABLEAU
10
702.000000
20
475.500000
30
0.0
40
2.200000
1
e=15
41
0.850000
7
STANDARD
72
1
11
702.000000
21
475.500000
31
0.0
73
2
0
LINE
8
12_TABLEAU
10
710.000000
20
472.400000
30
0.0
11
710.000000
21
478.600000
31
0.0
0
TEXT
8
12_TABLEAU
10
724.200000
20
475.500000
30
0.0
40
2.200000
1
84
41
0.850000
7
STANDARD
72
2
11
724.200000
21
475.500000
31
0.0
73
2
0
LINE
8
12_TABLEAU
10
726.000000
20
472.400000
30
0.0
11
726.000000
21
478.600000
31
0.0
0
TEXT
8
12_TABLEAU
10
744.200000
20
475.500000
30
0.0
40
2.200000
1
4.35
41
0.850000
7
STANDARD
72
2
11
744.200000
21
475.500000
31
0.0
73
2
0
LINE
8
12_TABLEAU
10
746.000000
20
472.400000
30
0.0
11
746.000000
21
478.600000
31
0.0
0
TEXT
8
12_TABLEAU
10
766.200000
20
475.500000
30
0.0
40
2.200000
1
365.4
41
0.850000
7
STANDARD
72
2
11
766.200000
21
475.500000
31
0.0
73
2
0
LINE
8
12_TABLEAU
10
768.000000
20
472.400000
30
0.0
11
768.000000
21
478.600000
31
0.0
0
TEXT
8
12_TABLEAU
10
788.200000
20
475.500000
30
0.0
40
2.200000
1
324.5
41
0.850000
7
STANDARD
72
2
11
788.200000
21
475.500000
31
0.0
73
2
0
POLYLINE
8
12_TABLEAU
66
1
10
0.0
20
0.0
30
0.0
70
1
0
VERTEX
8
12_TABLEAU
10
550.000000
20
466.200000
30
0.0
0
VERTEX
8
12_TABLEAU
10
790.000000
20
466.200000
30
0.0
0
VERTEX
8
12_TABLEAU
10
790.000000
20
472.400000
30
0.0
0
VERTEX
8
12_TABLEAU
10
550.000000
20
472.400000
30
0.0
0
SEQEND
8
12_TABLEAU
0
TEXT
8
12_TABLEAU
10
556.000000
20
469.300000
30
0.0
40
2.200000
1
8
41
0.850000
7
STANDARD
72
1
11
556.000000
21
469.300000
31
0.0
73
2
0
LINE
8
12_TABLEAU
10
562.000000
20
466.200000
30
0.0
11
562.000000
21
472.400000
31
0.0
0
TEXT
8
12_TABLEAU
10
563.800000
20
469.300000
30
0.0
40
2.200000
1
Mur en aile - verticaux face vue (constructif)
41
0.850000
7
STANDARD
72
0
11
563.800000
21
469.300000
31
0.0
73
2
0
LINE
8
12_TABLEAU
10
680.000000
20
466.200000
30
0.0
11
680.000000
21
472.400000
31
0.0
0
TEXT
8
12_TABLEAU
10
687.000000
20
469.300000
30
0.0
40
2.200000
1
HA10
41
0.850000
7
STANDARD
72
1
11
687.000000
21
469.300000
31
0.0
73
2
0
LINE
8
12_TABLEAU
10
694.000000
20
466.200000
30
0.0
11
694.000000
21
472.400000
31
0.0
0
TEXT
8
12_TABLEAU
10
702.000000
20
469.300000
30
0.0
40
2.200000
1
e=20
41
0.850000
7
STANDARD
72
1
11
702.000000
21
469.300000
31
0.0
73
2
0
LINE
8
12_TABLEAU
10
710.000000
20
466.200000
30
0.0
11
710.000000
21
472.400000
31
0.0
0
TEXT
8
12_TABLEAU
10
724.200000
20
469.300000
30
0.0
40
2.200000
1
64
41
0.850000
7
STANDARD
72
2
11
724.200000
21
469.300000
31
0.0
73
2
0
LINE
8
12_TABLEAU
10
726.000000
20
466.200000
30
0.0
11
726.000000
21
472.400000
31
0.0
0
TEXT
8
12_TABLEAU
10
744.200000
20
469.300000
30
0.0
40
2.200000
1
2.51
41
0.850000
7
STANDARD
72
2
11
744.200000
21
469.300000
31
0.0
73
2
0
LINE
8
12_TABLEAU
10
746.000000
20
466.200000
30
0.0
11
746.000000
21
472.400000
31
0.0
0
TEXT
8
12_TABLEAU
10
766.200000
20
469.300000
30
0.0
40
2.200000
1
160.6
41
0.850000
7
STANDARD
72
2
11
766.200000
21
469.300000
31
0.0
73
2
0
LINE
8
12_TABLEAU
10
768.000000
20
466.200000
30
0.0
11
768.000000
21
472.400000
31
0.0
0
TEXT
8
12_TABLEAU
10
788.200000
20
469.300000
30
0.0
40
2.200000
1
99.1
41
0.850000
7
STANDARD
72
2
11
788.200000
21
469.300000
31
0.0
73
2
0
POLYLINE
8
12_TABLEAU
66
1
10
0.0
20
0.0
30
0.0
70
1
0
VERTEX
8
12_TABLEAU
10
550.000000
20
460.000000
30
0.0
0
VERTEX
8
12_TABLEAU
10
790.000000
20
460.000000
30
0.0
0
VERTEX
8
12_TABLEAU
10
790.000000
20
466.200000
30
0.0
0
VERTEX
8
12_TABLEAU
10
550.000000
20
466.200000
30
0.0
0
SEQEND
8
12_TABLEAU
0
TEXT
8
12_TABLEAU
10
556.000000
20
463.100000
30
0.0
40
2.200000
1
9
41
0.850000
7
STANDARD
72
1
11
556.000000
21
463.100000
31
0.0
73
2
0
LINE
8
12_TABLEAU
10
562.000000
20
460.000000
30
0.0
11
562.000000
21
466.200000
31
0.0
0
TEXT
8
12_TABLEAU
10
563.800000
20
463.100000
30
0.0
40
2.200000
1
Mur en aile - horizontaux, 2 nappes
41
0.850000
7
STANDARD
72
0
11
563.800000
21
463.100000
31
0.0
73
2
0
LINE
8
12_TABLEAU
10
680.000000
20
460.000000
30
0.0
11
680.000000
21
466.200000
31
0.0
0
TEXT
8
12_TABLEAU
10
687.000000
20
463.100000
30
0.0
40
2.200000
1
HA10
41
0.850000
7
STANDARD
72
1
11
687.000000
21
463.100000
31
0.0
73
2
0
LINE
8
12_TABLEAU
10
694.000000
20
460.000000
30
0.0
11
694.000000
21
466.200000
31
0.0
0
TEXT
8
12_TABLEAU
10
702.000000
20
463.100000
30
0.0
40
2.200000
1
e=20
41
0.850000
7
STANDARD
72
1
11
702.000000
21
463.100000
31
0.0
73
2
0
LINE
8
12_TABLEAU
10
710.000000
20
460.000000
30
0.0
11
710.000000
21
466.200000
31
0.0
0
TEXT
8
12_TABLEAU
10
724.200000
20
463.100000
30
0.0
40
2.200000
1
120
41
0.850000
7
STANDARD
72
2
11
724.200000
21
463.100000
31
0.0
73
2
0
LINE
8
12_TABLEAU
10
726.000000
20
460.000000
30
0.0
11
726.000000
21
466.200000
31
0.0
0
TEXT
8
12_TABLEAU
10
744.200000
20
463.100000
30
0.0
40
2.200000
1
3.00
41
0.850000
7
STANDARD
72
2
11
744.200000
21
463.100000
31
0.0
73
2
0
LINE
8
12_TABLEAU
10
746.000000
20
460.000000
30
0.0
11
746.000000
21
466.200000
31
0.0
0
TEXT
8
12_TABLEAU
10
766.200000
20
463.100000
30
0.0
40
2.200000
1
360.0
41
0.850000
7
STANDARD
72
2
11
766.200000
21
463.100000
31
0.0
73
2
0
LINE
8
12_TABLEAU
10
768.000000
20
460.000000
30
0.0
11
768.000000
21
466.200000
31
0.0
0
TEXT
8
12_TABLEAU
10
788.200000
20
463.100000
30
0.0
40
2.200000
1
222.1
41
0.850000
7
STANDARD
72
2
11
788.200000
21
463.100000
31
0.0
73
2
0
POLYLINE
8
12_TABLEAU
66
1
10
0.0
20
0.0
30
0.0
70
1
0
VERTEX
8
12_TABLEAU
10
550.000000
20
453.800000
30
0.0
0
VERTEX
8
12_TABLEAU
10
790.000000
20
453.800000
30
0.0
0
VERTEX
8
12_TABLEAU
10
790.000000
20
460.000000
30
0.0
0
VERTEX
8
12_TABLEAU
10
550.000000
20
460.000000
30
0.0
0
SEQEND
8
12_TABLEAU
0
TEXT
8
12_TABLEAU
10
556.000000
20
456.900000
30
0.0
40
2.200000
1
10
41
0.850000
7
STANDARD
72
1
11
556.000000
21
456.900000
31
0.0
73
2
0
LINE
8
12_TABLEAU
10
562.000000
20
453.800000
30
0.0
11
562.000000
21
460.000000
31
0.0
0
TEXT
8
12_TABLEAU
10
563.800000
20
456.900000
30
0.0
40
2.200000
1
Semelle d'aile - transversaux (2 nappes)
41
0.850000
7
STANDARD
72
0
11
563.800000
21
456.900000
31
0.0
73
2
0
LINE
8
12_TABLEAU
10
680.000000
20
453.800000
30
0.0
11
680.000000
21
460.000000
31
0.0
0
TEXT
8
12_TABLEAU
10
687.000000
20
456.900000
30
0.0
40
2.200000
1
HA12
41
0.850000
7
STANDARD
72
1
11
687.000000
21
456.900000
31
0.0
73
2
0
LINE
8
12_TABLEAU
10
694.000000
20
453.800000
30
0.0
11
694.000000
21
460.000000
31
0.0
0
TEXT
8
12_TABLEAU
10
702.000000
20
456.900000
30
0.0
40
2.200000
1
e=15
41
0.850000
7
STANDARD
72
1
11
702.000000
21
456.900000
31
0.0
73
2
0
LINE
8
12_TABLEAU
10
710.000000
20
453.800000
30
0.0
11
710.000000
21
460.000000
31
0.0
0
TEXT
8
12_TABLEAU
10
724.200000
20
456.900000
30
0.0
40
2.200000
1
168
41
0.850000
7
STANDARD
72
2
11
724.200000
21
456.900000
31
0.0
73
2
0
LINE
8
12_TABLEAU
10
726.000000
20
453.800000
30
0.0
11
726.000000
21
460.000000
31
0.0
0
TEXT
8
12_TABLEAU
10
744.200000
20
456.900000
30
0.0
40
2.200000
1
1.90
41
0.850000
7
STANDARD
72
2
11
744.200000
21
456.900000
31
0.0
73
2
0
LINE
8
12_TABLEAU
10
746.000000
20
453.800000
30
0.0
11
746.000000
21
460.000000
31
0.0
0
TEXT
8
12_TABLEAU
10
766.200000
20
456.900000
30
0.0
40
2.200000
1
319.2
41
0.850000
7
STANDARD
72
2
11
766.200000
21
456.900000
31
0.0
73
2
0
LINE
8
12_TABLEAU
10
768.000000
20
453.800000
30
0.0
11
768.000000
21
460.000000
31
0.0
0
TEXT
8
12_TABLEAU
10
788.200000
20
456.900000
30
0.0
40
2.200000
1
283.4
41
0.850000
7
STANDARD
72
2
11
788.200000
21
456.900000
31
0.0
73
2
0
POLYLINE
8
12_TABLEAU
66
1
10
0.0
20
0.0
30
0.0
70
1
0
VERTEX
8
12_TABLEAU
10
550.000000
20
447.600000
30
0.0
0
VERTEX
8
12_TABLEAU
10
790.000000
20
447.600000
30
0.0
0
VERTEX
8
12_TABLEAU
10
790.000000
20
453.800000
30
0.0
0
VERTEX
8
12_TABLEAU
10
550.000000
20
453.800000
30
0.0
0
SEQEND
8
12_TABLEAU
0
TEXT
8
12_TABLEAU
10
556.000000
20
450.700000
30
0.0
40
2.200000
1
11
41
0.850000
7
STANDARD
72
1
11
556.000000
21
450.700000
31
0.0
73
2
0
LINE
8
12_TABLEAU
10
562.000000
20
447.600000
30
0.0
11
562.000000
21
453.800000
31
0.0
0
TEXT
8
12_TABLEAU
10
563.800000
20
450.700000
30
0.0
40
2.200000
1
Semelle d'aile - filants longitudinaux
41
0.850000
7
STANDARD
72
0
11
563.800000
21
450.700000
31
0.0
73
2
0
LINE
8
12_TABLEAU
10
680.000000
20
447.600000
30
0.0
11
680.000000
21
453.800000
31
0.0
0
TEXT
8
12_TABLEAU
10
687.000000
20
450.700000
30
0.0
40
2.200000
1
HA10
41
0.850000
7
STANDARD
72
1
11
687.000000
21
450.700000
31
0.0
73
2
0
LINE
8
12_TABLEAU
10
694.000000
20
447.600000
30
0.0
11
694.000000
21
453.800000
31
0.0
0
TEXT
8
12_TABLEAU
10
702.000000
20
450.700000
30
0.0
40
2.200000
1
e=20
41
0.850000
7
STANDARD
72
1
11
702.000000
21
450.700000
31
0.0
73
2
0
LINE
8
12_TABLEAU
10
710.000000
20
447.600000
30
0.0
11
710.000000
21
453.800000
31
0.0
0
TEXT
8
12_TABLEAU
10
724.200000
20
450.700000
30
0.0
40
2.200000
1
40
41
0.850000
7
STANDARD
72
2
11
724.200000
21
450.700000
31
0.0
73
2
0
LINE
8
12_TABLEAU
10
726.000000
20
447.600000
30
0.0
11
726.000000
21
453.800000
31
0.0
0
TEXT
8
12_TABLEAU
10
744.200000
20
450.700000
30
0.0
40
2.200000
1
3.00
41
0.850000
7
STANDARD
72
2
11
744.200000
21
450.700000
31
0.0
73
2
0
LINE
8
12_TABLEAU
10
746.000000
20
447.600000
30
0.0
11
746.000000
21
453.800000
31
0.0
0
TEXT
8
12_TABLEAU
10
766.200000
20
450.700000
30
0.0
40
2.200000
1
120.0
41
0.850000
7
STANDARD
72
2
11
766.200000
21
450.700000
31
0.0
73
2
0
LINE
8
12_TABLEAU
10
768.000000
20
447.600000
30
0.0
11
768.000000
21
453.800000
31
0.0
0
TEXT
8
12_TABLEAU
10
788.200000
20
450.700000
30
0.0
40
2.200000
1
74.0
41
0.850000
7
STANDARD
72
2
11
788.200000
21
450.700000
31
0.0
73
2
0
POLYLINE
8
12_TABLEAU
66
1
10
0.0
20
0.0
30
0.0
70
1
0
VERTEX
8
12_TABLEAU
10
550.000000
20
441.400000
30
0.0
0
VERTEX
8
12_TABLEAU
10
790.000000
20
441.400000
30
0.0
0
VERTEX
8
12_TABLEAU
10
790.000000
20
447.600000
30
0.0
0
VERTEX
8
12_TABLEAU
10
550.000000
20
447.600000
30
0.0
0
SEQEND
8
12_TABLEAU
0
TEXT
8
12_TABLEAU
10
556.000000
20
444.500000
30
0.0
40
2.200000
1
12
41
0.850000
7
STANDARD
72
1
11
556.000000
21
444.500000
31
0.0
73
2
0
LINE
8
12_TABLEAU
10
562.000000
20
441.400000
30
0.0
11
562.000000
21
447.600000
31
0.0
0
TEXT
8
12_TABLEAU
10
563.800000
20
444.500000
30
0.0
40
2.200000
1
Beche amont / aval - cadres
41
0.850000
7
STANDARD
72
0
11
563.800000
21
444.500000
31
0.0
73
2
0
LINE
8
12_TABLEAU
10
680.000000
20
441.400000
30
0.0
11
680.000000
21
447.600000
31
0.0
0
TEXT
8
12_TABLEAU
10
687.000000
20
444.500000
30
0.0
40
2.200000
1
HA10
41
0.850000
7
STANDARD
72
1
11
687.000000
21
444.500000
31
0.0
73
2
0
LINE
8
12_TABLEAU
10
694.000000
20
441.400000
30
0.0
11
694.000000
21
447.600000
31
0.0
0
TEXT
8
12_TABLEAU
10
702.000000
20
444.500000
30
0.0
40
2.200000
1
e=20
41
0.850000
7
STANDARD
72
1
11
702.000000
21
444.500000
31
0.0
73
2
0
LINE
8
12_TABLEAU
10
710.000000
20
441.400000
30
0.0
11
710.000000
21
447.600000
31
0.0
0
TEXT
8
12_TABLEAU
10
724.200000
20
444.500000
30
0.0
40
2.200000
1
28
41
0.850000
7
STANDARD
72
2
11
724.200000
21
444.500000
31
0.0
73
2
0
LINE
8
12_TABLEAU
10
726.000000
20
441.400000
30
0.0
11
726.000000
21
447.600000
31
0.0
0
TEXT
8
12_TABLEAU
10
744.200000
20
444.500000
30
0.0
40
2.200000
1
1.60
41
0.850000
7
STANDARD
72
2
11
744.200000
21
444.500000
31
0.0
73
2
0
LINE
8
12_TABLEAU
10
746.000000
20
441.400000
30
0.0
11
746.000000
21
447.600000
31
0.0
0
TEXT
8
12_TABLEAU
10
766.200000
20
444.500000
30
0.0
40
2.200000
1
44.8
41
0.850000
7
STANDARD
72
2
11
766.200000
21
444.500000
31
0.0
73
2
0
LINE
8
12_TABLEAU
10
768.000000
20
441.400000
30
0.0
11
768.000000
21
447.600000
31
0.0
0
TEXT
8
12_TABLEAU
10
788.200000
20
444.500000
30
0.0
40
2.200000
1
27.6
41
0.850000
7
STANDARD
72
2
11
788.200000
21
444.500000
31
0.0
73
2
0
POLYLINE
8
12_TABLEAU
66
1
10
0.0
20
0.0
30
0.0
70
1
0
VERTEX
8
12_TABLEAU
10
550.000000
20
435.200000
30
0.0
0
VERTEX
8
12_TABLEAU
10
790.000000
20
435.200000
30
0.0
0
VERTEX
8
12_TABLEAU
10
790.000000
20
441.400000
30
0.0
0
VERTEX
8
12_TABLEAU
10
550.000000
20
441.400000
30
0.0
0
SEQEND
8
12_TABLEAU
0
TEXT
8
12_TABLEAU
10
556.000000
20
438.300000
30
0.0
40
2.200000
1
13
41
0.850000
7
STANDARD
72
1
11
556.000000
21
438.300000
31
0.0
73
2
0
LINE
8
12_TABLEAU
10
562.000000
20
435.200000
30
0.0
11
562.000000
21
441.400000
31
0.0
0
TEXT
8
12_TABLEAU
10
563.800000
20
438.300000
30
0.0
40
2.200000
1
Mur de tete - treillis equivalent (2 nappes)
41
0.850000
7
STANDARD
72
0
11
563.800000
21
438.300000
31
0.0
73
2
0
LINE
8
12_TABLEAU
10
680.000000
20
435.200000
30
0.0
11
680.000000
21
441.400000
31
0.0
0
TEXT
8
12_TABLEAU
10
687.000000
20
438.300000
30
0.0
40
2.200000
1
HA10
41
0.850000
7
STANDARD
72
1
11
687.000000
21
438.300000
31
0.0
73
2
0
LINE
8
12_TABLEAU
10
694.000000
20
435.200000
30
0.0
11
694.000000
21
441.400000
31
0.0
0
TEXT
8
12_TABLEAU
10
702.000000
20
438.300000
30
0.0
40
2.200000
1
e=20
41
0.850000
7
STANDARD
72
1
11
702.000000
21
438.300000
31
0.0
73
2
0
LINE
8
12_TABLEAU
10
710.000000
20
435.200000
30
0.0
11
710.000000
21
441.400000
31
0.0
0
TEXT
8
12_TABLEAU
10
724.200000
20
438.300000
30
0.0
40
2.200000
1
52
41
0.850000
7
STANDARD
72
2
11
724.200000
21
438.300000
31
0.0
73
2
0
LINE
8
12_TABLEAU
10
726.000000
20
435.200000
30
0.0
11
726.000000
21
441.400000
31
0.0
0
TEXT
8
12_TABLEAU
10
744.200000
20
438.300000
30
0.0
40
2.200000
1
1.10
41
0.850000
7
STANDARD
72
2
11
744.200000
21
438.300000
31
0.0
73
2
0
LINE
8
12_TABLEAU
10
746.000000
20
435.200000
30
0.0
11
746.000000
21
441.400000
31
0.0
0
TEXT
8
12_TABLEAU
10
766.200000
20
438.300000
30
0.0
40
2.200000
1
57.2
41
0.850000
7
STANDARD
72
2
11
766.200000
21
438.300000
31
0.0
73
2
0
LINE
8
12_TABLEAU
10
768.000000
20
435.200000
30
0.0
11
768.000000
21
441.400000
31
0.0
0
TEXT
8
12_TABLEAU
10
788.200000
20
438.300000
30
0.0
40
2.200000
1
35.3
41
0.850000
7
STANDARD
72
2
11
788.200000
21
438.300000
31
0.0
73
2
0
POLYLINE
8
12_TABLEAU
66
1
10
0.0
20
0.0
30
0.0
70
1
0
VERTEX
8
12_TABLEAU
10
550.000000
20
429.000000
30
0.0
0
VERTEX
8
12_TABLEAU
10
790.000000
20
429.000000
30
0.0
0
VERTEX
8
12_TABLEAU
10
790.000000
20
435.200000
30
0.0
0
VERTEX
8
12_TABLEAU
10
550.000000
20
435.200000
30
0.0
0
SEQEND
8
12_TABLEAU
0
TEXT
8
12_TABLEAU
10
556.000000
20
432.100000
30
0.0
40
2.200000
1

41
0.850000
7
STANDARD
72
1
11
556.000000
21
432.100000
31
0.0
73
2
0
LINE
8
12_TABLEAU
10
562.000000
20
429.000000
30
0.0
11
562.000000
21
435.200000
31
0.0
0
TEXT
8
12_TABLEAU
10
563.800000
20
432.100000
30
0.0
40
2.200000
1
TOTAL ACIERS HA
41
0.850000
7
STANDARD
72
0
11
563.800000
21
432.100000
31
0.0
73
2
0
LINE
8
12_TABLEAU
10
680.000000
20
429.000000
30
0.0
11
680.000000
21
435.200000
31
0.0
0
TEXT
8
12_TABLEAU
10
687.000000
20
432.100000
30
0.0
40
2.200000
1

41
0.850000
7
STANDARD
72
1
11
687.000000
21
432.100000
31
0.0
73
2
0
LINE
8
12_TABLEAU
10
694.000000
20
429.000000
30
0.0
11
694.000000
21
435.200000
31
0.0
0
TEXT
8
12_TABLEAU
10
702.000000
20
432.100000
30
0.0
40
2.200000
1

41
0.850000
7
STANDARD
72
1
11
702.000000
21
432.100000
31
0.0
73
2
0
LINE
8
12_TABLEAU
10
710.000000
20
429.000000
30
0.0
11
710.000000
21
435.200000
31
0.0
0
TEXT
8
12_TABLEAU
10
724.200000
20
432.100000
30
0.0
40
2.200000
1

41
0.850000
7
STANDARD
72
2
11
724.200000
21
432.100000
31
0.0
73
2
0
LINE
8
12_TABLEAU
10
726.000000
20
429.000000
30
0.0
11
726.000000
21
435.200000
31
0.0
0
TEXT
8
12_TABLEAU
10
744.200000
20
432.100000
30
0.0
40
2.200000
1

41
0.850000
7
STANDARD
72
2
11
744.200000
21
432.100000
31
0.0
73
2
0
LINE
8
12_TABLEAU
10
746.000000
20
429.000000
30
0.0
11
746.000000
21
435.200000
31
0.0
0
TEXT
8
12_TABLEAU
10
766.200000
20
432.100000
30
0.0
40
2.200000
1

41
0.850000
7
STANDARD
72
2
11
766.200000
21
432.100000
31
0.0
73
2
0
LINE
8
12_TABLEAU
10
768.000000
20
429.000000
30
0.0
11
768.000000
21
435.200000
31
0.0
0
TEXT
8
12_TABLEAU
10
788.200000
20
432.100000
30
0.0
40
2.200000
1
2456
41
0.850000
7
STANDARD
72
2
11
788.200000
21
432.100000
31
0.0
73
2
0
TEXT
8
11_TEXTE
10
550.000000
20
420.000000
30
0.0
40
3.200000
1
NOTES DE FERRAILLAGE
41
0.850000
7
STANDARD
72
0
11
550.000000
21
420.000000
31
0.0
73
3
0
LINE
8
11_TEXTE
10
550.000000
20
415.400000
30
0.0
11
790.000000
21
415.400000
31
0.0
0
TEXT
8
11_TEXTE
10
550.000000
20
411.400000
30
0.0
40
2.300000
1
1.
41
0.850000
7
STANDARD
72
0
11
550.000000
21
411.400000
31
0.0
73
3
0
TEXT
8
11_TEXTE
10
556.000000
20
411.400000
30
0.0
40
2.300000
1
Faconnage et mise en oeuvre conformes au BAEL 91 revise 99 et au CCTP.
41
0.850000
7
STANDARD
72
0
11
556.000000
21
411.400000
31
0.0
73
3
0
TEXT
8
11_TEXTE
10
550.000000
20
407.200000
30
0.0
40
2.300000
1
2.
41
0.850000
7
STANDARD
72
0
11
550.000000
21
407.200000
31
0.0
73
3
0
TEXT
8
11_TEXTE
10
556.000000
20
407.200000
30
0.0
40
2.300000
1
Diametre minimal de mandrin de cintrage : 10 diametres pour les HA12 et HA14.
41
0.850000
7
STANDARD
72
0
11
556.000000
21
407.200000
31
0.0
73
3
0
TEXT
8
11_TEXTE
10
550.000000
20
403.000000
30
0.0
40
2.300000
1
3.
41
0.850000
7
STANDARD
72
0
11
550.000000
21
403.000000
31
0.0
73
3
0
TEXT
8
11_TEXTE
10
556.000000
20
403.000000
30
0.0
40
2.300000
1
Cales d'enrobage en beton ou plastique, 4 par m2 minimum, en quinconce.
41
0.850000
7
STANDARD
72
0
11
556.000000
21
403.000000
31
0.0
73
3
0
TEXT
8
11_TEXTE
10
550.000000
20
398.800000
30
0.0
40
2.300000
1
4.
41
0.850000
7
STANDARD
72
0
11
550.000000
21
398.800000
31
0.0
73
3
0
TEXT
8
11_TEXTE
10
556.000000
20
398.800000
30
0.0
40
2.300000
1
Les aciers de repartition (rep. 6) sont poses a l'exterieur des aciers principaux.
41
0.850000
7
STANDARD
72
0
11
556.000000
21
398.800000
31
0.0
73
3
0
TEXT
8
11_TEXTE
10
550.000000
20
394.600000
30
0.0
40
2.300000
1
5.
41
0.850000
7
STANDARD
72
0
11
550.000000
21
394.600000
31
0.0
73
3
0
TEXT
8
11_TEXTE
10
556.000000
20
394.600000
30
0.0
40
2.300000
1
Les recouvrements des reperes 1/2 et 3/4 sont situes a mi-hauteur des piedroits (zone de moment faible).
41
0.850000
7
STANDARD
72
0
11
556.000000
21
394.600000
31
0.0
73
3
0
TEXT
8
11_TEXTE
10
550.000000
20
390.400000
30
0.0
40
2.300000
1
6.
41
0.850000
7
STANDARD
72
0
11
550.000000
21
390.400000
31
0.0
73
3
0
TEXT
8
11_TEXTE
10
556.000000
20
390.400000
30
0.0
40
2.300000
1
Aucune soudure sur armature n'est autorisee. Ligatures en fil recuit de 1,2 mm.
41
0.850000
7
STANDARD
72
0
11
556.000000
21
390.400000
31
0.0
73
3
0
TEXT
8
11_TEXTE
10
550.000000
20
386.200000
30
0.0
40
2.300000
1
7.
41
0.850000
7
STANDARD
72
0
11
550.000000
21
386.200000
31
0.0
73
3
0
TEXT
8
11_TEXTE
10
556.000000
20
386.200000
30
0.0
40
2.300000
1
Les quantites portees a la nomenclature sont donnees hors chutes et hors ligatures (+5 % a prevoir).
41
0.850000
7
STANDARD
72
0
11
556.000000
21
386.200000
31
0.0
73
3
0
TEXT
8
11_TEXTE
10
550.000000
20
382.000000
30
0.0
40
2.300000
1
8.
41
0.850000
7
STANDARD
72
0
11
550.000000
21
382.000000
31
0.0
73
3
0
TEXT
8
11_TEXTE
10
556.000000
20
382.000000
30
0.0
40
2.300000
1
Toute modification de ferraillage doit etre validee par l'ingenieur avant coulage.
41
0.850000
7
STANDARD
72
0
11
556.000000
21
382.000000
31
0.0
73
3
0
POLYLINE
8
12_TABLEAU
66
1
10
0.0
20
0.0
30
0.0
70
1
0
VERTEX
8
12_TABLEAU
10
550.000000
20
352.000000
30
0.0
0
VERTEX
8
12_TABLEAU
10
658.000000
20
352.000000
30
0.0
0
VERTEX
8
12_TABLEAU
10
658.000000
20
360.000000
30
0.0
0
VERTEX
8
12_TABLEAU
10
550.000000
20
360.000000
30
0.0
0
SEQEND
8
12_TABLEAU
0
TEXT
8
12_TABLEAU
10
552.000000
20
356.000000
30
0.0
40
3.200000
1
RECAPITULATIF PAR DIAMETRE
41
0.850000
7
STANDARD
72
0
11
552.000000
21
356.000000
31
0.0
73
2
0
POLYLINE
8
12_TABLEAU
66
1
10
0.0
20
0.0
30
0.0
70
1
0
VERTEX
8
12_TABLEAU
10
550.000000
20
345.800000
30
0.0
0
VERTEX
8
12_TABLEAU
10
658.000000
20
345.800000
30
0.0
0
VERTEX
8
12_TABLEAU
10
658.000000
20
352.000000
30
0.0
0
VERTEX
8
12_TABLEAU
10
550.000000
20
352.000000
30
0.0
0
SEQEND
8
12_TABLEAU
0
TEXT
8
12_TABLEAU
10
562.000000
20
348.900000
30
0.0
40
2.400000
1
%%c
41
0.850000
7
STANDARD
72
1
11
562.000000
21
348.900000
31
0.0
73
2
0
LINE
8
12_TABLEAU
10
574.000000
20
345.800000
30
0.0
11
574.000000
21
352.000000
31
0.0
0
TEXT
8
12_TABLEAU
10
596.000000
20
348.900000
30
0.0
40
2.400000
1
LONGUEUR (m)
41
0.850000
7
STANDARD
72
1
11
596.000000
21
348.900000
31
0.0
73
2
0
LINE
8
12_TABLEAU
10
618.000000
20
345.800000
30
0.0
11
618.000000
21
352.000000
31
0.0
0
TEXT
8
12_TABLEAU
10
638.000000
20
348.900000
30
0.0
40
2.400000
1
POIDS (kg)
41
0.850000
7
STANDARD
72
1
11
638.000000
21
348.900000
31
0.0
73
2
0
POLYLINE
8
12_TABLEAU
66
1
10
0.0
20
0.0
30
0.0
70
1
0
VERTEX
8
12_TABLEAU
10
550.000000
20
339.600000
30
0.0
0
VERTEX
8
12_TABLEAU
10
658.000000
20
339.600000
30
0.0
0
VERTEX
8
12_TABLEAU
10
658.000000
20
345.800000
30
0.0
0
VERTEX
8
12_TABLEAU
10
550.000000
20
345.800000
30
0.0
0
SEQEND
8
12_TABLEAU
0
TEXT
8
12_TABLEAU
10
562.000000
20
342.700000
30
0.0
40
2.400000
1
HA8
41
0.850000
7
STANDARD
72
1
11
562.000000
21
342.700000
31
0.0
73
2
0
LINE
8
12_TABLEAU
10
574.000000
20
339.600000
30
0.0
11
574.000000
21
345.800000
31
0.0
0
TEXT
8
12_TABLEAU
10
616.200000
20
342.700000
30
0.0
40
2.400000
1
714
41
0.850000
7
STANDARD
72
2
11
616.200000
21
342.700000
31
0.0
73
2
0
LINE
8
12_TABLEAU
10
618.000000
20
339.600000
30
0.0
11
618.000000
21
345.800000
31
0.0
0
TEXT
8
12_TABLEAU
10
656.200000
20
342.700000
30
0.0
40
2.400000
1
282
41
0.850000
7
STANDARD
72
2
11
656.200000
21
342.700000
31
0.0
73
2
0
POLYLINE
8
12_TABLEAU
66
1
10
0.0
20
0.0
30
0.0
70
1
0
VERTEX
8
12_TABLEAU
10
550.000000
20
333.400000
30
0.0
0
VERTEX
8
12_TABLEAU
10
658.000000
20
333.400000
30
0.0
0
VERTEX
8
12_TABLEAU
10
658.000000
20
339.600000
30
0.0
0
VERTEX
8
12_TABLEAU
10
550.000000
20
339.600000
30
0.0
0
SEQEND
8
12_TABLEAU
0
TEXT
8
12_TABLEAU
10
562.000000
20
336.500000
30
0.0
40
2.400000
1
HA10
41
0.850000
7
STANDARD
72
1
11
562.000000
21
336.500000
31
0.0
73
2
0
LINE
8
12_TABLEAU
10
574.000000
20
333.400000
30
0.0
11
574.000000
21
339.600000
31
0.0
0
TEXT
8
12_TABLEAU
10
616.200000
20
336.500000
30
0.0
40
2.400000
1
743
41
0.850000
7
STANDARD
72
2
11
616.200000
21
336.500000
31
0.0
73
2
0
LINE
8
12_TABLEAU
10
618.000000
20
333.400000
30
0.0
11
618.000000
21
339.600000
31
0.0
0
TEXT
8
12_TABLEAU
10
656.200000
20
336.500000
30
0.0
40
2.400000
1
458
41
0.850000
7
STANDARD
72
2
11
656.200000
21
336.500000
31
0.0
73
2
0
POLYLINE
8
12_TABLEAU
66
1
10
0.0
20
0.0
30
0.0
70
1
0
VERTEX
8
12_TABLEAU
10
550.000000
20
327.200000
30
0.0
0
VERTEX
8
12_TABLEAU
10
658.000000
20
327.200000
30
0.0
0
VERTEX
8
12_TABLEAU
10
658.000000
20
333.400000
30
0.0
0
VERTEX
8
12_TABLEAU
10
550.000000
20
333.400000
30
0.0
0
SEQEND
8
12_TABLEAU
0
TEXT
8
12_TABLEAU
10
562.000000
20
330.300000
30
0.0
40
2.400000
1
HA12
41
0.850000
7
STANDARD
72
1
11
562.000000
21
330.300000
31
0.0
73
2
0
LINE
8
12_TABLEAU
10
574.000000
20
327.200000
30
0.0
11
574.000000
21
333.400000
31
0.0
0
TEXT
8
12_TABLEAU
10
616.200000
20
330.300000
30
0.0
40
2.400000
1
1932
41
0.850000
7
STANDARD
72
2
11
616.200000
21
330.300000
31
0.0
73
2
0
LINE
8
12_TABLEAU
10
618.000000
20
327.200000
30
0.0
11
618.000000
21
333.400000
31
0.0
0
TEXT
8
12_TABLEAU
10
656.200000
20
330.300000
30
0.0
40
2.400000
1
1716
41
0.850000
7
STANDARD
72
2
11
656.200000
21
330.300000
31
0.0
73
2
0
POLYLINE
8
12_TABLEAU
66
1
10
0.0
20
0.0
30
0.0
70
1
0
VERTEX
8
12_TABLEAU
10
550.000000
20
321.000000
30
0.0
0
VERTEX
8
12_TABLEAU
10
658.000000
20
321.000000
30
0.0
0
VERTEX
8
12_TABLEAU
10
658.000000
20
327.200000
30
0.0
0
VERTEX
8
12_TABLEAU
10
550.000000
20
327.200000
30
0.0
0
SEQEND
8
12_TABLEAU
0
TEXT
8
12_TABLEAU
10
562.000000
20
324.100000
30
0.0
40
2.640000
1
TOTAL
41
0.850000
7
STANDARD
72
1
11
562.000000
21
324.100000
31
0.0
73
2
0
LINE
8
12_TABLEAU
10
574.000000
20
321.000000
30
0.0
11
574.000000
21
327.200000
31
0.0
0
TEXT
8
12_TABLEAU
10
616.200000
20
324.100000
30
0.0
40
2.640000
1
3388
41
0.850000
7
STANDARD
72
2
11
616.200000
21
324.100000
31
0.0
73
2
0
LINE
8
12_TABLEAU
10
618.000000
20
321.000000
30
0.0
11
618.000000
21
327.200000
31
0.0
0
TEXT
8
12_TABLEAU
10
656.200000
20
324.100000
30
0.0
40
2.640000
1
2456
41
0.850000
7
STANDARD
72
2
11
656.200000
21
324.100000
31
0.0
73
2
0
POLYLINE
8
00_CARTOUCHE
66
1
10
0.0
20
0.0
30
0.0
70
1
0
VERTEX
8
00_CARTOUCHE
10
500.000000
20
105.000000
30
0.0
0
VERTEX
8
00_CARTOUCHE
10
800.000000
20
105.000000
30
0.0
0
VERTEX
8
00_CARTOUCHE
10
800.000000
20
155.000000
30
0.0
0
VERTEX
8
00_CARTOUCHE
10
500.000000
20
155.000000
30
0.0
0
SEQEND
8
00_CARTOUCHE
0
POLYLINE
8
00_CARTOUCHE
66
1
10
0.0
20
0.0
30
0.0
70
1
0
VERTEX
8
00_CARTOUCHE
10
501.000000
20
106.000000
30
0.0
0
VERTEX
8
00_CARTOUCHE
10
799.000000
20
106.000000
30
0.0
0
VERTEX
8
00_CARTOUCHE
10
799.000000
20
154.000000
30
0.0
0
VERTEX
8
00_CARTOUCHE
10
501.000000
20
154.000000
30
0.0
0
SEQEND
8
00_CARTOUCHE
0
TEXT
8
00_CARTOUCHE
10
650.000000
20
142.500000
30
0.0
40
2.600000
1
PLAN TYPE ETABLI SUR HYPOTHESES - NE PAS EXECUTER EN L'ETAT
41
0.850000
7
STANDARD
72
1
11
650.000000
21
142.500000
31
0.0
73
2
0
TEXT
8
00_CARTOUCHE
10
650.000000
20
130.000000
30
0.0
40
2.600000
1
A valider par l'ingenieur apres leve topographique, etude hydrologique du bassin versant
41
0.850000
7
STANDARD
72
1
11
650.000000
21
130.000000
31
0.0
73
2
0
TEXT
8
00_CARTOUCHE
10
650.000000
20
117.500000
30
0.0
40
2.600000
1
et etude geotechnique. Le debit de projet et la portance du sol conditionnent le dimensionnement.
41
0.850000
7
STANDARD
72
1
11
650.000000
21
117.500000
31
0.0
73
2
0
POLYLINE
8
00_CARTOUCHE
66
1
10
0.0
20
0.0
30
0.0
70
1
0
VERTEX
8
00_CARTOUCHE
10
637.000000
20
14.000000
30
0.0
0
VERTEX
8
00_CARTOUCHE
10
827.000000
20
14.000000
30
0.0
0
VERTEX
8
00_CARTOUCHE
10
827.000000
20
86.000000
30
0.0
0
VERTEX
8
00_CARTOUCHE
10
637.000000
20
86.000000
30
0.0
0
SEQEND
8
00_CARTOUCHE
0
LINE
8
00_CARTOUCHE
10
637.000000
20
24.000000
30
0.0
11
827.000000
21
24.000000
31
0.0
0
LINE
8
00_CARTOUCHE
10
637.000000
20
36.000000
30
0.0
11
827.000000
21
36.000000
31
0.0
0
LINE
8
00_CARTOUCHE
10
637.000000
20
48.000000
30
0.0
11
827.000000
21
48.000000
31
0.0
0
LINE
8
00_CARTOUCHE
10
637.000000
20
60.000000
30
0.0
11
827.000000
21
60.000000
31
0.0
0
LINE
8
00_CARTOUCHE
10
637.000000
20
73.000000
30
0.0
11
827.000000
21
73.000000
31
0.0
0
TEXT
8
12_TABLEAU
10
639.000000
20
82.800000
30
0.0
40
2.000000
1
MAITRE D'OUVRAGE
41
0.850000
7
STANDARD
72
0
11
639.000000
21
82.800000
31
0.0
73
3
0
TEXT
8
12_TABLEAU
10
639.000000
20
75.400000
30
0.0
40
3.200000
1
A COMPLETER
41
0.850000
7
STANDARD
72
0
11
639.000000
21
75.400000
31
0.0
73
1
0
LINE
8
00_CARTOUCHE
10
741.500000
20
73.000000
30
0.0
11
741.500000
21
86.000000
31
0.0
0
TEXT
8
12_TABLEAU
10
743.500000
20
82.800000
30
0.0
40
2.000000
1
BUREAU D'ETUDES
41
0.850000
7
STANDARD
72
0
11
743.500000
21
82.800000
31
0.0
73
3
0
TEXT
8
12_TABLEAU
10
743.500000
20
75.400000
30
0.0
40
3.200000
1
A COMPLETER
41
0.850000
7
STANDARD
72
0
11
743.500000
21
75.400000
31
0.0
73
1
0
TEXT
8
12_TABLEAU
10
639.000000
20
69.800000
30
0.0
40
2.000000
1
PROJET
41
0.850000
7
STANDARD
72
0
11
639.000000
21
69.800000
31
0.0
73
3
0
TEXT
8
12_TABLEAU
10
639.000000
20
62.400000
30
0.0
40
2.800000
1
AMENAGEMENT ROUTIER - FRANCHISSEMENT HYDRAULIQUE
41
0.850000
7
STANDARD
72
0
11
639.000000
21
62.400000
31
0.0
73
1
0
TEXT
8
12_TABLEAU
10
639.000000
20
56.800000
30
0.0
40
2.000000
1
OUVRAGE
41
0.850000
7
STANDARD
72
0
11
639.000000
21
56.800000
31
0.0
73
3
0
TEXT
8
12_TABLEAU
10
639.000000
20
50.400000
30
0.0
40
2.800000
1
DALOT CADRE FERME 1 x (2.00 x 1.50) - PK 0+000 - A COMPLETER
41
0.850000
7
STANDARD
72
0
11
639.000000
21
50.400000
31
0.0
73
1
0
TEXT
8
12_TABLEAU
10
639.000000
20
44.800000
30
0.0
40
2.000000
1
TITRE DE LA PLANCHE
41
0.850000
7
STANDARD
72
0
11
639.000000
21
44.800000
31
0.0
73
3
0
TEXT
8
12_TABLEAU
10
639.000000
20
38.400000
30
0.0
40
3.600000
1
PLANCHE 2 - FERRAILLAGE
41
0.850000
7
STANDARD
72
0
11
639.000000
21
38.400000
31
0.0
73
1
0
LINE
8
00_CARTOUCHE
10
689.000000
20
24.000000
30
0.0
11
689.000000
21
36.000000
31
0.0
0
LINE
8
00_CARTOUCHE
10
729.000000
20
24.000000
30
0.0
11
729.000000
21
36.000000
31
0.0
0
LINE
8
00_CARTOUCHE
10
759.000000
20
24.000000
30
0.0
11
759.000000
21
36.000000
31
0.0
0
TEXT
8
12_TABLEAU
10
639.000000
20
32.800000
30
0.0
40
2.000000
1
ECHELLES
41
0.850000
7
STANDARD
72
0
11
639.000000
21
32.800000
31
0.0
73
3
0
TEXT
8
12_TABLEAU
10
639.000000
20
26.400000
30
0.0
40
3.000000
1
1:10 a 1:50 (A1)
41
0.850000
7
STANDARD
72
0
11
639.000000
21
26.400000
31
0.0
73
1
0
TEXT
8
12_TABLEAU
10
691.000000
20
32.800000
30
0.0
40
2.000000
1
DATE
41
0.850000
7
STANDARD
72
0
11
691.000000
21
32.800000
31
0.0
73
3
0
TEXT
8
12_TABLEAU
10
691.000000
20
26.400000
30
0.0
40
3.000000
1
06/09/2026
41
0.850000
7
STANDARD
72
0
11
691.000000
21
26.400000
31
0.0
73
1
0
TEXT
8
12_TABLEAU
10
731.000000
20
32.800000
30
0.0
40
2.000000
1
INDICE
41
0.850000
7
STANDARD
72
0
11
731.000000
21
32.800000
31
0.0
73
3
0
TEXT
8
12_TABLEAU
10
731.000000
20
26.400000
30
0.0
40
3.000000
1
A
41
0.850000
7
STANDARD
72
0
11
731.000000
21
26.400000
31
0.0
73
1
0
TEXT
8
12_TABLEAU
10
761.000000
20
32.800000
30
0.0
40
2.000000
1
No DE PLAN
41
0.850000
7
STANDARD
72
0
11
761.000000
21
32.800000
31
0.0
73
3
0
TEXT
8
12_TABLEAU
10
761.000000
20
26.400000
30
0.0
40
3.600000
1
DAL-02
41
0.850000
7
STANDARD
72
0
11
761.000000
21
26.400000
31
0.0
73
1
0
LINE
8
00_CARTOUCHE
10
700.333333
20
14.000000
30
0.0
11
700.333333
21
24.000000
31
0.0
0
LINE
8
00_CARTOUCHE
10
763.666667
20
14.000000
30
0.0
11
763.666667
21
24.000000
31
0.0
0
TEXT
8
12_TABLEAU
10
639.000000
20
20.800000
30
0.0
40
2.000000
1
DESSINE
41
0.850000
7
STANDARD
72
0
11
639.000000
21
20.800000
31
0.0
73
3
0
TEXT
8
12_TABLEAU
10
639.000000
20
16.400000
30
0.0
40
2.600000
1

41
0.850000
7
STANDARD
72
0
11
639.000000
21
16.400000
31
0.0
73
1
0
TEXT
8
12_TABLEAU
10
702.333333
20
20.800000
30
0.0
40
2.000000
1
VERIFIE
41
0.850000
7
STANDARD
72
0
11
702.333333
21
20.800000
31
0.0
73
3
0
TEXT
8
12_TABLEAU
10
702.333333
20
16.400000
30
0.0
40
2.600000
1

41
0.850000
7
STANDARD
72
0
11
702.333333
21
16.400000
31
0.0
73
1
0
TEXT
8
12_TABLEAU
10
765.666667
20
20.800000
30
0.0
40
2.000000
1
APPROUVE
41
0.850000
7
STANDARD
72
0
11
765.666667
21
20.800000
31
0.0
73
3
0
TEXT
8
12_TABLEAU
10
765.666667
20
16.400000
30
0.0
40
2.600000
1

41
0.850000
7
STANDARD
72
0
11
765.666667
21
16.400000
31
0.0
73
1
0
POLYLINE
8
16_BETON_FIN
66
1
10
0.0
20
0.0
30
0.0
70
1
0
VERTEX
8
16_BETON_FIN
10
126.100000
20
406.750000
30
0.0
0
VERTEX
8
16_BETON_FIN
10
251.100000
20
406.750000
30
0.0
0
VERTEX
8
16_BETON_FIN
10
251.100000
20
509.250000
30
0.0
0
VERTEX
8
16_BETON_FIN
10
126.100000
20
509.250000
30
0.0
0
SEQEND
8
16_BETON_FIN
0
POLYLINE
8
16_BETON_FIN
66
1
10
0.0
20
0.0
30
0.0
70
1
0
VERTEX
8
16_BETON_FIN
10
138.600000
20
431.750000
30
0.0
0
VERTEX
8
16_BETON_FIN
10
148.600000
20
421.750000
30
0.0
0
VERTEX
8
16_BETON_FIN
10
228.600000
20
421.750000
30
0.0
0
VERTEX
8
16_BETON_FIN
10
238.600000
20
431.750000
30
0.0
0
VERTEX
8
16_BETON_FIN
10
238.600000
20
486.750000
30
0.0
0
VERTEX
8
16_BETON_FIN
10
228.600000
20
496.750000
30
0.0
0
VERTEX
8
16_BETON_FIN
10
148.600000
20
496.750000
30
0.0
0
VERTEX
8
16_BETON_FIN
10
138.600000
20
486.750000
30
0.0
0
SEQEND
8
16_BETON_FIN
0
POLYLINE
8
08_ACIER_LONG
66
1
10
0.0
20
0.0
30
0.0
70
0
0
VERTEX
8
08_ACIER_LONG
10
128.100000
20
473.250000
30
0.0
0
VERTEX
8
08_ACIER_LONG
10
128.100000
20
409.250000
30
0.0
0
VERTEX
8
08_ACIER_LONG
10
249.100000
20
409.250000
30
0.0
0
VERTEX
8
08_ACIER_LONG
10
249.100000
20
473.250000
30
0.0
0
SEQEND
8
08_ACIER_LONG
0
POLYLINE
8
08_ACIER_LONG
66
1
10
0.0
20
0.0
30
0.0
70
0
0
VERTEX
8
08_ACIER_LONG
10
128.100000
20
443.250000
30
0.0
0
VERTEX
8
08_ACIER_LONG
10
128.100000
20
507.250000
30
0.0
0
VERTEX
8
08_ACIER_LONG
10
249.100000
20
507.250000
30
0.0
0
VERTEX
8
08_ACIER_LONG
10
249.100000
20
443.250000
30
0.0
0
SEQEND
8
08_ACIER_LONG
0
POLYLINE
8
08_ACIER_LONG
66
1
10
0.0
20
0.0
30
0.0
70
0
0
VERTEX
8
08_ACIER_LONG
10
136.600000
20
483.750000
30
0.0
0
VERTEX
8
08_ACIER_LONG
10
136.600000
20
430.921573
30
0.0
0
VERTEX
8
08_ACIER_LONG
10
147.771573
20
419.750000
30
0.0
0
VERTEX
8
08_ACIER_LONG
10
229.428427
20
419.750000
30
0.0
0
VERTEX
8
08_ACIER_LONG
10
240.600000
20
430.921573
30
0.0
0
VERTEX
8
08_ACIER_LONG
10
240.600000
20
483.750000
30
0.0
0
SEQEND
8
08_ACIER_LONG
0
POLYLINE
8
08_ACIER_LONG
66
1
10
0.0
20
0.0
30
0.0
70
0
0
VERTEX
8
08_ACIER_LONG
10
136.600000
20
434.750000
30
0.0
0
VERTEX
8
08_ACIER_LONG
10
136.600000
20
487.578427
30
0.0
0
VERTEX
8
08_ACIER_LONG
10
147.771573
20
498.750000
30
0.0
0
VERTEX
8
08_ACIER_LONG
10
229.428427
20
498.750000
30
0.0
0
VERTEX
8
08_ACIER_LONG
10
240.600000
20
487.578427
30
0.0
0
VERTEX
8
08_ACIER_LONG
10
240.600000
20
434.750000
30
0.0
0
SEQEND
8
08_ACIER_LONG
0
SOLID
8
09_ACIER_COUPE
10
132.350000
20
408.500000
30
0.0
11
133.850000
21
408.500000
31
0.0
12
132.350000
22
410.000000
32
0.0
13
133.850000
23
410.000000
33
0.0
0
SOLID
8
09_ACIER_COUPE
10
142.350000
20
408.500000
30
0.0
11
143.850000
21
408.500000
31
0.0
12
142.350000
22
410.000000
32
0.0
13
143.850000
23
410.000000
33
0.0
0
SOLID
8
09_ACIER_COUPE
10
152.350000
20
408.500000
30
0.0
11
153.850000
21
408.500000
31
0.0
12
152.350000
22
410.000000
32
0.0
13
153.850000
23
410.000000
33
0.0
0
SOLID
8
09_ACIER_COUPE
10
162.350000
20
408.500000
30
0.0
11
163.850000
21
408.500000
31
0.0
12
162.350000
22
410.000000
32
0.0
13
163.850000
23
410.000000
33
0.0
0
SOLID
8
09_ACIER_COUPE
10
172.350000
20
408.500000
30
0.0
11
173.850000
21
408.500000
31
0.0
12
172.350000
22
410.000000
32
0.0
13
173.850000
23
410.000000
33
0.0
0
SOLID
8
09_ACIER_COUPE
10
182.350000
20
408.500000
30
0.0
11
183.850000
21
408.500000
31
0.0
12
182.350000
22
410.000000
32
0.0
13
183.850000
23
410.000000
33
0.0
0
SOLID
8
09_ACIER_COUPE
10
192.350000
20
408.500000
30
0.0
11
193.850000
21
408.500000
31
0.0
12
192.350000
22
410.000000
32
0.0
13
193.850000
23
410.000000
33
0.0
0
SOLID
8
09_ACIER_COUPE
10
202.350000
20
408.500000
30
0.0
11
203.850000
21
408.500000
31
0.0
12
202.350000
22
410.000000
32
0.0
13
203.850000
23
410.000000
33
0.0
0
SOLID
8
09_ACIER_COUPE
10
212.350000
20
408.500000
30
0.0
11
213.850000
21
408.500000
31
0.0
12
212.350000
22
410.000000
32
0.0
13
213.850000
23
410.000000
33
0.0
0
SOLID
8
09_ACIER_COUPE
10
222.350000
20
408.500000
30
0.0
11
223.850000
21
408.500000
31
0.0
12
222.350000
22
410.000000
32
0.0
13
223.850000
23
410.000000
33
0.0
0
SOLID
8
09_ACIER_COUPE
10
232.350000
20
408.500000
30
0.0
11
233.850000
21
408.500000
31
0.0
12
232.350000
22
410.000000
32
0.0
13
233.850000
23
410.000000
33
0.0
0
SOLID
8
09_ACIER_COUPE
10
242.350000
20
408.500000
30
0.0
11
243.850000
21
408.500000
31
0.0
12
242.350000
22
410.000000
32
0.0
13
243.850000
23
410.000000
33
0.0
0
SOLID
8
09_ACIER_COUPE
10
248.350000
20
412.500000
30
0.0
11
249.850000
21
412.500000
31
0.0
12
248.350000
22
414.000000
32
0.0
13
249.850000
23
414.000000
33
0.0
0
SOLID
8
09_ACIER_COUPE
10
248.350000
20
422.500000
30
0.0
11
249.850000
21
422.500000
31
0.0
12
248.350000
22
424.000000
32
0.0
13
249.850000
23
424.000000
33
0.0
0
SOLID
8
09_ACIER_COUPE
10
248.350000
20
432.500000
30
0.0
11
249.850000
21
432.500000
31
0.0
12
248.350000
22
434.000000
32
0.0
13
249.850000
23
434.000000
33
0.0
0
SOLID
8
09_ACIER_COUPE
10
248.350000
20
442.500000
30
0.0
11
249.850000
21
442.500000
31
0.0
12
248.350000
22
444.000000
32
0.0
13
249.850000
23
444.000000
33
0.0
0
SOLID
8
09_ACIER_COUPE
10
248.350000
20
452.500000
30
0.0
11
249.850000
21
452.500000
31
0.0
12
248.350000
22
454.000000
32
0.0
13
249.850000
23
454.000000
33
0.0
0
SOLID
8
09_ACIER_COUPE
10
248.350000
20
462.500000
30
0.0
11
249.850000
21
462.500000
31
0.0
12
248.350000
22
464.000000
32
0.0
13
249.850000
23
464.000000
33
0.0
0
SOLID
8
09_ACIER_COUPE
10
248.350000
20
472.500000
30
0.0
11
249.850000
21
472.500000
31
0.0
12
248.350000
22
474.000000
32
0.0
13
249.850000
23
474.000000
33
0.0
0
SOLID
8
09_ACIER_COUPE
10
248.350000
20
482.500000
30
0.0
11
249.850000
21
482.500000
31
0.0
12
248.350000
22
484.000000
32
0.0
13
249.850000
23
484.000000
33
0.0
0
SOLID
8
09_ACIER_COUPE
10
248.350000
20
492.500000
30
0.0
11
249.850000
21
492.500000
31
0.0
12
248.350000
22
494.000000
32
0.0
13
249.850000
23
494.000000
33
0.0
0
SOLID
8
09_ACIER_COUPE
10
248.350000
20
502.500000
30
0.0
11
249.850000
21
502.500000
31
0.0
12
248.350000
22
504.000000
32
0.0
13
249.850000
23
504.000000
33
0.0
0
SOLID
8
09_ACIER_COUPE
10
242.350000
20
506.500000
30
0.0
11
243.850000
21
506.500000
31
0.0
12
242.350000
22
508.000000
32
0.0
13
243.850000
23
508.000000
33
0.0
0
SOLID
8
09_ACIER_COUPE
10
232.350000
20
506.500000
30
0.0
11
233.850000
21
506.500000
31
0.0
12
232.350000
22
508.000000
32
0.0
13
233.850000
23
508.000000
33
0.0
0
SOLID
8
09_ACIER_COUPE
10
222.350000
20
506.500000
30
0.0
11
223.850000
21
506.500000
31
0.0
12
222.350000
22
508.000000
32
0.0
13
223.850000
23
508.000000
33
0.0
0
SOLID
8
09_ACIER_COUPE
10
212.350000
20
506.500000
30
0.0
11
213.850000
21
506.500000
31
0.0
12
212.350000
22
508.000000
32
0.0
13
213.850000
23
508.000000
33
0.0
0
SOLID
8
09_ACIER_COUPE
10
202.350000
20
506.500000
30
0.0
11
203.850000
21
506.500000
31
0.0
12
202.350000
22
508.000000
32
0.0
13
203.850000
23
508.000000
33
0.0
0
SOLID
8
09_ACIER_COUPE
10
192.350000
20
506.500000
30
0.0
11
193.850000
21
506.500000
31
0.0
12
192.350000
22
508.000000
32
0.0
13
193.850000
23
508.000000
33
0.0
0
SOLID
8
09_ACIER_COUPE
10
182.350000
20
506.500000
30
0.0
11
183.850000
21
506.500000
31
0.0
12
182.350000
22
508.000000
32
0.0
13
183.850000
23
508.000000
33
0.0
0
SOLID
8
09_ACIER_COUPE
10
172.350000
20
506.500000
30
0.0
11
173.850000
21
506.500000
31
0.0
12
172.350000
22
508.000000
32
0.0
13
173.850000
23
508.000000
33
0.0
0
SOLID
8
09_ACIER_COUPE
10
162.350000
20
506.500000
30
0.0
11
163.850000
21
506.500000
31
0.0
12
162.350000
22
508.000000
32
0.0
13
163.850000
23
508.000000
33
0.0
0
SOLID
8
09_ACIER_COUPE
10
152.350000
20
506.500000
30
0.0
11
153.850000
21
506.500000
31
0.0
12
152.350000
22
508.000000
32
0.0
13
153.850000
23
508.000000
33
0.0
0
SOLID
8
09_ACIER_COUPE
10
142.350000
20
506.500000
30
0.0
11
143.850000
21
506.500000
31
0.0
12
142.350000
22
508.000000
32
0.0
13
143.850000
23
508.000000
33
0.0
0
SOLID
8
09_ACIER_COUPE
10
132.350000
20
506.500000
30
0.0
11
133.850000
21
506.500000
31
0.0
12
132.350000
22
508.000000
32
0.0
13
133.850000
23
508.000000
33
0.0
0
SOLID
8
09_ACIER_COUPE
10
127.350000
20
501.500000
30
0.0
11
128.850000
21
501.500000
31
0.0
12
127.350000
22
503.000000
32
0.0
13
128.850000
23
503.000000
33
0.0
0
SOLID
8
09_ACIER_COUPE
10
127.350000
20
491.500000
30
0.0
11
128.850000
21
491.500000
31
0.0
12
127.350000
22
493.000000
32
0.0
13
128.850000
23
493.000000
33
0.0
0
SOLID
8
09_ACIER_COUPE
10
127.350000
20
481.500000
30
0.0
11
128.850000
21
481.500000
31
0.0
12
127.350000
22
483.000000
32
0.0
13
128.850000
23
483.000000
33
0.0
0
SOLID
8
09_ACIER_COUPE
10
127.350000
20
471.500000
30
0.0
11
128.850000
21
471.500000
31
0.0
12
127.350000
22
473.000000
32
0.0
13
128.850000
23
473.000000
33
0.0
0
SOLID
8
09_ACIER_COUPE
10
127.350000
20
461.500000
30
0.0
11
128.850000
21
461.500000
31
0.0
12
127.350000
22
463.000000
32
0.0
13
128.850000
23
463.000000
33
0.0
0
SOLID
8
09_ACIER_COUPE
10
127.350000
20
451.500000
30
0.0
11
128.850000
21
451.500000
31
0.0
12
127.350000
22
453.000000
32
0.0
13
128.850000
23
453.000000
33
0.0
0
SOLID
8
09_ACIER_COUPE
10
127.350000
20
441.500000
30
0.0
11
128.850000
21
441.500000
31
0.0
12
127.350000
22
443.000000
32
0.0
13
128.850000
23
443.000000
33
0.0
0
SOLID
8
09_ACIER_COUPE
10
127.350000
20
431.500000
30
0.0
11
128.850000
21
431.500000
31
0.0
12
127.350000
22
433.000000
32
0.0
13
128.850000
23
433.000000
33
0.0
0
SOLID
8
09_ACIER_COUPE
10
127.350000
20
421.500000
30
0.0
11
128.850000
21
421.500000
31
0.0
12
127.350000
22
423.000000
32
0.0
13
128.850000
23
423.000000
33
0.0
0
SOLID
8
09_ACIER_COUPE
10
127.350000
20
411.500000
30
0.0
11
128.850000
21
411.500000
31
0.0
12
127.350000
22
413.000000
32
0.0
13
128.850000
23
413.000000
33
0.0
0
SOLID
8
09_ACIER_COUPE
10
139.385534
20
426.636039
30
0.0
11
140.885534
21
426.636039
31
0.0
12
139.385534
22
428.136039
32
0.0
13
140.885534
23
428.136039
33
0.0
0
SOLID
8
09_ACIER_COUPE
10
146.456602
20
419.564971
30
0.0
11
147.956602
21
419.564971
31
0.0
12
146.456602
22
421.064971
32
0.0
13
147.956602
23
421.064971
33
0.0
0
SOLID
8
09_ACIER_COUPE
10
156.222583
20
419.000000
30
0.0
11
157.722583
21
419.000000
31
0.0
12
156.222583
22
420.500000
32
0.0
13
157.722583
23
420.500000
33
0.0
0
SOLID
8
09_ACIER_COUPE
10
166.222583
20
419.000000
30
0.0
11
167.722583
21
419.000000
31
0.0
12
166.222583
22
420.500000
32
0.0
13
167.722583
23
420.500000
33
0.0
0
SOLID
8
09_ACIER_COUPE
10
176.222583
20
419.000000
30
0.0
11
177.722583
21
419.000000
31
0.0
12
176.222583
22
420.500000
32
0.0
13
177.722583
23
420.500000
33
0.0
0
SOLID
8
09_ACIER_COUPE
10
186.222583
20
419.000000
30
0.0
11
187.722583
21
419.000000
31
0.0
12
186.222583
22
420.500000
32
0.0
13
187.722583
23
420.500000
33
0.0
0
SOLID
8
09_ACIER_COUPE
10
196.222583
20
419.000000
30
0.0
11
197.722583
21
419.000000
31
0.0
12
196.222583
22
420.500000
32
0.0
13
197.722583
23
420.500000
33
0.0
0
SOLID
8
09_ACIER_COUPE
10
206.222583
20
419.000000
30
0.0
11
207.722583
21
419.000000
31
0.0
12
206.222583
22
420.500000
32
0.0
13
207.722583
23
420.500000
33
0.0
0
SOLID
8
09_ACIER_COUPE
10
216.222583
20
419.000000
30
0.0
11
217.722583
21
419.000000
31
0.0
12
216.222583
22
420.500000
32
0.0
13
217.722583
23
420.500000
33
0.0
0
SOLID
8
09_ACIER_COUPE
10
226.222583
20
419.000000
30
0.0
11
227.722583
21
419.000000
31
0.0
12
226.222583
22
420.500000
32
0.0
13
227.722583
23
420.500000
33
0.0
0
SOLID
8
09_ACIER_COUPE
10
234.012951
20
424.334524
30
0.0
11
235.512951
21
424.334524
31
0.0
12
234.012951
22
425.834524
32
0.0
13
235.512951
23
425.834524
33
0.0
0
SOLID
8
09_ACIER_COUPE
10
239.850000
20
431.916739
30
0.0
11
241.350000
21
431.916739
31
0.0
12
239.850000
22
433.416739
32
0.0
13
241.350000
23
433.416739
33
0.0
0
SOLID
8
09_ACIER_COUPE
10
239.850000
20
441.916739
30
0.0
11
241.350000
21
441.916739
31
0.0
12
239.850000
22
443.416739
32
0.0
13
241.350000
23
443.416739
33
0.0
0
SOLID
8
09_ACIER_COUPE
10
239.850000
20
451.916739
30
0.0
11
241.350000
21
451.916739
31
0.0
12
239.850000
22
453.416739
32
0.0
13
241.350000
23
453.416739
33
0.0
0
SOLID
8
09_ACIER_COUPE
10
239.850000
20
461.916739
30
0.0
11
241.350000
21
461.916739
31
0.0
12
239.850000
22
463.416739
32
0.0
13
241.350000
23
463.416739
33
0.0
0
SOLID
8
09_ACIER_COUPE
10
239.850000
20
471.916739
30
0.0
11
241.350000
21
471.916739
31
0.0
12
239.850000
22
473.416739
32
0.0
13
241.350000
23
473.416739
33
0.0
0
SOLID
8
09_ACIER_COUPE
10
239.850000
20
481.916739
30
0.0
11
241.350000
21
481.916739
31
0.0
12
239.850000
22
483.416739
32
0.0
13
241.350000
23
483.416739
33
0.0
0
SOLID
8
09_ACIER_COUPE
10
236.252020
20
490.426407
30
0.0
11
237.752020
21
490.426407
31
0.0
12
236.252020
22
491.926407
32
0.0
13
237.752020
23
491.926407
33
0.0
0
SOLID
8
09_ACIER_COUPE
10
229.180952
20
497.497475
30
0.0
11
230.680952
21
497.497475
31
0.0
12
229.180952
22
498.997475
32
0.0
13
230.680952
23
498.997475
33
0.0
0
SOLID
8
09_ACIER_COUPE
10
219.389105
20
498.000000
30
0.0
11
220.889105
21
498.000000
31
0.0
12
219.389105
22
499.500000
32
0.0
13
220.889105
23
499.500000
33
0.0
0
SOLID
8
09_ACIER_COUPE
10
209.389105
20
498.000000
30
0.0
11
210.889105
21
498.000000
31
0.0
12
209.389105
22
499.500000
32
0.0
13
210.889105
23
499.500000
33
0.0
0
SOLID
8
09_ACIER_COUPE
10
199.389105
20
498.000000
30
0.0
11
200.889105
21
498.000000
31
0.0
12
199.389105
22
499.500000
32
0.0
13
200.889105
23
499.500000
33
0.0
0
SOLID
8
09_ACIER_COUPE
10
189.389105
20
498.000000
30
0.0
11
190.889105
21
498.000000
31
0.0
12
189.389105
22
499.500000
32
0.0
13
190.889105
23
499.500000
33
0.0
0
SOLID
8
09_ACIER_COUPE
10
179.389105
20
498.000000
30
0.0
11
180.889105
21
498.000000
31
0.0
12
179.389105
22
499.500000
32
0.0
13
180.889105
23
499.500000
33
0.0
0
SOLID
8
09_ACIER_COUPE
10
169.389105
20
498.000000
30
0.0
11
170.889105
21
498.000000
31
0.0
12
169.389105
22
499.500000
32
0.0
13
170.889105
23
499.500000
33
0.0
0
SOLID
8
09_ACIER_COUPE
10
159.389105
20
498.000000
30
0.0
11
160.889105
21
498.000000
31
0.0
12
159.389105
22
499.500000
32
0.0
13
160.889105
23
499.500000
33
0.0
0
SOLID
8
09_ACIER_COUPE
10
149.389105
20
498.000000
30
0.0
11
150.889105
21
498.000000
31
0.0
12
149.389105
22
499.500000
32
0.0
13
150.889105
23
499.500000
33
0.0
0
SOLID
8
09_ACIER_COUPE
10
141.624603
20
492.603030
30
0.0
11
143.124603
21
492.603030
31
0.0
12
141.624603
22
494.103030
32
0.0
13
143.124603
23
494.103030
33
0.0
0
SOLID
8
09_ACIER_COUPE
10
135.850000
20
484.994949
30
0.0
11
137.350000
21
484.994949
31
0.0
12
135.850000
22
486.494949
32
0.0
13
137.350000
23
486.494949
33
0.0
0
SOLID
8
09_ACIER_COUPE
10
135.850000
20
474.994949
30
0.0
11
137.350000
21
474.994949
31
0.0
12
135.850000
22
476.494949
32
0.0
13
137.350000
23
476.494949
33
0.0
0
SOLID
8
09_ACIER_COUPE
10
135.850000
20
464.994949
30
0.0
11
137.350000
21
464.994949
31
0.0
12
135.850000
22
466.494949
32
0.0
13
137.350000
23
466.494949
33
0.0
0
SOLID
8
09_ACIER_COUPE
10
135.850000
20
454.994949
30
0.0
11
137.350000
21
454.994949
31
0.0
12
135.850000
22
456.494949
32
0.0
13
137.350000
23
456.494949
33
0.0
0
SOLID
8
09_ACIER_COUPE
10
135.850000
20
444.994949
30
0.0
11
137.350000
21
444.994949
31
0.0
12
135.850000
22
446.494949
32
0.0
13
137.350000
23
446.494949
33
0.0
0
SOLID
8
09_ACIER_COUPE
10
135.850000
20
434.994949
30
0.0
11
137.350000
21
434.994949
31
0.0
12
135.850000
22
436.494949
32
0.0
13
137.350000
23
436.494949
33
0.0
0
SOLID
8
08_ACIER_LONG
10
136.839887
20
424.943151
30
0.0
11
138.339887
21
424.943151
31
0.0
12
136.839887
22
426.443151
32
0.0
13
138.339887
23
426.443151
33
0.0
0
SOLID
8
08_ACIER_LONG
10
140.379724
20
420.098612
30
0.0
11
141.879724
21
420.098612
31
0.0
12
140.379724
22
421.598612
32
0.0
13
141.879724
23
421.598612
33
0.0
0
SOLID
8
08_ACIER_LONG
10
235.320276
20
420.098612
30
0.0
11
236.820276
21
420.098612
31
0.0
12
235.320276
22
421.598612
32
0.0
13
236.820276
23
421.598612
33
0.0
0
SOLID
8
08_ACIER_LONG
10
238.860113
20
424.943151
30
0.0
11
240.360113
21
424.943151
31
0.0
12
238.860113
22
426.443151
32
0.0
13
240.360113
23
426.443151
33
0.0
0
SOLID
8
08_ACIER_LONG
10
238.860113
20
492.056849
30
0.0
11
240.360113
21
492.056849
31
0.0
12
238.860113
22
493.556849
32
0.0
13
240.360113
23
493.556849
33
0.0
0
SOLID
8
08_ACIER_LONG
10
235.320276
20
496.901388
30
0.0
11
236.820276
21
496.901388
31
0.0
12
235.320276
22
498.401388
32
0.0
13
236.820276
23
498.401388
33
0.0
0
SOLID
8
08_ACIER_LONG
10
140.379724
20
496.901388
30
0.0
11
141.879724
21
496.901388
31
0.0
12
140.379724
22
498.401388
32
0.0
13
141.879724
23
498.401388
33
0.0
0
SOLID
8
08_ACIER_LONG
10
136.839887
20
492.056849
30
0.0
11
138.339887
21
492.056849
31
0.0
12
136.839887
22
493.556849
32
0.0
13
138.339887
23
493.556849
33
0.0
0
LINE
8
10_COTATION
10
125.100000
20
443.250000
30
0.0
11
97.100000
21
443.250000
31
0.0
0
LINE
8
10_COTATION
10
125.100000
20
473.250000
30
0.0
11
97.100000
21
473.250000
31
0.0
0
LINE
8
10_COTATION
10
98.600000
20
443.250000
30
0.0
11
98.600000
21
473.250000
31
0.0
0
LINE
8
10_COTATION
10
97.716117
20
442.366117
30
0.0
11
99.483883
21
444.133883
31
0.0
0
LINE
8
10_COTATION
10
97.716117
20
472.366117
30
0.0
11
99.483883
21
474.133883
31
0.0
0
TEXT
8
10_COTATION
10
97.800000
20
458.250000
30
0.0
40
2.000000
1
RECOUVR. 0.60 = 50 %%c
50
90.000000
41
0.850000
7
STANDARD
72
1
11
97.800000
21
458.250000
31
0.0
73
3
0
LINE
8
10_COTATION
10
126.100000
20
405.750000
30
0.0
11
126.100000
21
385.250000
31
0.0
0
LINE
8
10_COTATION
10
138.600000
20
405.750000
30
0.0
11
138.600000
21
385.250000
31
0.0
0
LINE
8
10_COTATION
10
126.100000
20
386.750000
30
0.0
11
138.600000
21
386.750000
31
0.0
0
LINE
8
10_COTATION
10
125.216117
20
385.866117
30
0.0
11
126.983883
21
387.633883
31
0.0
0
LINE
8
10_COTATION
10
137.716117
20
385.866117
30
0.0
11
139.483883
21
387.633883
31
0.0
0
TEXT
8
10_COTATION
10
132.350000
20
387.550000
30
0.0
40
2.000000
1
0.25
41
0.850000
7
STANDARD
72
1
11
132.350000
21
387.550000
31
0.0
73
1
0
LINE
8
10_COTATION
10
138.600000
20
405.750000
30
0.0
11
138.600000
21
385.250000
31
0.0
0
LINE
8
10_COTATION
10
238.600000
20
405.750000
30
0.0
11
238.600000
21
385.250000
31
0.0
0
LINE
8
10_COTATION
10
138.600000
20
386.750000
30
0.0
11
238.600000
21
386.750000
31
0.0
0
LINE
8
10_COTATION
10
137.716117
20
385.866117
30
0.0
11
139.483883
21
387.633883
31
0.0
0
LINE
8
10_COTATION
10
237.716117
20
385.866117
30
0.0
11
239.483883
21
387.633883
31
0.0
0
TEXT
8
10_COTATION
10
188.600000
20
387.550000
30
0.0
40
2.000000
1
2.00
41
0.850000
7
STANDARD
72
1
11
188.600000
21
387.550000
31
0.0
73
1
0
LINE
8
10_COTATION
10
238.600000
20
405.750000
30
0.0
11
238.600000
21
385.250000
31
0.0
0
LINE
8
10_COTATION
10
251.100000
20
405.750000
30
0.0
11
251.100000
21
385.250000
31
0.0
0
LINE
8
10_COTATION
10
238.600000
20
386.750000
30
0.0
11
251.100000
21
386.750000
31
0.0
0
LINE
8
10_COTATION
10
237.716117
20
385.866117
30
0.0
11
239.483883
21
387.633883
31
0.0
0
LINE
8
10_COTATION
10
250.216117
20
385.866117
30
0.0
11
251.983883
21
387.633883
31
0.0
0
TEXT
8
10_COTATION
10
244.850000
20
387.550000
30
0.0
40
2.000000
1
0.25
41
0.850000
7
STANDARD
72
1
11
244.850000
21
387.550000
31
0.0
73
1
0
LINE
8
10_COTATION
10
252.100000
20
406.750000
30
0.0
11
272.600000
21
406.750000
31
0.0
0
LINE
8
10_COTATION
10
252.100000
20
421.750000
30
0.0
11
272.600000
21
421.750000
31
0.0
0
LINE
8
10_COTATION
10
271.100000
20
406.750000
30
0.0
11
271.100000
21
421.750000
31
0.0
0
LINE
8
10_COTATION
10
270.216117
20
405.866117
30
0.0
11
271.983883
21
407.633883
31
0.0
0
LINE
8
10_COTATION
10
270.216117
20
420.866117
30
0.0
11
271.983883
21
422.633883
31
0.0
0
TEXT
8
10_COTATION
10
270.300000
20
414.250000
30
0.0
40
2.000000
1
0.30
50
90.000000
41
0.850000
7
STANDARD
72
1
11
270.300000
21
414.250000
31
0.0
73
3
0
LINE
8
10_COTATION
10
252.100000
20
421.750000
30
0.0
11
272.600000
21
421.750000
31
0.0
0
LINE
8
10_COTATION
10
252.100000
20
496.750000
30
0.0
11
272.600000
21
496.750000
31
0.0
0
LINE
8
10_COTATION
10
271.100000
20
421.750000
30
0.0
11
271.100000
21
496.750000
31
0.0
0
LINE
8
10_COTATION
10
270.216117
20
420.866117
30
0.0
11
271.983883
21
422.633883
31
0.0
0
LINE
8
10_COTATION
10
270.216117
20
495.866117
30
0.0
11
271.983883
21
497.633883
31
0.0
0
TEXT
8
10_COTATION
10
270.300000
20
459.250000
30
0.0
40
2.000000
1
1.50
50
90.000000
41
0.850000
7
STANDARD
72
1
11
270.300000
21
459.250000
31
0.0
73
3
0
LINE
8
10_COTATION
10
252.100000
20
496.750000
30
0.0
11
272.600000
21
496.750000
31
0.0
0
LINE
8
10_COTATION
10
252.100000
20
509.250000
30
0.0
11
272.600000
21
509.250000
31
0.0
0
LINE
8
10_COTATION
10
271.100000
20
496.750000
30
0.0
11
271.100000
21
509.250000
31
0.0
0
LINE
8
10_COTATION
10
270.216117
20
495.866117
30
0.0
11
271.983883
21
497.633883
31
0.0
0
LINE
8
10_COTATION
10
270.216117
20
508.366117
30
0.0
11
271.983883
21
510.133883
31
0.0
0
TEXT
8
10_COTATION
10
270.300000
20
503.000000
30
0.0
40
2.000000
1
0.25
50
90.000000
41
0.850000
7
STANDARD
72
1
11
270.300000
21
503.000000
31
0.0
73
3
0
LINE
8
11_TEXTE
10
188.600000
20
507.250000
30
0.0
11
312.100000
21
536.750000
31
0.0
0
LINE
8
11_TEXTE
10
312.100000
20
536.750000
30
0.0
11
316.100000
21
536.750000
31
0.0
0
SOLID
8
11_TEXTE
10
188.600000
20
507.250000
30
0.0
11
191.136141
21
507.393139
31
0.0
12
190.927044
22
508.268512
32
0.0
13
190.927044
23
508.268512
33
0.0
0
TEXT
8
11_TEXTE
10
317.100000
20
536.750000
30
0.0
40
2.500000
1
2 - 61 HA12 e=15
41
0.850000
7
STANDARD
72
0
11
317.100000
21
536.750000
31
0.0
73
2
0
LINE
8
11_TEXTE
10
188.600000
20
409.250000
30
0.0
11
312.100000
21
364.250000
31
0.0
0
LINE
8
11_TEXTE
10
312.100000
20
364.250000
30
0.0
11
316.100000
21
364.250000
31
0.0
0
SOLID
8
11_TEXTE
10
188.600000
20
409.250000
30
0.0
11
190.794869
21
407.971308
31
0.0
12
191.102987
22
408.816922
32
0.0
13
191.102987
23
408.816922
33
0.0
0
TEXT
8
11_TEXTE
10
317.100000
20
364.250000
30
0.0
40
2.500000
1
1 - 61 HA12 e=15
41
0.850000
7
STANDARD
72
0
11
317.100000
21
364.250000
31
0.0
73
2
0
LINE
8
11_TEXTE
10
203.600000
20
498.750000
30
0.0
11
312.100000
21
491.750000
31
0.0
0
LINE
8
11_TEXTE
10
312.100000
20
491.750000
30
0.0
11
316.100000
21
491.750000
31
0.0
0
SOLID
8
11_TEXTE
10
203.600000
20
498.750000
30
0.0
11
206.065841
21
498.139978
31
0.0
12
206.123785
22
499.038111
32
0.0
13
206.123785
23
499.038111
33
0.0
0
TEXT
8
11_TEXTE
10
317.100000
20
491.750000
30
0.0
40
2.500000
1
4 - 61 HA12 e=15
41
0.850000
7
STANDARD
72
0
11
317.100000
21
491.750000
31
0.0
73
2
0
LINE
8
11_TEXTE
10
203.600000
20
419.750000
30
0.0
11
312.100000
21
389.250000
31
0.0
0
LINE
8
11_TEXTE
10
312.100000
20
389.250000
30
0.0
11
316.100000
21
389.250000
31
0.0
0
SOLID
8
11_TEXTE
10
203.600000
20
419.750000
30
0.0
11
205.884940
21
418.640248
31
0.0
12
206.128495
22
419.506666
32
0.0
13
206.128495
23
419.506666
33
0.0
0
TEXT
8
11_TEXTE
10
317.100000
20
389.250000
30
0.0
40
2.500000
1
3 - 61 HA12 e=15
41
0.850000
7
STANDARD
72
0
11
317.100000
21
389.250000
31
0.0
73
2
0
LINE
8
11_TEXTE
10
128.100000
20
476.750000
30
0.0
11
65.100000
21
519.250000
31
0.0
0
LINE
8
11_TEXTE
10
65.100000
20
519.250000
30
0.0
11
61.100000
21
519.250000
31
0.0
0
SOLID
8
11_TEXTE
10
128.100000
20
476.750000
30
0.0
11
126.279158
21
478.521168
31
0.0
12
125.775836
22
477.775067
32
0.0
13
125.775836
23
477.775067
33
0.0
0
TEXT
8
11_TEXTE
10
60.100000
20
519.250000
30
0.0
40
2.500000
1
6 - HA8 e=20 (filants)
41
0.850000
7
STANDARD
72
2
11
60.100000
21
519.250000
31
0.0
73
2
0
LINE
8
11_TEXTE
10
132.100000
20
428.421573
30
0.0
11
65.100000
21
384.250000
31
0.0
0
LINE
8
11_TEXTE
10
65.100000
20
384.250000
30
0.0
11
61.100000
21
384.250000
31
0.0
0
SOLID
8
11_TEXTE
10
132.100000
20
428.421573
30
0.0
11
129.765093
21
427.421217
31
0.0
12
130.260473
22
426.669819
32
0.0
13
130.260473
23
426.669819
33
0.0
0
TEXT
8
11_TEXTE
10
60.100000
20
384.250000
30
0.0
40
2.500000
1
5 - 2 HA12 par gousset
41
0.850000
7
STANDARD
72
2
11
60.100000
21
384.250000
31
0.0
73
2
0
TEXT
8
11_TEXTE
10
188.600000
20
474.250000
30
0.0
40
2.200000
1
ENROBAGE 4 cm
41
0.850000
7
STANDARD
72
1
11
188.600000
21
474.250000
31
0.0
73
2
0
TEXT
8
11_TEXTE
10
188.600000
20
459.250000
30
0.0
40
2.200000
1
(5 cm AU CONTACT DU SOL)
41
0.850000
7
STANDARD
72
1
11
188.600000
21
459.250000
31
0.0
73
2
0
POLYLINE
8
16_BETON_FIN
66
1
10
0.0
20
0.0
30
0.0
70
1
0
VERTEX
8
16_BETON_FIN
10
415.600000
20
348.500000
30
0.0
0
VERTEX
8
16_BETON_FIN
10
465.600000
20
348.500000
30
0.0
0
VERTEX
8
16_BETON_FIN
10
465.600000
20
528.500000
30
0.0
0
VERTEX
8
16_BETON_FIN
10
415.600000
20
528.500000
30
0.0
0
SEQEND
8
16_BETON_FIN
0
POLYLINE
8
03_BETON_CACHE
66
1
10
0.0
20
0.0
30
0.0
70
1
0
VERTEX
8
03_BETON_CACHE
10
420.600000
20
348.500000
30
0.0
0
VERTEX
8
03_BETON_CACHE
10
460.600000
20
348.500000
30
0.0
0
VERTEX
8
03_BETON_CACHE
10
460.600000
20
528.500000
30
0.0
0
VERTEX
8
03_BETON_CACHE
10
420.600000
20
528.500000
30
0.0
0
SEQEND
8
03_BETON_CACHE
0
LINE
8
08_ACIER_LONG
10
416.400000
20
349.300000
30
0.0
11
464.800000
21
349.300000
31
0.0
0
LINE
8
08_ACIER_LONG
10
416.400000
20
352.300000
30
0.0
11
464.800000
21
352.300000
31
0.0
0
LINE
8
08_ACIER_LONG
10
416.400000
20
355.300000
30
0.0
11
464.800000
21
355.300000
31
0.0
0
LINE
8
08_ACIER_LONG
10
416.400000
20
358.300000
30
0.0
11
464.800000
21
358.300000
31
0.0
0
LINE
8
08_ACIER_LONG
10
416.400000
20
361.300000
30
0.0
11
464.800000
21
361.300000
31
0.0
0
LINE
8
08_ACIER_LONG
10
416.400000
20
364.300000
30
0.0
11
464.800000
21
364.300000
31
0.0
0
LINE
8
08_ACIER_LONG
10
416.400000
20
367.300000
30
0.0
11
464.800000
21
367.300000
31
0.0
0
LINE
8
08_ACIER_LONG
10
416.400000
20
370.300000
30
0.0
11
464.800000
21
370.300000
31
0.0
0
LINE
8
08_ACIER_LONG
10
416.400000
20
373.300000
30
0.0
11
464.800000
21
373.300000
31
0.0
0
LINE
8
08_ACIER_LONG
10
416.400000
20
376.300000
30
0.0
11
464.800000
21
376.300000
31
0.0
0
LINE
8
08_ACIER_LONG
10
416.400000
20
379.300000
30
0.0
11
464.800000
21
379.300000
31
0.0
0
LINE
8
08_ACIER_LONG
10
416.400000
20
382.300000
30
0.0
11
464.800000
21
382.300000
31
0.0
0
LINE
8
08_ACIER_LONG
10
416.400000
20
385.300000
30
0.0
11
464.800000
21
385.300000
31
0.0
0
LINE
8
08_ACIER_LONG
10
416.400000
20
388.300000
30
0.0
11
464.800000
21
388.300000
31
0.0
0
LINE
8
08_ACIER_LONG
10
416.400000
20
391.300000
30
0.0
11
464.800000
21
391.300000
31
0.0
0
LINE
8
08_ACIER_LONG
10
416.400000
20
394.300000
30
0.0
11
464.800000
21
394.300000
31
0.0
0
LINE
8
08_ACIER_LONG
10
416.400000
20
397.300000
30
0.0
11
464.800000
21
397.300000
31
0.0
0
LINE
8
08_ACIER_LONG
10
416.400000
20
400.300000
30
0.0
11
464.800000
21
400.300000
31
0.0
0
LINE
8
08_ACIER_LONG
10
416.400000
20
403.300000
30
0.0
11
464.800000
21
403.300000
31
0.0
0
LINE
8
08_ACIER_LONG
10
416.400000
20
406.300000
30
0.0
11
464.800000
21
406.300000
31
0.0
0
LINE
8
08_ACIER_LONG
10
416.400000
20
409.300000
30
0.0
11
464.800000
21
409.300000
31
0.0
0
LINE
8
08_ACIER_LONG
10
416.400000
20
412.300000
30
0.0
11
464.800000
21
412.300000
31
0.0
0
LINE
8
08_ACIER_LONG
10
416.400000
20
415.300000
30
0.0
11
464.800000
21
415.300000
31
0.0
0
LINE
8
08_ACIER_LONG
10
416.400000
20
418.300000
30
0.0
11
464.800000
21
418.300000
31
0.0
0
LINE
8
08_ACIER_LONG
10
416.400000
20
421.300000
30
0.0
11
464.800000
21
421.300000
31
0.0
0
LINE
8
08_ACIER_LONG
10
416.400000
20
424.300000
30
0.0
11
464.800000
21
424.300000
31
0.0
0
LINE
8
08_ACIER_LONG
10
416.400000
20
427.300000
30
0.0
11
464.800000
21
427.300000
31
0.0
0
LINE
8
08_ACIER_LONG
10
416.400000
20
430.300000
30
0.0
11
464.800000
21
430.300000
31
0.0
0
LINE
8
08_ACIER_LONG
10
416.400000
20
433.300000
30
0.0
11
464.800000
21
433.300000
31
0.0
0
LINE
8
08_ACIER_LONG
10
416.400000
20
436.300000
30
0.0
11
464.800000
21
436.300000
31
0.0
0
LINE
8
08_ACIER_LONG
10
416.400000
20
439.300000
30
0.0
11
464.800000
21
439.300000
31
0.0
0
LINE
8
08_ACIER_LONG
10
416.400000
20
442.300000
30
0.0
11
464.800000
21
442.300000
31
0.0
0
LINE
8
08_ACIER_LONG
10
416.400000
20
445.300000
30
0.0
11
464.800000
21
445.300000
31
0.0
0
LINE
8
08_ACIER_LONG
10
416.400000
20
448.300000
30
0.0
11
464.800000
21
448.300000
31
0.0
0
LINE
8
08_ACIER_LONG
10
416.400000
20
451.300000
30
0.0
11
464.800000
21
451.300000
31
0.0
0
LINE
8
08_ACIER_LONG
10
416.400000
20
454.300000
30
0.0
11
464.800000
21
454.300000
31
0.0
0
LINE
8
08_ACIER_LONG
10
416.400000
20
457.300000
30
0.0
11
464.800000
21
457.300000
31
0.0
0
LINE
8
08_ACIER_LONG
10
416.400000
20
460.300000
30
0.0
11
464.800000
21
460.300000
31
0.0
0
LINE
8
08_ACIER_LONG
10
416.400000
20
463.300000
30
0.0
11
464.800000
21
463.300000
31
0.0
0
LINE
8
08_ACIER_LONG
10
416.400000
20
466.300000
30
0.0
11
464.800000
21
466.300000
31
0.0
0
LINE
8
08_ACIER_LONG
10
416.400000
20
469.300000
30
0.0
11
464.800000
21
469.300000
31
0.0
0
LINE
8
08_ACIER_LONG
10
416.400000
20
472.300000
30
0.0
11
464.800000
21
472.300000
31
0.0
0
LINE
8
08_ACIER_LONG
10
416.400000
20
475.300000
30
0.0
11
464.800000
21
475.300000
31
0.0
0
LINE
8
08_ACIER_LONG
10
416.400000
20
478.300000
30
0.0
11
464.800000
21
478.300000
31
0.0
0
LINE
8
08_ACIER_LONG
10
416.400000
20
481.300000
30
0.0
11
464.800000
21
481.300000
31
0.0
0
LINE
8
08_ACIER_LONG
10
416.400000
20
484.300000
30
0.0
11
464.800000
21
484.300000
31
0.0
0
LINE
8
08_ACIER_LONG
10
416.400000
20
487.300000
30
0.0
11
464.800000
21
487.300000
31
0.0
0
LINE
8
08_ACIER_LONG
10
416.400000
20
490.300000
30
0.0
11
464.800000
21
490.300000
31
0.0
0
LINE
8
08_ACIER_LONG
10
416.400000
20
493.300000
30
0.0
11
464.800000
21
493.300000
31
0.0
0
LINE
8
08_ACIER_LONG
10
416.400000
20
496.300000
30
0.0
11
464.800000
21
496.300000
31
0.0
0
LINE
8
08_ACIER_LONG
10
416.400000
20
499.300000
30
0.0
11
464.800000
21
499.300000
31
0.0
0
LINE
8
08_ACIER_LONG
10
416.400000
20
502.300000
30
0.0
11
464.800000
21
502.300000
31
0.0
0
LINE
8
08_ACIER_LONG
10
416.400000
20
505.300000
30
0.0
11
464.800000
21
505.300000
31
0.0
0
LINE
8
08_ACIER_LONG
10
416.400000
20
508.300000
30
0.0
11
464.800000
21
508.300000
31
0.0
0
LINE
8
08_ACIER_LONG
10
416.400000
20
511.300000
30
0.0
11
464.800000
21
511.300000
31
0.0
0
LINE
8
08_ACIER_LONG
10
416.400000
20
514.300000
30
0.0
11
464.800000
21
514.300000
31
0.0
0
LINE
8
08_ACIER_LONG
10
416.400000
20
517.300000
30
0.0
11
464.800000
21
517.300000
31
0.0
0
LINE
8
08_ACIER_LONG
10
416.400000
20
520.300000
30
0.0
11
464.800000
21
520.300000
31
0.0
0
LINE
8
08_ACIER_LONG
10
416.400000
20
523.300000
30
0.0
11
464.800000
21
523.300000
31
0.0
0
LINE
8
08_ACIER_LONG
10
416.400000
20
526.300000
30
0.0
11
464.800000
21
526.300000
31
0.0
0
LINE
8
08_ACIER_LONG
10
416.400000
20
349.300000
30
0.0
11
416.400000
21
527.700000
31
0.0
0
LINE
8
08_ACIER_LONG
10
420.400000
20
349.300000
30
0.0
11
420.400000
21
527.700000
31
0.0
0
LINE
8
08_ACIER_LONG
10
424.400000
20
349.300000
30
0.0
11
424.400000
21
527.700000
31
0.0
0
LINE
8
08_ACIER_LONG
10
428.400000
20
349.300000
30
0.0
11
428.400000
21
527.700000
31
0.0
0
LINE
8
08_ACIER_LONG
10
432.400000
20
349.300000
30
0.0
11
432.400000
21
527.700000
31
0.0
0
LINE
8
08_ACIER_LONG
10
436.400000
20
349.300000
30
0.0
11
436.400000
21
527.700000
31
0.0
0
LINE
8
08_ACIER_LONG
10
440.400000
20
349.300000
30
0.0
11
440.400000
21
527.700000
31
0.0
0
LINE
8
08_ACIER_LONG
10
444.400000
20
349.300000
30
0.0
11
444.400000
21
527.700000
31
0.0
0
LINE
8
08_ACIER_LONG
10
448.400000
20
349.300000
30
0.0
11
448.400000
21
527.700000
31
0.0
0
LINE
8
08_ACIER_LONG
10
452.400000
20
349.300000
30
0.0
11
452.400000
21
527.700000
31
0.0
0
LINE
8
08_ACIER_LONG
10
456.400000
20
349.300000
30
0.0
11
456.400000
21
527.700000
31
0.0
0
LINE
8
08_ACIER_LONG
10
460.400000
20
349.300000
30
0.0
11
460.400000
21
527.700000
31
0.0
0
LINE
8
08_ACIER_LONG
10
464.400000
20
349.300000
30
0.0
11
464.400000
21
527.700000
31
0.0
0
LINE
8
10_COTATION
10
415.600000
20
347.500000
30
0.0
11
415.600000
21
333.000000
31
0.0
0
LINE
8
10_COTATION
10
465.600000
20
347.500000
30
0.0
11
465.600000
21
333.000000
31
0.0
0
LINE
8
10_COTATION
10
415.600000
20
334.500000
30
0.0
11
465.600000
21
334.500000
31
0.0
0
LINE
8
10_COTATION
10
414.716117
20
333.616117
30
0.0
11
416.483883
21
335.383883
31
0.0
0
LINE
8
10_COTATION
10
464.716117
20
333.616117
30
0.0
11
466.483883
21
335.383883
31
0.0
0
TEXT
8
10_COTATION
10
440.600000
20
335.300000
30
0.0
40
2.000000
1
2.50
41
0.850000
7
STANDARD
72
1
11
440.600000
21
335.300000
31
0.0
73
1
0
LINE
8
10_COTATION
10
466.600000
20
348.500000
30
0.0
11
481.100000
21
348.500000
31
0.0
0
LINE
8
10_COTATION
10
466.600000
20
528.500000
30
0.0
11
481.100000
21
528.500000
31
0.0
0
LINE
8
10_COTATION
10
479.600000
20
348.500000
30
0.0
11
479.600000
21
528.500000
31
0.0
0
LINE
8
10_COTATION
10
478.716117
20
347.616117
30
0.0
11
480.483883
21
349.383883
31
0.0
0
LINE
8
10_COTATION
10
478.716117
20
527.616117
30
0.0
11
480.483883
21
529.383883
31
0.0
0
TEXT
8
10_COTATION
10
478.800000
20
438.500000
30
0.0
40
2.000000
1
9.00
50
90.000000
41
0.850000
7
STANDARD
72
1
11
478.800000
21
438.500000
31
0.0
73
3
0
LINE
8
11_TEXTE
10
452.600000
20
516.500000
30
0.0
11
505.600000
21
536.500000
31
0.0
0
LINE
8
11_TEXTE
10
505.600000
20
536.500000
30
0.0
11
509.600000
21
536.500000
31
0.0
0
SOLID
8
11_TEXTE
10
452.600000
20
516.500000
30
0.0
11
455.097880
21
516.961622
31
0.0
12
454.780129
22
517.803664
32
0.0
13
454.780129
23
517.803664
33
0.0
0
TEXT
8
11_TEXTE
10
510.600000
20
536.500000
30
0.0
40
2.500000
1
2 - 61 HA12 e=15
41
0.850000
7
STANDARD
72
0
11
510.600000
21
536.500000
31
0.0
73
2
0
LINE
8
11_TEXTE
10
428.600000
20
372.500000
30
0.0
11
375.600000
21
356.500000
31
0.0
0
LINE
8
11_TEXTE
10
375.600000
20
356.500000
30
0.0
11
371.600000
21
356.500000
31
0.0
0
SOLID
8
11_TEXTE
10
428.600000
20
372.500000
30
0.0
11
426.076629
21
372.208286
31
0.0
12
426.336733
22
371.346691
32
0.0
13
426.336733
23
371.346691
33
0.0
0
TEXT
8
11_TEXTE
10
370.600000
20
356.500000
30
0.0
40
2.500000
1
6 - HA8 e=20
41
0.850000
7
STANDARD
72
2
11
370.600000
21
356.500000
31
0.0
73
2
0
TEXT
8
11_TEXTE
10
440.600000
20
438.500000
30
0.0
40
2.200000
1
LIT SUPERIEUR
50
90.000000
41
0.850000
7
STANDARD
72
1
11
440.600000
21
438.500000
31
0.0
73
2
0
POLYLINE
8
02_BETON
66
1
10
0.0
20
0.0
30
0.0
70
1
0
VERTEX
8
02_BETON
10
78.000000
20
156.000000
30
0.0
0
VERTEX
8
02_BETON
10
158.000000
20
156.000000
30
0.0
0
VERTEX
8
02_BETON
10
158.000000
20
170.000000
30
0.0
0
VERTEX
8
02_BETON
10
78.000000
20
170.000000
30
0.0
0
SEQEND
8
02_BETON
0
POLYLINE
8
02_BETON
66
1
10
0.0
20
0.0
30
0.0
70
1
0
VERTEX
8
02_BETON
10
94.000000
20
170.000000
30
0.0
0
VERTEX
8
02_BETON
10
110.000000
20
170.000000
30
0.0
0
VERTEX
8
02_BETON
10
110.000000
20
288.000000
30
0.0
0
VERTEX
8
02_BETON
10
100.000000
20
288.000000
30
0.0
0
SEQEND
8
02_BETON
0
LINE
8
04_HACHURES
10
156.444365
20
156.000000
30
0.0
11
158.000000
21
157.555635
31
0.0
0
LINE
8
04_HACHURES
10
153.333095
20
156.000000
30
0.0
11
158.000000
21
160.666905
31
0.0
0
LINE
8
04_HACHURES
10
150.221825
20
156.000000
30
0.0
11
158.000000
21
163.778175
31
0.0
0
LINE
8
04_HACHURES
10
147.110556
20
156.000000
30
0.0
11
158.000000
21
166.889444
31
0.0
0
LINE
8
04_HACHURES
10
143.999286
20
156.000000
30
0.0
11
157.999286
21
170.000000
31
0.0
0
LINE
8
04_HACHURES
10
140.888016
20
156.000000
30
0.0
11
154.888016
21
170.000000
31
0.0
0
LINE
8
04_HACHURES
10
137.776746
20
156.000000
30
0.0
11
151.776746
21
170.000000
31
0.0
0
LINE
8
04_HACHURES
10
134.665476
20
156.000000
30
0.0
11
148.665476
21
170.000000
31
0.0
0
LINE
8
04_HACHURES
10
131.554206
20
156.000000
30
0.0
11
145.554206
21
170.000000
31
0.0
0
LINE
8
04_HACHURES
10
128.442937
20
156.000000
30
0.0
11
142.442937
21
170.000000
31
0.0
0
LINE
8
04_HACHURES
10
125.331667
20
156.000000
30
0.0
11
139.331667
21
170.000000
31
0.0
0
LINE
8
04_HACHURES
10
122.220397
20
156.000000
30
0.0
11
136.220397
21
170.000000
31
0.0
0
LINE
8
04_HACHURES
10
119.109127
20
156.000000
30
0.0
11
133.109127
21
170.000000
31
0.0
0
LINE
8
04_HACHURES
10
115.997857
20
156.000000
30
0.0
11
129.997857
21
170.000000
31
0.0
0
LINE
8
04_HACHURES
10
112.886587
20
156.000000
30
0.0
11
126.886587
21
170.000000
31
0.0
0
LINE
8
04_HACHURES
10
109.775318
20
156.000000
30
0.0
11
123.775318
21
170.000000
31
0.0
0
LINE
8
04_HACHURES
10
106.664048
20
156.000000
30
0.0
11
120.664048
21
170.000000
31
0.0
0
LINE
8
04_HACHURES
10
103.552778
20
156.000000
30
0.0
11
117.552778
21
170.000000
31
0.0
0
LINE
8
04_HACHURES
10
100.441508
20
156.000000
30
0.0
11
114.441508
21
170.000000
31
0.0
0
LINE
8
04_HACHURES
10
97.330238
20
156.000000
30
0.0
11
111.330238
21
170.000000
31
0.0
0
LINE
8
04_HACHURES
10
94.218968
20
156.000000
30
0.0
11
108.218968
21
170.000000
31
0.0
0
LINE
8
04_HACHURES
10
91.107698
20
156.000000
30
0.0
11
105.107698
21
170.000000
31
0.0
0
LINE
8
04_HACHURES
10
87.996429
20
156.000000
30
0.0
11
101.996429
21
170.000000
31
0.0
0
LINE
8
04_HACHURES
10
84.885159
20
156.000000
30
0.0
11
98.885159
21
170.000000
31
0.0
0
LINE
8
04_HACHURES
10
81.773889
20
156.000000
30
0.0
11
95.773889
21
170.000000
31
0.0
0
LINE
8
04_HACHURES
10
78.662619
20
156.000000
30
0.0
11
92.662619
21
170.000000
31
0.0
0
LINE
8
04_HACHURES
10
78.000000
20
158.448651
30
0.0
11
89.551349
21
170.000000
31
0.0
0
LINE
8
04_HACHURES
10
78.000000
20
161.559921
30
0.0
11
86.440079
21
170.000000
31
0.0
0
LINE
8
04_HACHURES
10
78.000000
20
164.671190
30
0.0
11
83.328810
21
170.000000
31
0.0
0
LINE
8
04_HACHURES
10
78.000000
20
167.782460
30
0.0
11
80.217540
21
170.000000
31
0.0
0
LINE
8
04_HACHURES
10
108.444365
20
170.000000
30
0.0
11
110.000000
21
171.555635
31
0.0
0
LINE
8
04_HACHURES
10
105.333095
20
170.000000
30
0.0
11
110.000000
21
174.666905
31
0.0
0
LINE
8
04_HACHURES
10
102.221825
20
170.000000
30
0.0
11
110.000000
21
177.778175
31
0.0
0
LINE
8
04_HACHURES
10
99.110556
20
170.000000
30
0.0
11
110.000000
21
180.889444
31
0.0
0
LINE
8
04_HACHURES
10
95.999286
20
170.000000
30
0.0
11
110.000000
21
184.000714
31
0.0
0
LINE
8
04_HACHURES
10
94.059571
20
171.171555
30
0.0
11
110.000000
21
187.111984
31
0.0
0
LINE
8
04_HACHURES
10
94.226246
20
174.449500
30
0.0
11
110.000000
21
190.223254
31
0.0
0
LINE
8
04_HACHURES
10
94.392921
20
177.727445
30
0.0
11
110.000000
21
193.334524
31
0.0
0
LINE
8
04_HACHURES
10
94.559596
20
181.005390
30
0.0
11
110.000000
21
196.445794
31
0.0
0
LINE
8
04_HACHURES
10
94.726271
20
184.283335
30
0.0
11
110.000000
21
199.557063
31
0.0
0
LINE
8
04_HACHURES
10
94.892946
20
187.561280
30
0.0
11
110.000000
21
202.668333
31
0.0
0
LINE
8
04_HACHURES
10
95.059622
20
190.839225
30
0.0
11
110.000000
21
205.779603
31
0.0
0
LINE
8
04_HACHURES
10
95.226297
20
194.117170
30
0.0
11
110.000000
21
208.890873
31
0.0
0
LINE
8
04_HACHURES
10
95.392972
20
197.395115
30
0.0
11
110.000000
21
212.002143
31
0.0
0
LINE
8
04_HACHURES
10
95.559647
20
200.673060
30
0.0
11
110.000000
21
215.113413
31
0.0
0
LINE
8
04_HACHURES
10
95.726322
20
203.951005
30
0.0
11
110.000000
21
218.224682
31
0.0
0
LINE
8
04_HACHURES
10
95.892997
20
207.228950
30
0.0
11
110.000000
21
221.335952
31
0.0
0
LINE
8
04_HACHURES
10
96.059673
20
210.506895
30
0.0
11
110.000000
21
224.447222
31
0.0
0
LINE
8
04_HACHURES
10
96.226348
20
213.784840
30
0.0
11
110.000000
21
227.558492
31
0.0
0
LINE
8
04_HACHURES
10
96.393023
20
217.062785
30
0.0
11
110.000000
21
230.669762
31
0.0
0
LINE
8
04_HACHURES
10
96.559698
20
220.340730
30
0.0
11
110.000000
21
233.781032
31
0.0
0
LINE
8
04_HACHURES
10
96.726373
20
223.618675
30
0.0
11
110.000000
21
236.892302
31
0.0
0
LINE
8
04_HACHURES
10
96.893048
20
226.896620
30
0.0
11
110.000000
21
240.003571
31
0.0
0
LINE
8
04_HACHURES
10
97.059724
20
230.174565
30
0.0
11
110.000000
21
243.114841
31
0.0
0
LINE
8
04_HACHURES
10
97.226399
20
233.452510
30
0.0
11
110.000000
21
246.226111
31
0.0
0
LINE
8
04_HACHURES
10
97.393074
20
236.730455
30
0.0
11
110.000000
21
249.337381
31
0.0
0
LINE
8
04_HACHURES
10
97.559749
20
240.008400
30
0.0
11
110.000000
21
252.448651
31
0.0
0
LINE
8
04_HACHURES
10
97.726424
20
243.286345
30
0.0
11
110.000000
21
255.559921
31
0.0
0
LINE
8
04_HACHURES
10
97.893099
20
246.564290
30
0.0
11
110.000000
21
258.671190
31
0.0
0
LINE
8
04_HACHURES
10
98.059775
20
249.842235
30
0.0
11
110.000000
21
261.782460
31
0.0
0
LINE
8
04_HACHURES
10
98.226450
20
253.120180
30
0.0
11
110.000000
21
264.893730
31
0.0
0
LINE
8
04_HACHURES
10
98.393125
20
256.398125
30
0.0
11
110.000000
21
268.005000
31
0.0
0
LINE
8
04_HACHURES
10
98.559800
20
259.676070
30
0.0
11
110.000000
21
271.116270
31
0.0
0
LINE
8
04_HACHURES
10
98.726475
20
262.954015
30
0.0
11
110.000000
21
274.227540
31
0.0
0
LINE
8
04_HACHURES
10
98.893151
20
266.231960
30
0.0
11
110.000000
21
277.338809
31
0.0
0
LINE
8
04_HACHURES
10
99.059826
20
269.509905
30
0.0
11
110.000000
21
280.450079
31
0.0
0
LINE
8
04_HACHURES
10
99.226501
20
272.787850
30
0.0
11
110.000000
21
283.561349
31
0.0
0
LINE
8
04_HACHURES
10
99.393176
20
276.065795
30
0.0
11
110.000000
21
286.672619
31
0.0
0
LINE
8
04_HACHURES
10
99.559851
20
279.343740
30
0.0
11
108.216111
21
288.000000
31
0.0
0
LINE
8
04_HACHURES
10
99.726526
20
282.621685
30
0.0
11
105.104841
21
288.000000
31
0.0
0
LINE
8
04_HACHURES
10
99.893202
20
285.899630
30
0.0
11
101.993572
21
288.000000
31
0.0
0
POLYLINE
8
05_TERRAIN
66
1
10
0.0
20
0.0
30
0.0
70
0
0
VERTEX
8
05_TERRAIN
10
26.000000
20
194.000000
30
0.0
0
VERTEX
8
05_TERRAIN
10
93.200000
20
194.000000
30
0.0
0
SEQEND
8
05_TERRAIN
0
LINE
8
05_TERRAIN
10
28.100000
20
194.000000
30
0.0
11
26.500000
21
192.400000
31
0.0
0
LINE
8
05_TERRAIN
10
32.300000
20
194.000000
30
0.0
11
30.700000
21
192.400000
31
0.0
0
LINE
8
05_TERRAIN
10
36.500000
20
194.000000
30
0.0
11
34.900000
21
192.400000
31
0.0
0
LINE
8
05_TERRAIN
10
40.700000
20
194.000000
30
0.0
11
39.100000
21
192.400000
31
0.0
0
LINE
8
05_TERRAIN
10
44.900000
20
194.000000
30
0.0
11
43.300000
21
192.400000
31
0.0
0
LINE
8
05_TERRAIN
10
49.100000
20
194.000000
30
0.0
11
47.500000
21
192.400000
31
0.0
0
LINE
8
05_TERRAIN
10
53.300000
20
194.000000
30
0.0
11
51.700000
21
192.400000
31
0.0
0
LINE
8
05_TERRAIN
10
57.500000
20
194.000000
30
0.0
11
55.900000
21
192.400000
31
0.0
0
LINE
8
05_TERRAIN
10
61.700000
20
194.000000
30
0.0
11
60.100000
21
192.400000
31
0.0
0
LINE
8
05_TERRAIN
10
65.900000
20
194.000000
30
0.0
11
64.300000
21
192.400000
31
0.0
0
LINE
8
05_TERRAIN
10
70.100000
20
194.000000
30
0.0
11
68.500000
21
192.400000
31
0.0
0
LINE
8
05_TERRAIN
10
74.300000
20
194.000000
30
0.0
11
72.700000
21
192.400000
31
0.0
0
LINE
8
05_TERRAIN
10
78.500000
20
194.000000
30
0.0
11
76.900000
21
192.400000
31
0.0
0
LINE
8
05_TERRAIN
10
82.700000
20
194.000000
30
0.0
11
81.100000
21
192.400000
31
0.0
0
LINE
8
05_TERRAIN
10
86.900000
20
194.000000
30
0.0
11
85.300000
21
192.400000
31
0.0
0
LINE
8
05_TERRAIN
10
91.100000
20
194.000000
30
0.0
11
89.500000
21
192.400000
31
0.0
0
LINE
8
06_REMBLAI
10
209.757359
20
170.000000
30
0.0
11
214.000000
21
174.242641
31
0.0
0
LINE
8
06_REMBLAI
10
201.272078
20
170.000000
30
0.0
11
214.000000
21
182.727922
31
0.0
0
LINE
8
06_REMBLAI
10
192.786797
20
170.000000
30
0.0
11
214.000000
21
191.213203
31
0.0
0
LINE
8
06_REMBLAI
10
184.301515
20
170.000000
30
0.0
11
214.000000
21
199.698485
31
0.0
0
LINE
8
06_REMBLAI
10
175.816234
20
170.000000
30
0.0
11
214.000000
21
208.183766
31
0.0
0
LINE
8
06_REMBLAI
10
167.330952
20
170.000000
30
0.0
11
214.000000
21
216.669048
31
0.0
0
LINE
8
06_REMBLAI
10
158.845671
20
170.000000
30
0.0
11
214.000000
21
225.154329
31
0.0
0
LINE
8
06_REMBLAI
10
150.360390
20
170.000000
30
0.0
11
214.000000
21
233.639610
31
0.0
0
LINE
8
06_REMBLAI
10
141.875108
20
170.000000
30
0.0
11
214.000000
21
242.124892
31
0.0
0
LINE
8
06_REMBLAI
10
133.389827
20
170.000000
30
0.0
11
214.000000
21
250.610173
31
0.0
0
LINE
8
06_REMBLAI
10
124.904546
20
170.000000
30
0.0
11
214.000000
21
259.095454
31
0.0
0
LINE
8
06_REMBLAI
10
116.419264
20
170.000000
30
0.0
11
214.000000
21
267.580736
31
0.0
0
LINE
8
06_REMBLAI
10
110.000000
20
172.066017
30
0.0
11
214.000000
21
276.066017
31
0.0
0
LINE
8
06_REMBLAI
10
110.000000
20
180.551299
30
0.0
11
214.000000
21
284.551299
31
0.0
0
LINE
8
06_REMBLAI
10
110.000000
20
189.036580
30
0.0
11
208.963420
21
288.000000
31
0.0
0
LINE
8
06_REMBLAI
10
110.000000
20
197.521861
30
0.0
11
200.478139
21
288.000000
31
0.0
0
LINE
8
06_REMBLAI
10
110.000000
20
206.007143
30
0.0
11
191.992857
21
288.000000
31
0.0
0
LINE
8
06_REMBLAI
10
110.000000
20
214.492424
30
0.0
11
183.507576
21
288.000000
31
0.0
0
LINE
8
06_REMBLAI
10
110.000000
20
222.977705
30
0.0
11
175.022295
21
288.000000
31
0.0
0
LINE
8
06_REMBLAI
10
110.000000
20
231.462987
30
0.0
11
166.537013
21
288.000000
31
0.0
0
LINE
8
06_REMBLAI
10
110.000000
20
239.948268
30
0.0
11
158.051732
21
288.000000
31
0.0
0
LINE
8
06_REMBLAI
10
110.000000
20
248.433550
30
0.0
11
149.566450
21
288.000000
31
0.0
0
LINE
8
06_REMBLAI
10
110.000000
20
256.918831
30
0.0
11
141.081169
21
288.000000
31
0.0
0
LINE
8
06_REMBLAI
10
110.000000
20
265.404112
30
0.0
11
132.595888
21
288.000000
31
0.0
0
LINE
8
06_REMBLAI
10
110.000000
20
273.889394
30
0.0
11
124.110606
21
288.000000
31
0.0
0
LINE
8
06_REMBLAI
10
110.000000
20
282.374675
30
0.0
11
115.625325
21
288.000000
31
0.0
0
LINE
8
06_REMBLAI
10
214.000000
20
283.757359
30
0.0
11
209.757359
21
288.000000
31
0.0
0
LINE
8
06_REMBLAI
10
214.000000
20
275.272078
30
0.0
11
201.272078
21
288.000000
31
0.0
0
LINE
8
06_REMBLAI
10
214.000000
20
266.786797
30
0.0
11
192.786797
21
288.000000
31
0.0
0
LINE
8
06_REMBLAI
10
214.000000
20
258.301515
30
0.0
11
184.301515
21
288.000000
31
0.0
0
LINE
8
06_REMBLAI
10
214.000000
20
249.816234
30
0.0
11
175.816234
21
288.000000
31
0.0
0
LINE
8
06_REMBLAI
10
214.000000
20
241.330952
30
0.0
11
167.330952
21
288.000000
31
0.0
0
LINE
8
06_REMBLAI
10
214.000000
20
232.845671
30
0.0
11
158.845671
21
288.000000
31
0.0
0
LINE
8
06_REMBLAI
10
214.000000
20
224.360390
30
0.0
11
150.360390
21
288.000000
31
0.0
0
LINE
8
06_REMBLAI
10
214.000000
20
215.875108
30
0.0
11
141.875108
21
288.000000
31
0.0
0
LINE
8
06_REMBLAI
10
214.000000
20
207.389827
30
0.0
11
133.389827
21
288.000000
31
0.0
0
LINE
8
06_REMBLAI
10
214.000000
20
198.904546
30
0.0
11
124.904546
21
288.000000
31
0.0
0
LINE
8
06_REMBLAI
10
214.000000
20
190.419264
30
0.0
11
116.419264
21
288.000000
31
0.0
0
LINE
8
06_REMBLAI
10
214.000000
20
181.933983
30
0.0
11
110.000000
21
285.933983
31
0.0
0
LINE
8
06_REMBLAI
10
214.000000
20
173.448701
30
0.0
11
110.000000
21
277.448701
31
0.0
0
LINE
8
06_REMBLAI
10
208.963420
20
170.000000
30
0.0
11
110.000000
21
268.963420
31
0.0
0
LINE
8
06_REMBLAI
10
200.478139
20
170.000000
30
0.0
11
110.000000
21
260.478139
31
0.0
0
LINE
8
06_REMBLAI
10
191.992857
20
170.000000
30
0.0
11
110.000000
21
251.992857
31
0.0
0
LINE
8
06_REMBLAI
10
183.507576
20
170.000000
30
0.0
11
110.000000
21
243.507576
31
0.0
0
LINE
8
06_REMBLAI
10
175.022295
20
170.000000
30
0.0
11
110.000000
21
235.022295
31
0.0
0
LINE
8
06_REMBLAI
10
166.537013
20
170.000000
30
0.0
11
110.000000
21
226.537013
31
0.0
0
LINE
8
06_REMBLAI
10
158.051732
20
170.000000
30
0.0
11
110.000000
21
218.051732
31
0.0
0
LINE
8
06_REMBLAI
10
149.566450
20
170.000000
30
0.0
11
110.000000
21
209.566450
31
0.0
0
LINE
8
06_REMBLAI
10
141.081169
20
170.000000
30
0.0
11
110.000000
21
201.081169
31
0.0
0
LINE
8
06_REMBLAI
10
132.595888
20
170.000000
30
0.0
11
110.000000
21
192.595888
31
0.0
0
LINE
8
06_REMBLAI
10
124.110606
20
170.000000
30
0.0
11
110.000000
21
184.110606
31
0.0
0
LINE
8
06_REMBLAI
10
115.625325
20
170.000000
30
0.0
11
110.000000
21
175.625325
31
0.0
0
POLYLINE
8
06_REMBLAI
66
1
10
0.0
20
0.0
30
0.0
70
0
0
VERTEX
8
06_REMBLAI
10
110.000000
20
288.000000
30
0.0
0
VERTEX
8
06_REMBLAI
10
214.000000
20
288.000000
30
0.0
0
SEQEND
8
06_REMBLAI
0
LINE
8
14_ENROCHEMENT
10
121.300000
20
170.000000
30
0.0
11
121.300000
21
288.000000
31
0.0
0
LINE
8
14_ENROCHEMENT
10
119.900000
20
170.000000
30
0.0
11
119.900000
21
288.000000
31
0.0
0
LINE
8
14_ENROCHEMENT
10
118.500000
20
170.000000
30
0.0
11
118.500000
21
288.000000
31
0.0
0
LINE
8
14_ENROCHEMENT
10
117.100000
20
170.000000
30
0.0
11
117.100000
21
288.000000
31
0.0
0
LINE
8
14_ENROCHEMENT
10
115.700000
20
170.000000
30
0.0
11
115.700000
21
288.000000
31
0.0
0
LINE
8
14_ENROCHEMENT
10
114.300000
20
170.000000
30
0.0
11
114.300000
21
288.000000
31
0.0
0
LINE
8
14_ENROCHEMENT
10
112.900000
20
170.000000
30
0.0
11
112.900000
21
288.000000
31
0.0
0
LINE
8
14_ENROCHEMENT
10
111.500000
20
170.000000
30
0.0
11
111.500000
21
288.000000
31
0.0
0
LINE
8
14_ENROCHEMENT
10
110.100000
20
170.000000
30
0.0
11
110.100000
21
288.000000
31
0.0
0
LINE
8
07_CHAUSSEE
10
92.000000
20
208.000000
30
0.0
11
122.800000
21
206.000000
31
0.0
0
LINE
8
07_CHAUSSEE
10
92.000000
20
204.000000
30
0.0
11
122.800000
21
202.000000
31
0.0
0
LINE
8
07_CHAUSSEE
10
92.000000
20
258.000000
30
0.0
11
122.800000
21
256.000000
31
0.0
0
LINE
8
07_CHAUSSEE
10
92.000000
20
254.000000
30
0.0
11
122.800000
21
252.000000
31
0.0
0
POLYLINE
8
08_ACIER_LONG
66
1
10
0.0
20
0.0
30
0.0
70
0
0
VERTEX
8
08_ACIER_LONG
10
156.000000
20
158.000000
30
0.0
0
VERTEX
8
08_ACIER_LONG
10
108.400000
20
158.000000
30
0.0
0
VERTEX
8
08_ACIER_LONG
10
108.400000
20
286.400000
30
0.0
0
SEQEND
8
08_ACIER_LONG
0
POLYLINE
8
08_ACIER_LONG
66
1
10
0.0
20
0.0
30
0.0
70
0
0
VERTEX
8
08_ACIER_LONG
10
96.800000
20
174.000000
30
0.0
0
VERTEX
8
08_ACIER_LONG
10
97.600000
20
270.300000
30
0.0
0
SEQEND
8
08_ACIER_LONG
0
POLYLINE
8
08_ACIER_LONG
66
1
10
0.0
20
0.0
30
0.0
70
0
0
VERTEX
8
08_ACIER_LONG
10
80.000000
20
158.000000
30
0.0
0
VERTEX
8
08_ACIER_LONG
10
80.000000
20
168.000000
30
0.0
0
VERTEX
8
08_ACIER_LONG
10
156.000000
20
168.000000
30
0.0
0
SEQEND
8
08_ACIER_LONG
0
SOLID
8
09_ACIER_COUPE
10
107.650000
20
173.250000
30
0.0
11
109.150000
21
173.250000
31
0.0
12
107.650000
22
174.750000
32
0.0
13
109.150000
23
174.750000
33
0.0
0
SOLID
8
09_ACIER_COUPE
10
107.650000
20
181.250000
30
0.0
11
109.150000
21
181.250000
31
0.0
12
107.650000
22
182.750000
32
0.0
13
109.150000
23
182.750000
33
0.0
0
SOLID
8
09_ACIER_COUPE
10
107.650000
20
189.250000
30
0.0
11
109.150000
21
189.250000
31
0.0
12
107.650000
22
190.750000
32
0.0
13
109.150000
23
190.750000
33
0.0
0
SOLID
8
09_ACIER_COUPE
10
107.650000
20
197.250000
30
0.0
11
109.150000
21
197.250000
31
0.0
12
107.650000
22
198.750000
32
0.0
13
109.150000
23
198.750000
33
0.0
0
SOLID
8
09_ACIER_COUPE
10
107.650000
20
205.250000
30
0.0
11
109.150000
21
205.250000
31
0.0
12
107.650000
22
206.750000
32
0.0
13
109.150000
23
206.750000
33
0.0
0
SOLID
8
09_ACIER_COUPE
10
107.650000
20
213.250000
30
0.0
11
109.150000
21
213.250000
31
0.0
12
107.650000
22
214.750000
32
0.0
13
109.150000
23
214.750000
33
0.0
0
SOLID
8
09_ACIER_COUPE
10
107.650000
20
221.250000
30
0.0
11
109.150000
21
221.250000
31
0.0
12
107.650000
22
222.750000
32
0.0
13
109.150000
23
222.750000
33
0.0
0
SOLID
8
09_ACIER_COUPE
10
107.650000
20
229.250000
30
0.0
11
109.150000
21
229.250000
31
0.0
12
107.650000
22
230.750000
32
0.0
13
109.150000
23
230.750000
33
0.0
0
SOLID
8
09_ACIER_COUPE
10
107.650000
20
237.250000
30
0.0
11
109.150000
21
237.250000
31
0.0
12
107.650000
22
238.750000
32
0.0
13
109.150000
23
238.750000
33
0.0
0
SOLID
8
09_ACIER_COUPE
10
107.650000
20
245.250000
30
0.0
11
109.150000
21
245.250000
31
0.0
12
107.650000
22
246.750000
32
0.0
13
109.150000
23
246.750000
33
0.0
0
SOLID
8
09_ACIER_COUPE
10
107.650000
20
253.250000
30
0.0
11
109.150000
21
253.250000
31
0.0
12
107.650000
22
254.750000
32
0.0
13
109.150000
23
254.750000
33
0.0
0
SOLID
8
09_ACIER_COUPE
10
107.650000
20
261.250000
30
0.0
11
109.150000
21
261.250000
31
0.0
12
107.650000
22
262.750000
32
0.0
13
109.150000
23
262.750000
33
0.0
0
SOLID
8
09_ACIER_COUPE
10
107.650000
20
269.250000
30
0.0
11
109.150000
21
269.250000
31
0.0
12
107.650000
22
270.750000
32
0.0
13
109.150000
23
270.750000
33
0.0
0
SOLID
8
09_ACIER_COUPE
10
107.650000
20
277.250000
30
0.0
11
109.150000
21
277.250000
31
0.0
12
107.650000
22
278.750000
32
0.0
13
109.150000
23
278.750000
33
0.0
0
SOLID
8
09_ACIER_COUPE
10
96.050000
20
173.250000
30
0.0
11
97.550000
21
173.250000
31
0.0
12
96.050000
22
174.750000
32
0.0
13
97.550000
23
174.750000
33
0.0
0
SOLID
8
09_ACIER_COUPE
10
96.050000
20
181.250000
30
0.0
11
97.550000
21
181.250000
31
0.0
12
96.050000
22
182.750000
32
0.0
13
97.550000
23
182.750000
33
0.0
0
SOLID
8
09_ACIER_COUPE
10
96.050000
20
189.250000
30
0.0
11
97.550000
21
189.250000
31
0.0
12
96.050000
22
190.750000
32
0.0
13
97.550000
23
190.750000
33
0.0
0
SOLID
8
09_ACIER_COUPE
10
96.050000
20
197.250000
30
0.0
11
97.550000
21
197.250000
31
0.0
12
96.050000
22
198.750000
32
0.0
13
97.550000
23
198.750000
33
0.0
0
SOLID
8
09_ACIER_COUPE
10
96.050000
20
205.250000
30
0.0
11
97.550000
21
205.250000
31
0.0
12
96.050000
22
206.750000
32
0.0
13
97.550000
23
206.750000
33
0.0
0
SOLID
8
09_ACIER_COUPE
10
96.050000
20
213.250000
30
0.0
11
97.550000
21
213.250000
31
0.0
12
96.050000
22
214.750000
32
0.0
13
97.550000
23
214.750000
33
0.0
0
SOLID
8
09_ACIER_COUPE
10
96.050000
20
221.250000
30
0.0
11
97.550000
21
221.250000
31
0.0
12
96.050000
22
222.750000
32
0.0
13
97.550000
23
222.750000
33
0.0
0
SOLID
8
09_ACIER_COUPE
10
96.050000
20
229.250000
30
0.0
11
97.550000
21
229.250000
31
0.0
12
96.050000
22
230.750000
32
0.0
13
97.550000
23
230.750000
33
0.0
0
SOLID
8
09_ACIER_COUPE
10
96.050000
20
237.250000
30
0.0
11
97.550000
21
237.250000
31
0.0
12
96.050000
22
238.750000
32
0.0
13
97.550000
23
238.750000
33
0.0
0
SOLID
8
09_ACIER_COUPE
10
96.050000
20
245.250000
30
0.0
11
97.550000
21
245.250000
31
0.0
12
96.050000
22
246.750000
32
0.0
13
97.550000
23
246.750000
33
0.0
0
SOLID
8
09_ACIER_COUPE
10
96.050000
20
253.250000
30
0.0
11
97.550000
21
253.250000
31
0.0
12
96.050000
22
254.750000
32
0.0
13
97.550000
23
254.750000
33
0.0
0
SOLID
8
09_ACIER_COUPE
10
96.050000
20
261.250000
30
0.0
11
97.550000
21
261.250000
31
0.0
12
96.050000
22
262.750000
32
0.0
13
97.550000
23
262.750000
33
0.0
0
LINE
8
10_COTATION
10
78.000000
20
155.000000
30
0.0
11
78.000000
21
136.500000
31
0.0
0
LINE
8
10_COTATION
10
94.000000
20
155.000000
30
0.0
11
94.000000
21
136.500000
31
0.0
0
LINE
8
10_COTATION
10
78.000000
20
138.000000
30
0.0
11
94.000000
21
138.000000
31
0.0
0
LINE
8
10_COTATION
10
77.116117
20
137.116117
30
0.0
11
78.883883
21
138.883883
31
0.0
0
LINE
8
10_COTATION
10
93.116117
20
137.116117
30
0.0
11
94.883883
21
138.883883
31
0.0
0
TEXT
8
10_COTATION
10
86.000000
20
138.800000
30
0.0
40
2.000000
1
0.40
41
0.850000
7
STANDARD
72
1
11
86.000000
21
138.800000
31
0.0
73
1
0
LINE
8
10_COTATION
10
94.000000
20
155.000000
30
0.0
11
94.000000
21
136.500000
31
0.0
0
LINE
8
10_COTATION
10
110.000000
20
155.000000
30
0.0
11
110.000000
21
136.500000
31
0.0
0
LINE
8
10_COTATION
10
94.000000
20
138.000000
30
0.0
11
110.000000
21
138.000000
31
0.0
0
LINE
8
10_COTATION
10
93.116117
20
137.116117
30
0.0
11
94.883883
21
138.883883
31
0.0
0
LINE
8
10_COTATION
10
109.116117
20
137.116117
30
0.0
11
110.883883
21
138.883883
31
0.0
0
TEXT
8
10_COTATION
10
102.000000
20
138.800000
30
0.0
40
2.000000
1
0.40
41
0.850000
7
STANDARD
72
1
11
102.000000
21
138.800000
31
0.0
73
1
0
LINE
8
10_COTATION
10
110.000000
20
155.000000
30
0.0
11
110.000000
21
136.500000
31
0.0
0
LINE
8
10_COTATION
10
158.000000
20
155.000000
30
0.0
11
158.000000
21
136.500000
31
0.0
0
LINE
8
10_COTATION
10
110.000000
20
138.000000
30
0.0
11
158.000000
21
138.000000
31
0.0
0
LINE
8
10_COTATION
10
109.116117
20
137.116117
30
0.0
11
110.883883
21
138.883883
31
0.0
0
LINE
8
10_COTATION
10
157.116117
20
137.116117
30
0.0
11
158.883883
21
138.883883
31
0.0
0
TEXT
8
10_COTATION
10
134.000000
20
138.800000
30
0.0
40
2.000000
1
1.20
41
0.850000
7
STANDARD
72
1
11
134.000000
21
138.800000
31
0.0
73
1
0
LINE
8
10_COTATION
10
78.000000
20
155.000000
30
0.0
11
78.000000
21
116.500000
31
0.0
0
LINE
8
10_COTATION
10
158.000000
20
155.000000
30
0.0
11
158.000000
21
116.500000
31
0.0
0
LINE
8
10_COTATION
10
78.000000
20
118.000000
30
0.0
11
158.000000
21
118.000000
31
0.0
0
LINE
8
10_COTATION
10
77.116117
20
117.116117
30
0.0
11
78.883883
21
118.883883
31
0.0
0
LINE
8
10_COTATION
10
157.116117
20
117.116117
30
0.0
11
158.883883
21
118.883883
31
0.0
0
TEXT
8
10_COTATION
10
118.000000
20
118.800000
30
0.0
40
2.000000
1
2.00
41
0.850000
7
STANDARD
72
1
11
118.000000
21
118.800000
31
0.0
73
1
0
LINE
8
10_COTATION
10
77.000000
20
156.000000
30
0.0
11
58.500000
21
156.000000
31
0.0
0
LINE
8
10_COTATION
10
77.000000
20
170.000000
30
0.0
11
58.500000
21
170.000000
31
0.0
0
LINE
8
10_COTATION
10
60.000000
20
156.000000
30
0.0
11
60.000000
21
170.000000
31
0.0
0
LINE
8
10_COTATION
10
59.116117
20
155.116117
30
0.0
11
60.883883
21
156.883883
31
0.0
0
LINE
8
10_COTATION
10
59.116117
20
169.116117
30
0.0
11
60.883883
21
170.883883
31
0.0
0
TEXT
8
10_COTATION
10
59.200000
20
163.000000
30
0.0
40
2.000000
1
0.35
50
90.000000
41
0.850000
7
STANDARD
72
1
11
59.200000
21
163.000000
31
0.0
73
3
0
LINE
8
10_COTATION
10
77.000000
20
170.000000
30
0.0
11
58.500000
21
170.000000
31
0.0
0
LINE
8
10_COTATION
10
77.000000
20
288.000000
30
0.0
11
58.500000
21
288.000000
31
0.0
0
LINE
8
10_COTATION
10
60.000000
20
170.000000
30
0.0
11
60.000000
21
288.000000
31
0.0
0
LINE
8
10_COTATION
10
59.116117
20
169.116117
30
0.0
11
60.883883
21
170.883883
31
0.0
0
LINE
8
10_COTATION
10
59.116117
20
287.116117
30
0.0
11
60.883883
21
288.883883
31
0.0
0
TEXT
8
10_COTATION
10
59.200000
20
229.000000
30
0.0
40
2.000000
1
2.95
50
90.000000
41
0.850000
7
STANDARD
72
1
11
59.200000
21
229.000000
31
0.0
73
3
0
LINE
8
10_COTATION
10
100.000000
20
289.000000
30
0.0
11
100.000000
21
303.500000
31
0.0
0
LINE
8
10_COTATION
10
110.000000
20
289.000000
30
0.0
11
110.000000
21
303.500000
31
0.0
0
LINE
8
10_COTATION
10
100.000000
20
302.000000
30
0.0
11
110.000000
21
302.000000
31
0.0
0
LINE
8
10_COTATION
10
99.116117
20
301.116117
30
0.0
11
100.883883
21
302.883883
31
0.0
0
LINE
8
10_COTATION
10
109.116117
20
301.116117
30
0.0
11
110.883883
21
302.883883
31
0.0
0
TEXT
8
10_COTATION
10
105.000000
20
302.800000
30
0.0
40
2.000000
1
0.25
41
0.850000
7
STANDARD
72
1
11
105.000000
21
302.800000
31
0.0
73
1
0
POLYLINE
8
10_COTATION
66
1
10
0.0
20
0.0
30
0.0
70
1
0
VERTEX
8
10_COTATION
10
32.400000
20
196.800000
30
0.0
0
VERTEX
8
10_COTATION
10
35.600000
20
196.800000
30
0.0
0
VERTEX
8
10_COTATION
10
34.000000
20
194.000000
30
0.0
0
SEQEND
8
10_COTATION
0
LINE
8
10_COTATION
10
34.000000
20
196.800000
30
0.0
11
48.000000
21
196.800000
31
0.0
0
TEXT
8
10_COTATION
10
48.000000
20
197.600000
30
0.0
40
2.000000
1
T.N. / FIL D'EAU
41
0.850000
7
STANDARD
72
2
11
48.000000
21
197.600000
31
0.0
73
1
0
LINE
8
11_TEXTE
10
108.400000
20
234.900000
30
0.0
11
222.000000
21
264.400000
31
0.0
0
LINE
8
11_TEXTE
10
222.000000
20
264.400000
30
0.0
11
226.000000
21
264.400000
31
0.0
0
SOLID
8
11_TEXTE
10
108.400000
20
234.900000
30
0.0
11
110.932849
21
235.092813
31
0.0
12
110.706637
22
235.963920
32
0.0
13
110.706637
23
235.963920
33
0.0
0
TEXT
8
11_TEXTE
10
227.000000
20
264.400000
30
0.0
40
2.500000
1
7 - HA12 e=15
41
0.850000
7
STANDARD
72
0
11
227.000000
21
264.400000
31
0.0
73
2
0
LINE
8
11_TEXTE
10
96.800000
20
223.100000
30
0.0
11
222.000000
21
223.100000
31
0.0
0
LINE
8
11_TEXTE
10
222.000000
20
223.100000
30
0.0
11
226.000000
21
223.100000
31
0.0
0
SOLID
8
11_TEXTE
10
96.800000
20
223.100000
30
0.0
11
99.300000
21
222.650000
31
0.0
12
99.300000
22
223.550000
32
0.0
13
99.300000
23
223.550000
33
0.0
0
TEXT
8
11_TEXTE
10
227.000000
20
223.100000
30
0.0
40
2.500000
1
8 - HA10 e=20  /  9 - HA10 e=20
41
0.850000
7
STANDARD
72
0
11
227.000000
21
223.100000
31
0.0
73
2
0
LINE
8
11_TEXTE
10
118.000000
20
160.000000
30
0.0
11
222.000000
21
142.000000
31
0.0
0
LINE
8
11_TEXTE
10
222.000000
20
142.000000
30
0.0
11
226.000000
21
142.000000
31
0.0
0
SOLID
8
11_TEXTE
10
118.000000
20
160.000000
30
0.0
11
120.386633
21
159.130239
31
0.0
12
120.540120
22
160.017054
32
0.0
13
120.540120
23
160.017054
33
0.0
0
TEXT
8
11_TEXTE
10
227.000000
20
142.000000
30
0.0
40
2.500000
1
10 - HA12 e=15  /  11 - HA10 e=20
41
0.850000
7
STANDARD
72
0
11
227.000000
21
142.000000
31
0.0
73
2
0
LINE
8
11_TEXTE
10
116.000000
20
234.000000
30
0.0
11
222.000000
21
232.000000
31
0.0
0
LINE
8
11_TEXTE
10
222.000000
20
232.000000
30
0.0
11
226.000000
21
232.000000
31
0.0
0
SOLID
8
11_TEXTE
10
116.000000
20
234.000000
30
0.0
11
118.491066
21
233.502919
31
0.0
12
118.508044
22
234.402759
32
0.0
13
118.508044
23
234.402759
33
0.0
0
TEXT
8
11_TEXTE
10
227.000000
20
232.000000
30
0.0
40
2.500000
1
MATERIAU DRAINANT + GEOTEXTILE
41
0.850000
7
STANDARD
72
0
11
227.000000
21
232.000000
31
0.0
73
2
0
LINE
8
11_TEXTE
10
114.000000
20
205.200000
30
0.0
11
222.000000
21
192.000000
31
0.0
0
LINE
8
11_TEXTE
10
222.000000
20
192.000000
30
0.0
11
226.000000
21
192.000000
31
0.0
0
SOLID
8
11_TEXTE
10
114.000000
20
205.200000
30
0.0
11
116.426940
21
204.450025
31
0.0
12
116.536128
22
205.343378
32
0.0
13
116.536128
23
205.343378
33
0.0
0
TEXT
8
11_TEXTE
10
227.000000
20
192.000000
30
0.0
40
2.500000
1
BARBACANE PVC %%c100 e=2.00 m
41
0.850000
7
STANDARD
72
0
11
227.000000
21
192.000000
31
0.0
73
2
0
TEXT
8
11_TEXTE
10
118.000000
20
98.000000
30
0.0
40
2.500000
1
COUPE TYPE
41
0.850000
7
STANDARD
72
1
11
118.000000
21
98.000000
31
0.0
73
1
0
POLYLINE
8
02_BETON
66
1
10
0.0
20
0.0
30
0.0
70
1
0
VERTEX
8
02_BETON
10
342.000000
20
170.000000
30
0.0
0
VERTEX
8
02_BETON
10
342.000000
20
288.000000
30
0.0
0
VERTEX
8
02_BETON
10
462.000000
20
194.000000
30
0.0
0
VERTEX
8
02_BETON
10
462.000000
20
170.000000
30
0.0
0
SEQEND
8
02_BETON
0
LINE
8
04_HACHURES
10
457.757359
20
170.000000
30
0.0
11
462.000000
21
174.242641
31
0.0
0
LINE
8
04_HACHURES
10
449.272078
20
170.000000
30
0.0
11
462.000000
21
182.727922
31
0.0
0
LINE
8
04_HACHURES
10
440.786797
20
170.000000
30
0.0
11
462.000000
21
191.213203
31
0.0
0
LINE
8
04_HACHURES
10
432.301515
20
170.000000
30
0.0
11
458.804588
21
196.503073
31
0.0
0
LINE
8
04_HACHURES
10
423.816234
20
170.000000
30
0.0
11
454.046486
21
200.230252
31
0.0
0
LINE
8
04_HACHURES
10
415.330952
20
170.000000
30
0.0
11
449.288385
21
203.957432
31
0.0
0
LINE
8
04_HACHURES
10
406.845671
20
170.000000
30
0.0
11
444.530283
21
207.684612
31
0.0
0
LINE
8
04_HACHURES
10
398.360390
20
170.000000
30
0.0
11
439.772181
21
211.411791
31
0.0
0
LINE
8
04_HACHURES
10
389.875108
20
170.000000
30
0.0
11
435.014079
21
215.138971
31
0.0
0
LINE
8
04_HACHURES
10
381.389827
20
170.000000
30
0.0
11
430.255978
21
218.866151
31
0.0
0
LINE
8
04_HACHURES
10
372.904546
20
170.000000
30
0.0
11
425.497876
21
222.593330
31
0.0
0
LINE
8
04_HACHURES
10
364.419264
20
170.000000
30
0.0
11
420.739774
21
226.320510
31
0.0
0
LINE
8
04_HACHURES
10
355.933983
20
170.000000
30
0.0
11
415.981673
21
230.047690
31
0.0
0
LINE
8
04_HACHURES
10
347.448701
20
170.000000
30
0.0
11
411.223571
21
233.774869
31
0.0
0
LINE
8
04_HACHURES
10
342.000000
20
173.036580
30
0.0
11
406.465469
21
237.502049
31
0.0
0
LINE
8
04_HACHURES
10
342.000000
20
181.521861
30
0.0
11
401.707367
21
241.229229
31
0.0
0
LINE
8
04_HACHURES
10
342.000000
20
190.007143
30
0.0
11
396.949266
21
244.956408
31
0.0
0
LINE
8
04_HACHURES
10
342.000000
20
198.492424
30
0.0
11
392.191164
21
248.683588
31
0.0
0
LINE
8
04_HACHURES
10
342.000000
20
206.977705
30
0.0
11
387.433062
21
252.410768
31
0.0
0
LINE
8
04_HACHURES
10
342.000000
20
215.462987
30
0.0
11
382.674961
21
256.137947
31
0.0
0
LINE
8
04_HACHURES
10
342.000000
20
223.948268
30
0.0
11
377.916859
21
259.865127
31
0.0
0
LINE
8
04_HACHURES
10
342.000000
20
232.433550
30
0.0
11
373.158757
21
263.592307
31
0.0
0
LINE
8
04_HACHURES
10
342.000000
20
240.918831
30
0.0
11
368.400656
21
267.319486
31
0.0
0
LINE
8
04_HACHURES
10
342.000000
20
249.404112
30
0.0
11
363.642554
21
271.046666
31
0.0
0
LINE
8
04_HACHURES
10
342.000000
20
257.889394
30
0.0
11
358.884452
21
274.773846
31
0.0
0
LINE
8
04_HACHURES
10
342.000000
20
266.374675
30
0.0
11
354.126350
21
278.501025
31
0.0
0
LINE
8
04_HACHURES
10
342.000000
20
274.859956
30
0.0
11
349.368249
21
282.228205
31
0.0
0
LINE
8
04_HACHURES
10
342.000000
20
283.345238
30
0.0
11
344.610147
21
285.955385
31
0.0
0
POLYLINE
8
02_BETON
66
1
10
0.0
20
0.0
30
0.0
70
1
0
VERTEX
8
02_BETON
10
338.000000
20
156.000000
30
0.0
0
VERTEX
8
02_BETON
10
466.000000
20
156.000000
30
0.0
0
VERTEX
8
02_BETON
10
466.000000
20
170.000000
30
0.0
0
VERTEX
8
02_BETON
10
338.000000
20
170.000000
30
0.0
0
SEQEND
8
02_BETON
0
LINE
8
04_HACHURES
10
464.444365
20
156.000000
30
0.0
11
466.000000
21
157.555635
31
0.0
0
LINE
8
04_HACHURES
10
461.333095
20
156.000000
30
0.0
11
466.000000
21
160.666905
31
0.0
0
LINE
8
04_HACHURES
10
458.221825
20
156.000000
30
0.0
11
466.000000
21
163.778175
31
0.0
0
LINE
8
04_HACHURES
10
455.110556
20
156.000000
30
0.0
11
466.000000
21
166.889444
31
0.0
0
LINE
8
04_HACHURES
10
451.999286
20
156.000000
30
0.0
11
465.999286
21
170.000000
31
0.0
0
LINE
8
04_HACHURES
10
448.888016
20
156.000000
30
0.0
11
462.888016
21
170.000000
31
0.0
0
LINE
8
04_HACHURES
10
445.776746
20
156.000000
30
0.0
11
459.776746
21
170.000000
31
0.0
0
LINE
8
04_HACHURES
10
442.665476
20
156.000000
30
0.0
11
456.665476
21
170.000000
31
0.0
0
LINE
8
04_HACHURES
10
439.554206
20
156.000000
30
0.0
11
453.554206
21
170.000000
31
0.0
0
LINE
8
04_HACHURES
10
436.442937
20
156.000000
30
0.0
11
450.442937
21
170.000000
31
0.0
0
LINE
8
04_HACHURES
10
433.331667
20
156.000000
30
0.0
11
447.331667
21
170.000000
31
0.0
0
LINE
8
04_HACHURES
10
430.220397
20
156.000000
30
0.0
11
444.220397
21
170.000000
31
0.0
0
LINE
8
04_HACHURES
10
427.109127
20
156.000000
30
0.0
11
441.109127
21
170.000000
31
0.0
0
LINE
8
04_HACHURES
10
423.997857
20
156.000000
30
0.0
11
437.997857
21
170.000000
31
0.0
0
LINE
8
04_HACHURES
10
420.886587
20
156.000000
30
0.0
11
434.886587
21
170.000000
31
0.0
0
LINE
8
04_HACHURES
10
417.775318
20
156.000000
30
0.0
11
431.775318
21
170.000000
31
0.0
0
LINE
8
04_HACHURES
10
414.664048
20
156.000000
30
0.0
11
428.664048
21
170.000000
31
0.0
0
LINE
8
04_HACHURES
10
411.552778
20
156.000000
30
0.0
11
425.552778
21
170.000000
31
0.0
0
LINE
8
04_HACHURES
10
408.441508
20
156.000000
30
0.0
11
422.441508
21
170.000000
31
0.0
0
LINE
8
04_HACHURES
10
405.330238
20
156.000000
30
0.0
11
419.330238
21
170.000000
31
0.0
0
LINE
8
04_HACHURES
10
402.218968
20
156.000000
30
0.0
11
416.218968
21
170.000000
31
0.0
0
LINE
8
04_HACHURES
10
399.107698
20
156.000000
30
0.0
11
413.107698
21
170.000000
31
0.0
0
LINE
8
04_HACHURES
10
395.996429
20
156.000000
30
0.0
11
409.996429
21
170.000000
31
0.0
0
LINE
8
04_HACHURES
10
392.885159
20
156.000000
30
0.0
11
406.885159
21
170.000000
31
0.0
0
LINE
8
04_HACHURES
10
389.773889
20
156.000000
30
0.0
11
403.773889
21
170.000000
31
0.0
0
LINE
8
04_HACHURES
10
386.662619
20
156.000000
30
0.0
11
400.662619
21
170.000000
31
0.0
0
LINE
8
04_HACHURES
10
383.551349
20
156.000000
30
0.0
11
397.551349
21
170.000000
31
0.0
0
LINE
8
04_HACHURES
10
380.440079
20
156.000000
30
0.0
11
394.440079
21
170.000000
31
0.0
0
LINE
8
04_HACHURES
10
377.328810
20
156.000000
30
0.0
11
391.328810
21
170.000000
31
0.0
0
LINE
8
04_HACHURES
10
374.217540
20
156.000000
30
0.0
11
388.217540
21
170.000000
31
0.0
0
LINE
8
04_HACHURES
10
371.106270
20
156.000000
30
0.0
11
385.106270
21
170.000000
31
0.0
0
LINE
8
04_HACHURES
10
367.995000
20
156.000000
30
0.0
11
381.995000
21
170.000000
31
0.0
0
LINE
8
04_HACHURES
10
364.883730
20
156.000000
30
0.0
11
378.883730
21
170.000000
31
0.0
0
LINE
8
04_HACHURES
10
361.772460
20
156.000000
30
0.0
11
375.772460
21
170.000000
31
0.0
0
LINE
8
04_HACHURES
10
358.661191
20
156.000000
30
0.0
11
372.661191
21
170.000000
31
0.0
0
LINE
8
04_HACHURES
10
355.549921
20
156.000000
30
0.0
11
369.549921
21
170.000000
31
0.0
0
LINE
8
04_HACHURES
10
352.438651
20
156.000000
30
0.0
11
366.438651
21
170.000000
31
0.0
0
LINE
8
04_HACHURES
10
349.327381
20
156.000000
30
0.0
11
363.327381
21
170.000000
31
0.0
0
LINE
8
04_HACHURES
10
346.216111
20
156.000000
30
0.0
11
360.216111
21
170.000000
31
0.0
0
LINE
8
04_HACHURES
10
343.104841
20
156.000000
30
0.0
11
357.104841
21
170.000000
31
0.0
0
LINE
8
04_HACHURES
10
339.993572
20
156.000000
30
0.0
11
353.993572
21
170.000000
31
0.0
0
LINE
8
04_HACHURES
10
338.000000
20
157.117698
30
0.0
11
350.882302
21
170.000000
31
0.0
0
LINE
8
04_HACHURES
10
338.000000
20
160.228968
30
0.0
11
347.771032
21
170.000000
31
0.0
0
LINE
8
04_HACHURES
10
338.000000
20
163.340238
30
0.0
11
344.659762
21
170.000000
31
0.0
0
LINE
8
04_HACHURES
10
338.000000
20
166.451508
30
0.0
11
341.548492
21
170.000000
31
0.0
0
LINE
8
04_HACHURES
10
338.000000
20
169.562778
30
0.0
11
338.437222
21
170.000000
31
0.0
0
LINE
8
08_ACIER_LONG
10
342.000000
20
158.000000
30
0.0
11
342.000000
21
286.400000
31
0.0
0
LINE
8
08_ACIER_LONG
10
348.000000
20
158.000000
30
0.0
11
348.000000
21
281.700000
31
0.0
0
LINE
8
08_ACIER_LONG
10
354.000000
20
158.000000
30
0.0
11
354.000000
21
277.000000
31
0.0
0
LINE
8
08_ACIER_LONG
10
360.000000
20
158.000000
30
0.0
11
360.000000
21
272.300000
31
0.0
0
LINE
8
08_ACIER_LONG
10
366.000000
20
158.000000
30
0.0
11
366.000000
21
267.600000
31
0.0
0
LINE
8
08_ACIER_LONG
10
372.000000
20
158.000000
30
0.0
11
372.000000
21
262.900000
31
0.0
0
LINE
8
08_ACIER_LONG
10
378.000000
20
158.000000
30
0.0
11
378.000000
21
258.200000
31
0.0
0
LINE
8
08_ACIER_LONG
10
384.000000
20
158.000000
30
0.0
11
384.000000
21
253.500000
31
0.0
0
LINE
8
08_ACIER_LONG
10
390.000000
20
158.000000
30
0.0
11
390.000000
21
248.800000
31
0.0
0
LINE
8
08_ACIER_LONG
10
396.000000
20
158.000000
30
0.0
11
396.000000
21
244.100000
31
0.0
0
LINE
8
08_ACIER_LONG
10
402.000000
20
158.000000
30
0.0
11
402.000000
21
239.400000
31
0.0
0
LINE
8
08_ACIER_LONG
10
408.000000
20
158.000000
30
0.0
11
408.000000
21
234.700000
31
0.0
0
LINE
8
08_ACIER_LONG
10
414.000000
20
158.000000
30
0.0
11
414.000000
21
230.000000
31
0.0
0
LINE
8
08_ACIER_LONG
10
420.000000
20
158.000000
30
0.0
11
420.000000
21
225.300000
31
0.0
0
LINE
8
08_ACIER_LONG
10
426.000000
20
158.000000
30
0.0
11
426.000000
21
220.600000
31
0.0
0
LINE
8
08_ACIER_LONG
10
432.000000
20
158.000000
30
0.0
11
432.000000
21
215.900000
31
0.0
0
LINE
8
08_ACIER_LONG
10
438.000000
20
158.000000
30
0.0
11
438.000000
21
211.200000
31
0.0
0
LINE
8
08_ACIER_LONG
10
444.000000
20
158.000000
30
0.0
11
444.000000
21
206.500000
31
0.0
0
LINE
8
08_ACIER_LONG
10
450.000000
20
158.000000
30
0.0
11
450.000000
21
201.800000
31
0.0
0
LINE
8
08_ACIER_LONG
10
456.000000
20
158.000000
30
0.0
11
456.000000
21
197.100000
31
0.0
0
LINE
8
08_ACIER_LONG
10
462.000000
20
158.000000
30
0.0
11
462.000000
21
192.400000
31
0.0
0
LINE
8
08_ACIER_LONG
10
343.600000
20
178.000000
30
0.0
11
460.400000
21
178.000000
31
0.0
0
LINE
8
08_ACIER_LONG
10
343.600000
20
186.000000
30
0.0
11
460.400000
21
186.000000
31
0.0
0
LINE
8
08_ACIER_LONG
10
343.600000
20
194.000000
30
0.0
11
460.400000
21
194.000000
31
0.0
0
LINE
8
08_ACIER_LONG
10
343.600000
20
202.000000
30
0.0
11
450.187234
21
202.000000
31
0.0
0
LINE
8
08_ACIER_LONG
10
343.600000
20
210.000000
30
0.0
11
439.974468
21
210.000000
31
0.0
0
LINE
8
08_ACIER_LONG
10
343.600000
20
218.000000
30
0.0
11
429.761702
21
218.000000
31
0.0
0
LINE
8
08_ACIER_LONG
10
343.600000
20
226.000000
30
0.0
11
419.548936
21
226.000000
31
0.0
0
LINE
8
08_ACIER_LONG
10
343.600000
20
234.000000
30
0.0
11
409.336170
21
234.000000
31
0.0
0
LINE
8
08_ACIER_LONG
10
343.600000
20
242.000000
30
0.0
11
399.123404
21
242.000000
31
0.0
0
LINE
8
08_ACIER_LONG
10
343.600000
20
250.000000
30
0.0
11
388.910638
21
250.000000
31
0.0
0
LINE
8
08_ACIER_LONG
10
343.600000
20
258.000000
30
0.0
11
378.697872
21
258.000000
31
0.0
0
LINE
8
08_ACIER_LONG
10
343.600000
20
266.000000
30
0.0
11
368.485106
21
266.000000
31
0.0
0
LINE
8
08_ACIER_LONG
10
343.600000
20
274.000000
30
0.0
11
358.272340
21
274.000000
31
0.0
0
LINE
8
08_ACIER_LONG
10
343.600000
20
282.000000
30
0.0
11
348.059574
21
282.000000
31
0.0
0
LINE
8
10_COTATION
10
342.000000
20
155.000000
30
0.0
11
342.000000
21
136.500000
31
0.0
0
LINE
8
10_COTATION
10
462.000000
20
155.000000
30
0.0
11
462.000000
21
136.500000
31
0.0
0
LINE
8
10_COTATION
10
342.000000
20
138.000000
30
0.0
11
462.000000
21
138.000000
31
0.0
0
LINE
8
10_COTATION
10
341.116117
20
137.116117
30
0.0
11
342.883883
21
138.883883
31
0.0
0
LINE
8
10_COTATION
10
461.116117
20
137.116117
30
0.0
11
462.883883
21
138.883883
31
0.0
0
TEXT
8
10_COTATION
10
402.000000
20
138.800000
30
0.0
40
2.000000
1
3.00
41
0.850000
7
STANDARD
72
1
11
402.000000
21
138.800000
31
0.0
73
1
0
LINE
8
10_COTATION
10
341.000000
20
170.000000
30
0.0
11
322.500000
21
170.000000
31
0.0
0
LINE
8
10_COTATION
10
341.000000
20
288.000000
30
0.0
11
322.500000
21
288.000000
31
0.0
0
LINE
8
10_COTATION
10
324.000000
20
170.000000
30
0.0
11
324.000000
21
288.000000
31
0.0
0
LINE
8
10_COTATION
10
323.116117
20
169.116117
30
0.0
11
324.883883
21
170.883883
31
0.0
0
LINE
8
10_COTATION
10
323.116117
20
287.116117
30
0.0
11
324.883883
21
288.883883
31
0.0
0
TEXT
8
10_COTATION
10
323.200000
20
229.000000
30
0.0
40
2.000000
1
2.95
50
90.000000
41
0.850000
7
STANDARD
72
1
11
323.200000
21
229.000000
31
0.0
73
3
0
LINE
8
10_COTATION
10
463.000000
20
170.000000
30
0.0
11
481.500000
21
170.000000
31
0.0
0
LINE
8
10_COTATION
10
463.000000
20
194.000000
30
0.0
11
481.500000
21
194.000000
31
0.0
0
LINE
8
10_COTATION
10
480.000000
20
170.000000
30
0.0
11
480.000000
21
194.000000
31
0.0
0
LINE
8
10_COTATION
10
479.116117
20
169.116117
30
0.0
11
480.883883
21
170.883883
31
0.0
0
LINE
8
10_COTATION
10
479.116117
20
193.116117
30
0.0
11
480.883883
21
194.883883
31
0.0
0
TEXT
8
10_COTATION
10
480.800000
20
182.000000
30
0.0
40
2.000000
1
0.60
50
90.000000
41
0.850000
7
STANDARD
72
1
11
480.800000
21
182.000000
31
0.0
73
1
0
TEXT
8
11_TEXTE
10
402.000000
20
98.000000
30
0.0
40
2.500000
1
ELEVATION DEVELOPPEE - ARASE SUIVANT TALUS 3/2
41
0.850000
7
STANDARD
72
1
11
402.000000
21
98.000000
31
0.0
73
1
0
POLYLINE
8
02_BETON
66
1
10
0.0
20
0.0
30
0.0
70
0
0
VERTEX
8
02_BETON
10
510.500000
20
299.200000
30
0.0
0
VERTEX
8
02_BETON
10
510.500000
20
207.200000
30
0.0
0
VERTEX
8
02_BETON
10
590.500000
20
207.200000
30
0.0
0
SEQEND
8
02_BETON
0
POLYLINE
8
02_BETON
66
1
10
0.0
20
0.0
30
0.0
70
0
0
VERTEX
8
02_BETON
10
535.500000
20
299.200000
30
0.0
0
VERTEX
8
02_BETON
10
535.500000
20
257.200000
30
0.0
0
VERTEX
8
02_BETON
10
555.500000
20
237.200000
30
0.0
0
VERTEX
8
02_BETON
10
590.500000
20
237.200000
30
0.0
0
SEQEND
8
02_BETON
0
LINE
8
04_HACHURES
10
588.944365
20
207.200000
30
0.0
11
590.500000
21
208.755635
31
0.0
0
LINE
8
04_HACHURES
10
585.833095
20
207.200000
30
0.0
11
590.500000
21
211.866905
31
0.0
0
LINE
8
04_HACHURES
10
582.721825
20
207.200000
30
0.0
11
590.500000
21
214.978175
31
0.0
0
LINE
8
04_HACHURES
10
579.610556
20
207.200000
30
0.0
11
590.500000
21
218.089444
31
0.0
0
LINE
8
04_HACHURES
10
576.499286
20
207.200000
30
0.0
11
590.500000
21
221.200714
31
0.0
0
LINE
8
04_HACHURES
10
573.388016
20
207.200000
30
0.0
11
590.500000
21
224.311984
31
0.0
0
LINE
8
04_HACHURES
10
570.276746
20
207.200000
30
0.0
11
590.500000
21
227.423254
31
0.0
0
LINE
8
04_HACHURES
10
567.165476
20
207.200000
30
0.0
11
590.500000
21
230.534524
31
0.0
0
LINE
8
04_HACHURES
10
564.054206
20
207.200000
30
0.0
11
590.500000
21
233.645794
31
0.0
0
LINE
8
04_HACHURES
10
560.942937
20
207.200000
30
0.0
11
590.500000
21
236.757063
31
0.0
0
LINE
8
04_HACHURES
10
557.831667
20
207.200000
30
0.0
11
587.831667
21
237.200000
31
0.0
0
LINE
8
04_HACHURES
10
554.720397
20
207.200000
30
0.0
11
584.720397
21
237.200000
31
0.0
0
LINE
8
04_HACHURES
10
551.609127
20
207.200000
30
0.0
11
581.609127
21
237.200000
31
0.0
0
LINE
8
04_HACHURES
10
548.497857
20
207.200000
30
0.0
11
578.497857
21
237.200000
31
0.0
0
LINE
8
04_HACHURES
10
545.386587
20
207.200000
30
0.0
11
575.386587
21
237.200000
31
0.0
0
LINE
8
04_HACHURES
10
542.275318
20
207.200000
30
0.0
11
572.275318
21
237.200000
31
0.0
0
LINE
8
04_HACHURES
10
539.164048
20
207.200000
30
0.0
11
569.164048
21
237.200000
31
0.0
0
LINE
8
04_HACHURES
10
536.052778
20
207.200000
30
0.0
11
566.052778
21
237.200000
31
0.0
0
LINE
8
04_HACHURES
10
532.941508
20
207.200000
30
0.0
11
562.941508
21
237.200000
31
0.0
0
LINE
8
04_HACHURES
10
529.830238
20
207.200000
30
0.0
11
559.830238
21
237.200000
31
0.0
0
LINE
8
04_HACHURES
10
526.718968
20
207.200000
30
0.0
11
556.718968
21
237.200000
31
0.0
0
LINE
8
04_HACHURES
10
523.607698
20
207.200000
30
0.0
11
554.553849
21
238.146151
31
0.0
0
LINE
8
04_HACHURES
10
520.496429
20
207.200000
30
0.0
11
552.998214
21
239.701786
31
0.0
0
LINE
8
04_HACHURES
10
517.385159
20
207.200000
30
0.0
11
551.442579
21
241.257421
31
0.0
0
LINE
8
04_HACHURES
10
514.273889
20
207.200000
30
0.0
11
549.886944
21
242.813056
31
0.0
0
LINE
8
04_HACHURES
10
511.162619
20
207.200000
30
0.0
11
548.331310
21
244.368690
31
0.0
0
LINE
8
04_HACHURES
10
510.500000
20
209.648651
30
0.0
11
546.775675
21
245.924325
31
0.0
0
LINE
8
04_HACHURES
10
510.500000
20
212.759921
30
0.0
11
545.220040
21
247.479960
31
0.0
0
LINE
8
04_HACHURES
10
510.500000
20
215.871190
30
0.0
11
543.664405
21
249.035595
31
0.0
0
LINE
8
04_HACHURES
10
510.500000
20
218.982460
30
0.0
11
542.108770
21
250.591230
31
0.0
0
LINE
8
04_HACHURES
10
510.500000
20
222.093730
30
0.0
11
540.553135
21
252.146865
31
0.0
0
LINE
8
04_HACHURES
10
510.500000
20
225.205000
30
0.0
11
538.997500
21
253.702500
31
0.0
0
LINE
8
04_HACHURES
10
510.500000
20
228.316270
30
0.0
11
537.441865
21
255.258135
31
0.0
0
LINE
8
04_HACHURES
10
510.500000
20
231.427540
30
0.0
11
535.886230
21
256.813770
31
0.0
0
LINE
8
04_HACHURES
10
510.500000
20
234.538809
30
0.0
11
535.500000
21
259.538809
31
0.0
0
LINE
8
04_HACHURES
10
510.500000
20
237.650079
30
0.0
11
535.500000
21
262.650079
31
0.0
0
LINE
8
04_HACHURES
10
510.500000
20
240.761349
30
0.0
11
535.500000
21
265.761349
31
0.0
0
LINE
8
04_HACHURES
10
510.500000
20
243.872619
30
0.0
11
535.500000
21
268.872619
31
0.0
0
LINE
8
04_HACHURES
10
510.500000
20
246.983889
30
0.0
11
535.500000
21
271.983889
31
0.0
0
LINE
8
04_HACHURES
10
510.500000
20
250.095159
30
0.0
11
535.500000
21
275.095159
31
0.0
0
LINE
8
04_HACHURES
10
510.500000
20
253.206428
30
0.0
11
535.500000
21
278.206428
31
0.0
0
LINE
8
04_HACHURES
10
510.500000
20
256.317698
30
0.0
11
535.500000
21
281.317698
31
0.0
0
LINE
8
04_HACHURES
10
510.500000
20
259.428968
30
0.0
11
535.500000
21
284.428968
31
0.0
0
LINE
8
04_HACHURES
10
510.500000
20
262.540238
30
0.0
11
535.500000
21
287.540238
31
0.0
0
LINE
8
04_HACHURES
10
510.500000
20
265.651508
30
0.0
11
535.500000
21
290.651508
31
0.0
0
LINE
8
04_HACHURES
10
510.500000
20
268.762778
30
0.0
11
535.500000
21
293.762778
31
0.0
0
LINE
8
04_HACHURES
10
510.500000
20
271.874047
30
0.0
11
535.500000
21
296.874047
31
0.0
0
LINE
8
04_HACHURES
10
510.500000
20
274.985317
30
0.0
11
534.714683
21
299.200000
31
0.0
0
LINE
8
04_HACHURES
10
510.500000
20
278.096587
30
0.0
11
531.603413
21
299.200000
31
0.0
0
LINE
8
04_HACHURES
10
510.500000
20
281.207857
30
0.0
11
528.492143
21
299.200000
31
0.0
0
LINE
8
04_HACHURES
10
510.500000
20
284.319127
30
0.0
11
525.380873
21
299.200000
31
0.0
0
LINE
8
04_HACHURES
10
510.500000
20
287.430397
30
0.0
11
522.269603
21
299.200000
31
0.0
0
LINE
8
04_HACHURES
10
510.500000
20
290.541666
30
0.0
11
519.158334
21
299.200000
31
0.0
0
LINE
8
04_HACHURES
10
510.500000
20
293.652936
30
0.0
11
516.047064
21
299.200000
31
0.0
0
LINE
8
04_HACHURES
10
510.500000
20
296.764206
30
0.0
11
512.935794
21
299.200000
31
0.0
0
LINE
8
03_BETON_CACHE
10
590.500000
20
299.200000
30
0.0
11
590.500000
21
207.200000
31
0.0
0
POLYLINE
8
08_ACIER_LONG
66
1
10
0.0
20
0.0
30
0.0
70
0
0
VERTEX
8
08_ACIER_LONG
10
514.500000
20
299.200000
30
0.0
0
VERTEX
8
08_ACIER_LONG
10
514.500000
20
212.200000
30
0.0
0
VERTEX
8
08_ACIER_LONG
10
590.500000
20
212.200000
30
0.0
0
SEQEND
8
08_ACIER_LONG
0
POLYLINE
8
08_ACIER_LONG
66
1
10
0.0
20
0.0
30
0.0
70
0
0
VERTEX
8
08_ACIER_LONG
10
531.500000
20
299.200000
30
0.0
0
VERTEX
8
08_ACIER_LONG
10
531.500000
20
255.543146
30
0.0
0
VERTEX
8
08_ACIER_LONG
10
553.843146
20
233.200000
30
0.0
0
VERTEX
8
08_ACIER_LONG
10
590.500000
20
233.200000
30
0.0
0
SEQEND
8
08_ACIER_LONG
0
SOLID
8
08_ACIER_LONG
10
532.821573
20
242.921573
30
0.0
11
534.321573
21
242.921573
31
0.0
12
532.821573
22
244.421573
32
0.0
13
534.321573
23
244.421573
33
0.0
0
SOLID
8
08_ACIER_LONG
10
541.221573
20
234.521573
30
0.0
11
542.721573
21
234.521573
31
0.0
12
541.221573
22
236.021573
32
0.0
13
542.721573
23
236.021573
33
0.0
0
LINE
8
10_COTATION
10
535.500000
20
238.200000
30
0.0
11
535.500000
21
268.700000
31
0.0
0
LINE
8
10_COTATION
10
555.500000
20
238.200000
30
0.0
11
555.500000
21
268.700000
31
0.0
0
LINE
8
10_COTATION
10
535.500000
20
267.200000
30
0.0
11
555.500000
21
267.200000
31
0.0
0
LINE
8
10_COTATION
10
534.616117
20
266.316117
30
0.0
11
536.383883
21
268.083883
31
0.0
0
LINE
8
10_COTATION
10
554.616117
20
266.316117
30
0.0
11
556.383883
21
268.083883
31
0.0
0
TEXT
8
10_COTATION
10
545.500000
20
268.000000
30
0.0
40
2.000000
1
0.20
41
0.850000
7
STANDARD
72
1
11
545.500000
21
268.000000
31
0.0
73
1
0
LINE
8
10_COTATION
10
534.500000
20
237.200000
30
0.0
11
500.000000
21
237.200000
31
0.0
0
LINE
8
10_COTATION
10
534.500000
20
257.200000
30
0.0
11
500.000000
21
257.200000
31
0.0
0
LINE
8
10_COTATION
10
501.500000
20
237.200000
30
0.0
11
501.500000
21
257.200000
31
0.0
0
LINE
8
10_COTATION
10
500.616117
20
236.316117
30
0.0
11
502.383883
21
238.083883
31
0.0
0
LINE
8
10_COTATION
10
500.616117
20
256.316117
30
0.0
11
502.383883
21
258.083883
31
0.0
0
TEXT
8
10_COTATION
10
502.300000
20
247.200000
30
0.0
40
2.000000
1
0.20
50
90.000000
41
0.850000
7
STANDARD
72
1
11
502.300000
21
247.200000
31
0.0
73
1
0
LINE
8
10_COTATION
10
510.500000
20
292.200000
30
0.0
11
510.500000
21
291.700000
31
0.0
0
LINE
8
10_COTATION
10
514.500000
20
292.200000
30
0.0
11
514.500000
21
291.700000
31
0.0
0
LINE
8
10_COTATION
10
510.500000
20
293.200000
30
0.0
11
514.500000
21
293.200000
31
0.0
0
LINE
8
10_COTATION
10
509.616117
20
292.316117
30
0.0
11
511.383883
21
294.083883
31
0.0
0
LINE
8
10_COTATION
10
513.616117
20
292.316117
30
0.0
11
515.383883
21
294.083883
31
0.0
0
TEXT
8
10_COTATION
10
512.500000
20
294.000000
30
0.0
40
2.000000
1
4
41
0.850000
7
STANDARD
72
1
11
512.500000
21
294.000000
31
0.0
73
1
0
LINE
8
10_COTATION
10
589.500000
20
207.200000
30
0.0
11
579.000000
21
207.200000
31
0.0
0
LINE
8
10_COTATION
10
589.500000
20
212.200000
30
0.0
11
579.000000
21
212.200000
31
0.0
0
LINE
8
10_COTATION
10
580.500000
20
207.200000
30
0.0
11
580.500000
21
212.200000
31
0.0
0
LINE
8
10_COTATION
10
579.616117
20
206.316117
30
0.0
11
581.383883
21
208.083883
31
0.0
0
LINE
8
10_COTATION
10
579.616117
20
211.316117
30
0.0
11
581.383883
21
213.083883
31
0.0
0
TEXT
8
10_COTATION
10
579.700000
20
209.700000
30
0.0
40
2.000000
1
5
50
90.000000
41
0.850000
7
STANDARD
72
1
11
579.700000
21
209.700000
31
0.0
73
3
0
LINE
8
10_COTATION
10
510.500000
20
206.200000
30
0.0
11
510.500000
21
199.700000
31
0.0
0
LINE
8
10_COTATION
10
535.500000
20
206.200000
30
0.0
11
535.500000
21
199.700000
31
0.0
0
LINE
8
10_COTATION
10
510.500000
20
201.200000
30
0.0
11
535.500000
21
201.200000
31
0.0
0
LINE
8
10_COTATION
10
509.616117
20
200.316117
30
0.0
11
511.383883
21
202.083883
31
0.0
0
LINE
8
10_COTATION
10
534.616117
20
200.316117
30
0.0
11
536.383883
21
202.083883
31
0.0
0
TEXT
8
10_COTATION
10
523.000000
20
202.000000
30
0.0
40
2.000000
1
0.25
41
0.850000
7
STANDARD
72
1
11
523.000000
21
202.000000
31
0.0
73
1
0
LINE
8
10_COTATION
10
509.500000
20
207.200000
30
0.0
11
503.000000
21
207.200000
31
0.0
0
LINE
8
10_COTATION
10
509.500000
20
237.200000
30
0.0
11
503.000000
21
237.200000
31
0.0
0
LINE
8
10_COTATION
10
504.500000
20
207.200000
30
0.0
11
504.500000
21
237.200000
31
0.0
0
LINE
8
10_COTATION
10
503.616117
20
206.316117
30
0.0
11
505.383883
21
208.083883
31
0.0
0
LINE
8
10_COTATION
10
503.616117
20
236.316117
30
0.0
11
505.383883
21
238.083883
31
0.0
0
TEXT
8
10_COTATION
10
503.700000
20
222.200000
30
0.0
40
2.000000
1
0.30
50
90.000000
41
0.850000
7
STANDARD
72
1
11
503.700000
21
222.200000
31
0.0
73
3
0
LINE
8
11_TEXTE
10
540.500000
20
247.200000
30
0.0
11
581.500000
21
287.200000
31
0.0
0
LINE
8
11_TEXTE
10
581.500000
20
287.200000
30
0.0
11
585.500000
21
287.200000
31
0.0
0
SOLID
8
11_TEXTE
10
540.500000
20
247.200000
30
0.0
11
542.603701
21
248.623708
31
0.0
12
541.975209
22
249.267912
32
0.0
13
541.975209
23
249.267912
33
0.0
0
TEXT
8
11_TEXTE
10
586.500000
20
287.200000
30
0.0
40
2.500000
1
5 - 2 HA12 FILANTS
41
0.850000
7
STANDARD
72
0
11
586.500000
21
287.200000
31
0.0
73
2
0
TEXT
8
11_TEXTE
10
544.500000
20
185.200000
30
0.0
40
2.200000
1
GOUSSET 0.20 x 0.20 A 45 deg
41
0.850000
7
STANDARD
72
1
11
544.500000
21
185.200000
31
0.0
73
3
0
ENDSEC
0
EOF
